<svg xmlns="http://www.w3.org/2000/svg" viewBox="0 0 458.32 425.08" style="enable-background:new 0 0 458.32 425.08" xml:space="preserve"><style>.st1{fill:#e0e0e0}.st2{fill:#ebebeb}.st3{fill:#f5f5f5}.st6{fill:#ab2931}.st7{fill:#263238}.st8{opacity:.3}.st10{fill:#ef9d78}.st11{fill:#d37a57}.st12{fill:#455a64}.st13{fill:#0e213f}.st14{fill:#e8505b}</style><g id="Background_Complete"><path style="fill:#fafafa" d="M19.62.55h207.47v185.62H19.62z"/><path class="st1" d="M227.09 186.17s-.03-1.19-.05-3.45c-.01-2.28-.03-5.61-.05-9.95-.03-8.71-.07-21.45-.12-37.68-.06-32.43-.14-78.77-.24-134.55l.47.47c-59.76.04-131.07.07-207.46.1h-.02l.55-.55c-.02 67.53-.05 131.08-.07 185.62l-.49-.49c61.89.1 113.7.19 150.06.25 18.19.06 32.52.1 42.32.13 4.89.03 8.64.04 11.2.06 1.26.01 2.21.02 2.89.03.67-.01 1.01.01 1.01.01s-.31.02-.94.03c-.66.01-1.6.02-2.84.03-2.54.01-6.27.03-11.11.06-9.78.03-24.07.07-42.21.13-36.44.06-88.35.14-150.37.25h-.49v-.49c-.02-54.54-.04-118.09-.07-185.62V0H19.63c76.4.03 147.7.06 207.46.08h.47v.47c-.1 55.9-.18 102.34-.24 134.85-.05 16.18-.09 28.88-.12 37.57-.02 4.3-.04 7.6-.05 9.86-.02 2.22-.06 3.34-.06 3.34z"/><path class="st1" d="M99.17 33.54c0 .31-10.92.55-24.39.55s-24.39-.25-24.39-.55c0-.31 10.92-.55 24.39-.55 13.47-.01 24.39.24 24.39.55zM187.08 47.47c0 .31-30 .55-67 .55-37.01 0-67.01-.25-67.01-.55 0-.31 30-.55 67.01-.55 37 0 67 .25 67 .55zM50.75 71.08h8.74v8.74h-8.74zM72.26 71.08H81v8.74h-8.74zM94.18 70.68h8.74v8.74h-8.74zM115.3 71.08h8.74v8.74h-8.74zM136.81 71.08h8.74v8.74h-8.74zM158.33 71.08h8.74v8.74h-8.74z"/><path class="st2" d="M179.84 71.08h8.74v8.74h-8.74zM50.75 89.66h8.74v8.74h-8.74z"/><path class="st1" d="M72.26 89.66H81v8.74h-8.74z"/><path class="st2" d="M93.78 89.66h8.74v8.74h-8.74z"/><path class="st1" d="M115.3 89.66h8.74v8.74h-8.74zM136.81 89.66h8.74v8.74h-8.74zM158.73 89.27h8.74v8.74h-8.74zM179.84 89.66h8.74v8.74h-8.74zM50.75 108.25h8.74v8.74h-8.74zM72.66 107.85h8.74v8.74h-8.74zM93.78 108.25h8.74v8.74h-8.74z"/><path class="st2" d="M115.3 108.25h8.74v8.74h-8.74z"/><path class="st1" d="M136.81 108.25h8.74v8.74h-8.74zM158.33 108.25h8.74v8.74h-8.74zM179.84 108.25h8.74v8.74h-8.74zM50.75 126.83h8.74v8.74h-8.74zM72.26 126.83H81v8.74h-8.74zM93.78 126.83h8.74v8.74h-8.74zM115.69 126.43h8.74v8.74h-8.74zM136.81 126.83h8.74v8.74h-8.74z"/><path class="st2" d="M158.33 126.83h8.74v8.74h-8.74z"/><path class="st1" d="M179.84 126.83h8.74v8.74h-8.74zM50.75 145.41h8.74v8.74h-8.74z"/><path class="st2" d="M72.26 145.41H81v8.74h-8.74z"/><path class="st1" d="M93.78 145.41h8.74v8.74h-8.74zM115.3 145.41h8.74v8.74h-8.74zM136.81 145.41h8.74v8.74h-8.74zM158.73 145.01h8.74v8.74h-8.74zM179.84 145.41h8.74v8.74h-8.74z"/><path class="st2" d="M409.8 250.06c9.24-4.77 20.13-5.39 30.39-3.69 5.51.91 11.26 2.56 15.01 6.7 3.75 4.14 4.46 11.43.15 14.99-2.56 2.12-6.14 2.44-9.47 2.4-8.03-.09-16.95-1.51-23.37 3.33-3.66 2.76-6.1 7.34-10.48 8.7-4.28 1.33-9.12-1.2-11.39-5.07-2.27-3.87-2.35-8.7-1.29-13.06.02 0 1.14-9.5 10.45-14.3zM388.62 209.17c5.65 8.07 16.64 5.4 21.73.47 5.09-4.93 7.25-12.07 9.21-18.88 4.48-15.56 8.99-31.89 5.66-47.74-1-4.74-2.77-9.46-6.1-12.98-3.33-3.51-8.45-5.61-13.13-4.37-5.54 1.46-8.98 6.89-11.47 12.05-7.31 15.17-11.19 31.99-11.24 48.83-.02 7.88.9 16.13 5.34 22.62M373.1 220.76c6.14-7.28 7.3-17.91 4.57-27.03-2.73-9.13-8.9-16.89-16.01-23.23a86.387 86.387 0 0 0-28.67-16.92c-4.15-1.46-8.52-2.61-12.9-2.19-4.38.42-8.78 2.65-10.82 6.55-3.02 5.76-.12 12.74 3 18.43a219.323 219.323 0 0 0 18.83 28.68c5.64 7.28 12.11 14.46 20.71 17.75 8.6 3.29 17.54 2.9 22.1-3.06"/><path class="st1" d="M388.24 330.97c.11.01.28-1.3.51-3.67.26-2.67.59-6.02.97-10.01.47-4.21 1.08-9.23 2.25-14.69 1.17-5.45 2.99-11.35 5.34-17.33 2.43-5.95 5.39-11.36 8.85-15.68 3.44-4.34 7.43-7.49 11.19-9.3 3.74-1.85 7.1-2.6 9.42-2.93 2.34-.24 3.65-.42 3.65-.53 0-.1-1.31-.12-3.72-.06-2.38.16-5.88.76-9.83 2.56-3.96 1.76-8.2 4.95-11.8 9.38-3.63 4.42-6.7 9.94-9.17 16-2.39 6.09-4.18 12.05-5.3 17.62-1.11 5.55-1.62 10.62-1.95 14.87-.32 4.25-.44 7.69-.5 10.07-.04 2.37-.02 3.69.09 3.7z"/><path class="st1" d="M388.93 323.26c.05 0 .08-.59.1-1.7 0-1.28-.01-2.89-.01-4.87-.01-4.22-.01-10.34.22-17.89.37-15.1 1.67-31.35 4.18-54.26 2.38-21.54 5.57-46.61 8.94-62.91.72-3.71 1.45-7.04 2.13-9.96.65-2.93 1.21-5.45 1.75-7.49.46-1.92.84-3.49 1.14-4.73.24-1.09.35-1.67.3-1.68-.05-.01-.25.54-.59 1.6-.37 1.23-.84 2.77-1.41 4.66-.63 2.02-1.27 4.53-2 7.45-.76 2.91-1.57 6.24-2.36 9.94-3.33 14.77-6.86 35.41-9.4 58.38-2.52 22.96-3.65 43.86-3.75 59-.09 7.57.07 13.7.26 17.92.12 1.98.22 3.59.3 4.87.08 1.09.15 1.67.2 1.67z"/><path class="st1" d="M389.03 282.94c.11 0 .09-1.81-.04-5.09-.19-3.27-.64-7.99-1.56-13.78-.98-5.77-2.34-12.63-4.48-20.07-.93-3.4-3.11-11.56-8.39-23.75-6.96-16.52-16.42-30.02-24.65-38.38-1.93-2.22-4.08-3.82-5.8-5.39-.89-.75-1.68-1.5-2.48-2.1-.81-.56-1.55-1.07-2.25-1.55-2.71-1.85-4.23-2.83-4.28-2.74-.24.33 6.07 4.04 14.03 12.52 7.93 8.46 17.13 21.87 24.04 38.25 3.85 8.88 6.54 16.81 8.44 23.53 2.2 7.38 3.66 14.16 4.77 19.87 1.05 5.73 1.66 10.4 2.02 13.64.31 3.25.53 5.05.63 5.04zM350.06 354.06l4.04 55.35h71.1l4.04-55.35z"/><path class="st1" d="M343.19 332.25h94.53v21.82h-94.53z"/><path class="st2" d="M343.19 407.29v6.05h92.97v-6.05z"/><path class="st1" d="m351.99 423.98-4.36-10.64h85.15l-5.08 10.64z"/><path class="st3" d="M427.92 372.15c.02.01-.1.19-.33.51-.28.37-.63.84-1.06 1.41-1.01 1.29-2.4 3.07-4.14 5.3l-.18.24-.18-.25c-2.6-3.6-6.08-8.41-10.18-14.07h.59c-3.03 4.29-6.4 9.06-10.02 14.19l-.31.44-.35-.42c-3.7-4.4-7.71-9.18-11.88-14.14l.68-.01c-.21.26-.43.54-.65.82-3.68 4.62-7.25 9.09-10.62 13.32l-.35.44-.33-.46c-3.61-5.1-6.98-9.87-10.02-14.18l.58.03c-4.94 5.63-9.13 10.4-12.34 14.06l-.22.25-.17-.28c-1.63-2.73-2.92-4.91-3.87-6.49-.4-.7-.73-1.27-.99-1.73-.22-.4-.32-.6-.3-.62.02-.01.16.18.41.55.29.44.65.99 1.1 1.66.99 1.55 2.35 3.69 4.06 6.38l-.39-.03c3.16-3.71 7.29-8.54 12.15-14.24l.31-.36.28.39c3.07 4.29 6.47 9.04 10.11 14.12l-.68-.02 10.6-13.34c.22-.28.45-.56.65-.82l.34-.42.35.42c4.16 4.97 8.16 9.76 11.85 14.16l-.67.03c3.66-5.1 7.06-9.85 10.12-14.11l.3-.41.29.41c4.01 5.72 7.41 10.59 9.96 14.23l-.36-.01c1.82-2.18 3.26-3.91 4.31-5.17.47-.54.85-.98 1.15-1.34.24-.3.39-.45.4-.44zM430.23 353.7c0 .24-17.82.44-39.79.44-21.98 0-39.79-.2-39.79-.44s17.81-.44 39.79-.44 39.79.19 39.79.44zM433.82 413.94c0 .24-19.36.44-43.24.44-23.89 0-43.25-.2-43.25-.44s19.36-.44 43.25-.44c23.88-.01 43.24.19 43.24.44z"/></g><g id="Character"><path class="st6" d="m177.38 203.92-8 4.29-17.7 13.63s-54.23 7.2-56.31 8.76c-2.08 1.56-29.05 14.37-32.7 31.55-3.64 17.18-11.14 129.3-11.14 129.3l9.84 33.13 197.51.31 46.32-.66s17.8-41.57 17.8-53.02c0-11.46-5.21-97.37-5.21-97.37l-55.55-39.17-84.86-30.75z"/><path class="st7" d="M151.17 221.03c.01.01-.08.17-.28.46-.23.34-.52.76-.87 1.27-.78 1.08-1.83 2.7-3.07 4.73-.6 1.03-1.28 2.14-1.91 3.39-.67 1.23-1.31 2.58-1.97 4a83.54 83.54 0 0 0-3.59 9.57c-2.09 6.96-3.17 13.47-3.89 18.18-.33 2.3-.6 4.2-.8 5.59-.09.61-.17 1.11-.23 1.52-.06.35-.1.53-.11.53-.02 0-.01-.19.01-.54.03-.41.08-.92.13-1.53.12-1.33.33-3.25.64-5.62.63-4.73 1.65-11.28 3.76-18.28 1.07-3.49 2.33-6.74 3.65-9.62.68-1.43 1.33-2.78 2.03-4.01.65-1.25 1.35-2.36 1.97-3.38 1.28-2.02 2.39-3.61 3.22-4.66.38-.49.7-.89.95-1.21.22-.26.35-.4.36-.39z"/><path d="M152.4 253.99c-.33-1.05-.75-2.25-1.78-2.66-.81-.32-.48.2-1.29.53-7.5 3.09-11.12 10.03-14.3 17.84l.18-.19c-.47 1.2.02 2.92 1.23 3.62 1.69.99 3.86.45 5.6-.45 1.74-.9 3.33-2.15 5.22-2.63 4.11-1.05 8.19 1.76 11.09 4.85 2.9 3.1 5.51 6.78 9.46 8.31a91.4 91.4 0 0 1-15.41-29.22z" class="st8"/><path class="st7" d="M134.45 270.27s.89-2.39 3.17-6.36c1.15-1.98 2.67-4.35 4.76-6.85 1.07-1.23 2.28-2.5 3.74-3.65 1.47-1.12 3.21-2.15 5.28-2.53l.15-.03.06.15c1.26 3.27 2.58 6.84 4.1 10.6 1.53 3.75 3.28 7.7 5.59 11.58 2.29 3.88 5.15 7.67 8.6 11.12 3.44 3.45 7.44 6.55 11.78 9.34 1.44.86 2.85 1.76 4.29 2.56 1.46.78 2.9 1.55 4.33 2.31l-.26.02c2.45-1.69 4.86-3.36 7.22-4.98 1.18-.81 2.35-1.62 3.5-2.41 1.16-.79 2.29-1.58 3.36-2.42 4.29-3.35 8-6.98 11.2-10.53l.02-.02.02-.01c4.45-3.42 7.9-7.33 10.27-11.21 2.42-3.86 3.81-7.62 4.63-10.77.81-3.16 1.07-5.72 1.18-7.46.06-.87.04-1.54.07-1.99.01-.45.04-.68.04-.68s.02.23.03.68c0 .45.04 1.12 0 2-.07 1.75-.28 4.33-1.06 7.52-.79 3.18-2.15 6.99-4.57 10.89-2.37 3.93-5.83 7.9-10.31 11.37l.03-.03c-3.21 3.6-6.92 7.24-11.24 10.63-1.08.85-2.21 1.65-3.37 2.44-1.15.8-2.32 1.61-3.5 2.42-2.36 1.63-4.77 3.3-7.22 5l-.13.09-.13-.07c-1.44-.76-2.89-1.54-4.36-2.32-1.45-.8-2.87-1.71-4.32-2.58-4.36-2.8-8.39-5.93-11.86-9.42a55.865 55.865 0 0 1-8.65-11.23c-2.32-3.91-4.07-7.89-5.58-11.66-1.51-3.78-2.81-7.36-4.05-10.63l.21.12c-1.97.35-3.68 1.34-5.13 2.43-1.44 1.12-2.64 2.36-3.72 3.57-2.1 2.46-3.63 4.8-4.81 6.75a72.527 72.527 0 0 0-2.53 4.61c-.26.52-.46.93-.61 1.23-.13.28-.21.42-.22.41zM246.22 245.65s.33 5.84-.72 15.25c-.53 4.7-1.48 10.28-3.05 16.37-1.56 6.09-3.79 12.66-6.62 19.38l-.38.9-.12-.98c-.07-.58-.13-1.22-.22-1.85-.5-3.69-1.37-7.25-2.52-10.56a53.972 53.972 0 0 0-3.03-7.06c-.39-.74-.74-1.46-1.22-2.09-.47-.62-1.04-1.18-1.72-1.43-.67-.26-1.41-.09-1.97.37-.56.45-1.03 1.07-1.53 1.62l-1.45 1.66-5.29 6.04c-3.23 3.66-5.85 6.63-7.69 8.72-.9 1-1.6 1.79-2.11 2.35-.23.25-.41.45-.56.6-.13.13-.2.2-.2.19-.01-.01.05-.08.16-.23.14-.17.31-.38.52-.64.49-.58 1.17-1.39 2.04-2.42 1.81-2.11 4.39-5.12 7.56-8.82 1.6-1.86 3.36-3.9 5.24-6.08.47-.55.95-1.1 1.44-1.67.5-.55.94-1.17 1.58-1.69.61-.53 1.59-.78 2.41-.45.82.31 1.43.93 1.94 1.58.52.66.89 1.42 1.28 2.15.38.74.76 1.5 1.11 2.27.71 1.55 1.37 3.17 1.96 4.84 1.17 3.35 2.05 6.93 2.55 10.66.1.64.15 1.28.22 1.87l-.5-.08c2.82-6.69 5.06-13.24 6.64-19.3 1.59-6.06 2.58-11.61 3.15-16.29.58-4.68.81-8.49.92-11.12.07-1.31.07-2.34.1-3.03.01-.32.03-.58.03-.79.04-.15.05-.24.05-.24z"/><path class="st7" d="M171.64 218.02c.01.01-.05.07-.15.2-.13.14-.29.32-.48.54-.45.45-1.02 1.19-1.76 2.14-1.43 1.93-3.23 4.94-4.79 8.95-1.6 3.99-2.93 8.98-3.59 14.62-.62 5.64-.55 11.96.8 18.38.64 3.22 1.62 6.28 2.8 9.13 1.13 2.88 2.6 5.48 4.11 7.89 3.1 4.76 6.7 8.48 10 11.22 1.61 1.43 3.25 2.48 4.62 3.51 1.46.9 2.68 1.72 3.73 2.31 1.03.56 1.84 1.01 2.43 1.34.25.15.46.26.63.36.14.08.21.13.21.14 0 .01-.08-.02-.23-.09-.17-.08-.39-.19-.65-.31-.61-.31-1.44-.72-2.48-1.25-1.07-.57-2.31-1.37-3.79-2.25-1.39-1-3.06-2.05-4.7-3.46a50.096 50.096 0 0 1-10.17-11.24c-1.53-2.42-3.02-5.05-4.18-7.95-1.19-2.88-2.19-5.97-2.83-9.22-1.37-6.48-1.42-12.86-.77-18.54.69-5.69 2.07-10.7 3.72-14.7 1.62-4.02 3.49-7.03 4.97-8.94.77-.94 1.37-1.66 1.84-2.09.21-.2.38-.37.52-.51.12-.13.18-.18.19-.18zM86.56 314.1c.01-.01.08.09.2.29.14.25.32.55.54.93l-.15.05c-.71-3.36-2.66-13.66-4.86-25.85-1.33-7.51-2.53-14.3-3.41-19.3-.4-2.42-.73-4.4-.98-5.86-.1-.65-.18-1.18-.24-1.6-.05-.37-.07-.56-.05-.56s.07.18.15.54c.09.42.2.94.34 1.58.28 1.45.67 3.42 1.14 5.83.92 5 2.18 11.78 3.56 19.27 2.2 12.18 4 22.52 4.5 25.91l.08.51-.22-.46c-.19-.39-.34-.71-.47-.96-.1-.2-.14-.31-.13-.32zM84.15 312.05c-.13.06-2.65-5.01-5.62-11.32-2.98-6.31-5.28-11.48-5.15-11.54.13-.06 2.65 5 5.62 11.32 2.97 6.31 5.28 11.48 5.15 11.54z"/><path d="M83.12 422c6.27 3.15 20.8-2.41 26.08-9.34 5.28-6.93 6.81-15.94 7.96-24.58 1.73-13.02 2.96-26.11 3.7-39.22 10.76 7.87 24.24 11.95 37.55 11.34 8.48-.38 18.15-3.75 20.77-11.83 2.6-7.99-2.99-16.2-8.8-22.27a137.317 137.317 0 0 0-18.01-15.8c-4.24-3.1-8.87-6.04-14.09-6.61-5.63-.62-11.33 1.69-15.61 5.4-4.28 3.71-7.27 8.71-9.46 13.93-6.69 15.94-6.33 33.8-7.69 51.03-1.37 17.24-3.19 35.09-18.46 46.31" class="st8"/><path class="st7" d="M83.53 422.06c0-.01.14-.08.43-.21.32-.14.74-.32 1.26-.54 1.05-.59 2.6-1.45 4.28-2.94 3.41-2.9 7.62-7.84 11.55-14.4l-.03.08c.91-6.85 1.98-14.85 3.12-23.35 1.83-13.48 3.46-25.68 4.76-34.5.81-4.35 1.47-7.89 1.93-10.38.23-1.19.42-2.13.55-2.82.06-.3.11-.54.16-.73.04-.16.06-.25.07-.25.01 0 0 .09-.02.26-.03.2-.06.44-.11.74l-.45 2.83c-.42 2.5-1.03 6.04-1.77 10.4-1.19 8.87-2.81 21.05-4.61 34.52-1.16 8.5-2.25 16.49-3.18 23.34l-.01.05-.02.04c-4.01 6.59-8.28 11.51-11.78 14.38-1.72 1.47-3.32 2.31-4.39 2.86-.56.23-1.01.38-1.3.48-.28.11-.44.16-.44.14zM179.78 424.23c-.01 0-.04-.1-.09-.31-.06-.24-.13-.55-.22-.94-.17-.83-.51-2.04-.77-3.63-.59-3.16-1.2-7.8-1.38-13.56-.16-5.76.11-12.63 1.08-20.18.92-7.56 2.45-15.79 4.23-24.38 1.71-8.62 3.86-16.71 5.59-24.1 1.77-7.39 2.9-14.15 3.21-19.88.3-5.73-.06-10.38-.5-13.56-.17-1.6-.45-2.82-.56-3.66-.06-.4-.11-.71-.14-.95-.03-.22-.04-.33-.03-.33.01 0 .04.11.08.32.05.24.11.55.2.94.14.83.45 2.05.65 3.65.5 3.18.92 7.85.66 13.61s-1.36 12.57-3.11 19.97c-1.72 7.42-3.85 15.49-5.55 24.1-1.78 8.59-3.32 16.8-4.26 24.34-.99 7.53-1.3 14.38-1.19 20.11.13 5.74.68 10.36 1.21 13.53.23 1.59.53 2.8.67 3.64.07.39.13.71.17.95.05.21.06.32.05.32zM196.61 311.47c-.13-.08 1.6-2.84 3.52-6.35 1.93-3.51 3.31-6.44 3.45-6.38.06.03-.2.8-.72 2.01-.52 1.21-1.31 2.85-2.27 4.62-.97 1.76-1.93 3.31-2.67 4.4-.74 1.1-1.25 1.74-1.31 1.7z"/><path d="M199.84 307.32c5.21-6.1 10.86-11.82 16.9-17.12 1.65-1.45 3.44-2.92 5.61-3.28 2.64-.44 5.33.92 7.16 2.88s2.97 4.44 4.08 6.88c2.62-6.45-.1-13.7-2.8-20.12-.88-2.09-2.4-4.56-4.64-4.23-1.19.18-2.09 1.15-2.88 2.06a312.165 312.165 0 0 0-23.99 31.74M287.76 259.69l.37-3.17c-3.81.36-8.49.81-11.53 3.13-3.55 2.71-4.95 7.32-6.14 11.62-2.72 9.79 4.99 60.14 4.6 70.29 3.38-1.43 5.75-23.04 6.36-26.66 1.48-8.81-1.51-14.31-.61-16.77.91-2.45.88-5.13.96-7.75.32-11.69 1.48-19.91 5.99-30.69" class="st8"/><path class="st7" d="M238.05 98.09c-4.84-6-3.26-15.59 2.29-20.95 5.54-5.36 13.97-6.91 21.57-5.63 11.01 1.85 20.91 9.33 25.71 19.4 2.59 5.45 4.01 11.88 8.77 15.59 4.18 3.26 9.94 3.54 14.7 5.87 6.38 3.13 10.5 9.81 11.96 16.77 1.46 6.96.58 14.19-.89 21.15-1.35 6.38-3.15 13.28-.41 19.2 2.67 5.77 8.92 8.92 13.03 13.77 7.73 9.13 5.98 24.68-3.6 31.86-3.05 2.29-6.91 4.03-8.37 7.56-1.33 3.22-.2 6.87-.26 10.36-.18 8.97-10.06 16.34-18.71 13.96-4.37-1.2-8.39-4.43-12.87-3.81-4.46.61-7.43 4.73-11.05 7.4-7.12 5.25-18.04 4.44-24.31-1.8-2.63-2.61-4.74-6.17-8.32-7.12-3.57-.95-7.33 1.1-10.99.61-4.79-.65-7.94-5.41-9.36-10.04-1.42-4.63-1.8-9.64-4.19-13.85-3.13-5.51-9.1-8.62-14.11-12.5-11.06-8.55-18.16-22.03-18.95-35.99-.79-13.96 4.74-28.16 14.76-37.91"/><path class="st10" d="M170.98 218.05c-9.57 10.97-13.34 26.73-9.78 40.84 3.56 14.11 15.37 34.74 28.99 39.86 8.84-6.48 20.2-15.53 28.44-22.75 5.33-4.67 8.16-11.51 10.8-18.09 1.52-3.8 3.07-7.9 2.12-11.88-.7-2.93-2.69-5.37-4.78-7.54-13.41-13.94-33.84-20.76-52.94-17.66"/><path class="st10" d="M211.45 116.46c5.07-10.28 16.64-15.61 27.74-12.78l34.12 8.7c17.05 5.5 30.4 31.88 20.35 54.99-7.94 18.25-16.07 41.18-24.22 53.78-16.4 25.33-38.82 19.54-38.82 19.54l-12.1 26.99-49.47-46.39 42.4-104.83z"/><path class="st7" d="M269.05 174.51c.64-.24 2.32 2.95 6.02 4.73 3.68 1.83 7.31 1.24 7.5 1.89.1.3-.73.9-2.33 1.18-1.58.29-3.97.17-6.27-.96-2.3-1.13-3.83-2.92-4.52-4.33-.72-1.42-.71-2.41-.4-2.51zM230.42 156.92c.73-.13 2.38 3.42 6.36 5.88 3.95 2.51 8.01 2.54 8.17 3.24.09.32-.86.79-2.65.8-1.76.03-4.4-.52-6.87-2.07-2.47-1.55-4.05-3.64-4.73-5.2-.7-1.58-.63-2.6-.28-2.65zM246.79 194.64c.08-.22 2.59.41 6.6 1.6 1 .33 2 .54 2.45-.05.53-.59.59-1.81.62-3.13.13-2.72.26-5.58.4-8.57.67-12.16 1.61-21.98 2.1-21.95.49.03.34 9.91-.33 22.07-.19 2.99-.37 5.84-.54 8.56-.12 1.25-.04 2.77-1.17 3.99-.58.6-1.51.81-2.2.7-.7-.09-1.24-.31-1.73-.5-3.91-1.47-6.28-2.5-6.2-2.72z"/><path class="st11" d="M230.57 240.75s-19.76-7.41-33.08-26.37c0 0 .75 23.15 30.05 33.16l3.03-6.79z"/><path class="st7" d="M233.52 144.1c.63-1.01 4.54.36 9.38.79 4.83.53 8.93-.05 9.35 1.06.18.53-.7 1.42-2.46 2.15-1.75.73-4.4 1.22-7.3.94-2.9-.29-5.4-1.29-6.97-2.35-1.59-1.07-2.29-2.11-2-2.59zM277.11 155.1c1.26-.01 2.82 3.1 5.52 6.08 2.6 3.06 5.5 5.02 5.31 6.26-.12.57-1.17.82-2.82.33-1.64-.48-3.83-1.78-5.66-3.86-1.82-2.08-2.82-4.41-3.07-6.08-.26-1.7.13-2.69.72-2.73z"/><path class="st11" d="M238.12 205.09s2.32-1.21 1.25-5.67c-1.08-4.45-6.74-8.49-10.33-4.83 0 0-3.62.28-2.2 4.46 1.43 4.18 9.68 10.08 11.22 6.72"/><path class="st7" d="M236.77 208.5c-.66-.11.35-4.46-2.66-8.42-2.99-3.96-7.74-4.55-7.63-5.17 0-.29 1.23-.6 3.2-.2 1.93.38 4.59 1.65 6.43 4.07 1.83 2.42 2.22 5.17 1.95 6.99-.26 1.86-1 2.82-1.29 2.73zM182.28 102.25c-5.3 4.07-8.46 10.79-8.2 17.47.15 3.74 1.06 8.15-1.69 10.68-2.8 2.58-7.22 1.19-11.03 1.21-6.63.04-12.78 5.55-13.54 12.14-.27 2.36.04 4.92-1.17 6.97-1.25 2.13-3.77 3.09-5.88 4.37-5.26 3.19-8.61 9.28-8.5 15.43.12 6.15 3.71 12.11 9.09 15.09 2.45 1.36 5.31 2.2 7.1 4.36 2.05 2.47 2.13 5.97 3.13 9.01 1.92 5.84 7.82 10.14 13.97 10.18 6.15.04 12.1-4.16 14.11-9.98M237.58 92.68c-2 5.84-1.27 12.56 1.94 17.84 3.22 5.27 8.85 9 14.96 9.9 4.74.7 10.4.1 13.46 3.78 3.22 3.88 1.31 10.07 3.86 14.42 3.64 6.22 9.84 11.18 15.73 15.33 4.54 3.21-.65 12.14 1.33 17.34 1.98 5.2 10.13 17.06 15.69 17.27 1.22-4.65 8.14-25.07 8.26-29.88.12-4.81-.96-9.8-3.94-13.57-1.63-2.07-3.78-3.72-5.19-5.95-3.05-4.81-2.02-11.03-3.01-16.63-1.28-7.22-6.28-13.68-12.95-16.73-5.55-2.54-12.06-2.82-17.19-6.13-3.79-2.45-6.5-6.36-10.43-8.58-7.65-4.32-17.23-1.03-25.14 2.81"/><path class="st7" d="M200.75 150.81c-.79-.53-6.03 3.44-.86 6.61 9.07 5.55 16.86-13.19 16.52-19.42 4.62-1.95 9.3-3.93 13.36-7.02 4.07-3.09 10.15-13.21 11.24-18.32 3.47 1.41 20.23 1.53 18.78.53-3.31-2.29-10-7.2-10.89-11.05-1.93-8.35-7.86-15.61-15.69-17.8-7.83-2.18-17.27 1.39-21.59 8.98-9.33-3.08-20.39-.31-27.83 6.97-7.44 7.28-10.97 18.78-8.88 28.94.55 2.66 1.45 5.44.59 8.08-1.06 3.27-4.34 5.03-6.94 7.15-7.12 5.77-10.18 15.96-9.3 25.16.88 9.2 2.45 12.86 7 16.19 8.91 6.51-9.61 23.13 6.98 28.74"/><path class="st12" d="M324.58 214.33c-.04-.07.59-.41 1.56-1.33.96-.91 2.34-2.38 3.34-4.7 1.02-2.27 1.72-5.44.94-8.92-.78-3.48-3.41-6.81-6.93-9.64-3.42-2.94-7.91-5.56-11.09-10.19-3.22-4.65-3.75-10.97-2.73-16.97 1-6.09 3.54-12.01 5.17-18.31.82-3.15 1.33-6.43 1.22-9.75-.11-3.3-.84-6.68-2.61-9.54-1.76-2.86-4.47-5-7.44-6.45-2.98-1.46-6.2-2.31-9.4-2.86-3.21-.54-6.49-.84-9.6-1.84-3.1-.93-6.06-2.97-7.47-5.88-1.45-2.86-1.77-5.89-2.41-8.64-.56-2.78-1.61-5.28-3.23-7.35-3.18-4.19-7.89-6.51-12.25-7.33-4.43-.8-8.57.06-11.86 1.43-3.3 1.41-5.82 3.29-7.69 5-3.7 3.5-4.93 6.15-5.08 6.04-.02-.01.05-.17.22-.48.17-.3.39-.77.77-1.33.71-1.15 1.9-2.78 3.73-4.6 1.85-1.8 4.37-3.79 7.75-5.3 3.36-1.47 7.66-2.45 12.31-1.67 4.57.8 9.53 3.16 12.95 7.58 1.74 2.16 2.91 4.92 3.5 7.76.66 2.81 1.02 5.77 2.35 8.34 1.28 2.59 3.84 4.37 6.78 5.25 2.94.94 6.15 1.23 9.43 1.77 3.28.56 6.62 1.43 9.76 2.96 3.13 1.51 6.07 3.81 7.98 6.93 1.92 3.11 2.69 6.72 2.8 10.19.11 3.48-.44 6.9-1.28 10.11-1.69 6.44-4.22 12.3-5.22 18.19-1.02 5.82-.52 11.81 2.44 16.17 2.93 4.38 7.34 7.06 10.78 10.08 3.54 2.92 6.29 6.46 7.05 10.19.76 3.69-.06 6.97-1.19 9.29a13.45 13.45 0 0 1-3.63 4.69c-1.04.85-1.72 1.11-1.72 1.11z"/><path class="st12" d="M293.91 153.95c.12.05-.49 1.43-1.1 4.05-.58 2.61-1.13 6.53-.35 11.26.38 2.35 1.08 4.9 2.27 7.43 1.14 2.57 2.9 4.96 4.9 7.5.97 1.29 1.95 2.68 2.67 4.29.74 1.6 1.1 3.47.94 5.31-.29 3.72-2.12 7.02-3.48 10.38-1.43 3.33-2.23 6.9-.92 9.99 1.22 3.09 3.69 5.44 5.94 7.69 2.28 2.24 4.48 4.5 5.87 7.13.66 1.32 1.12 2.73 1.26 4.11.09 1.38.04 2.72-.3 3.94-1.24 4.96-4.7 7.79-7.15 8.92-1.28.55-2.34.78-3.06.84-.72.05-1.1.05-1.1 0-.03-.16 1.55-.1 3.93-1.3 2.28-1.21 5.44-4.02 6.48-8.67.52-2.28.3-4.92-1.02-7.33-1.32-2.42-3.45-4.56-5.76-6.78-2.26-2.23-4.89-4.63-6.29-8.09-.69-1.71-.92-3.66-.67-5.54.24-1.88.87-3.68 1.57-5.41 1.41-3.45 3.15-6.66 3.42-9.98.35-3.34-1.41-6.27-3.3-8.78-1.93-2.51-3.79-5.09-4.92-7.77-1.19-2.66-1.86-5.3-2.19-7.74-.68-4.9.03-8.91.78-11.53.38-1.31.76-2.31 1.07-2.96.29-.65.47-.98.51-.96zM143.87 185.34c-.02.02-.21-.12-.57-.42-.37-.29-.86-.78-1.45-1.47-1.15-1.38-2.66-3.72-3.32-7.1-.67-3.3-.41-7.88 2.45-11.88 2.75-3.92 7.96-7.18 14.07-6.89l-.55.73c-1.12-3.14-1.96-6.66-1.68-10.4.22-3.7 1.99-7.66 5.35-10.04 1.63-1.21 3.7-1.99 5.85-2 2.18.01 4.19.85 6.04 1.71 1.86.86 3.68 1.83 5.6 2.16 1.9.34 3.87-.2 5.29-1.57 2.13-1.99 3.09-4.96 3.28-7.86.23-2.94-.05-5.94.26-8.93.61-6 3.49-11.37 7.37-15.16 3.88-3.86 8.87-5.94 13.54-6.57 4.7-.63 9.13.1 12.71 1.6l-.57.22c1.58-3.26 4.34-5.28 6.88-6.32 2.57-1.07 5.02-1.22 6.93-1.03 1.93.2 3.32.79 4.21 1.22.87.5 1.29.81 1.27.84-.06.17-1.77-1.28-5.52-1.58-1.84-.11-4.19.11-6.62 1.19-2.4 1.05-4.95 3.01-6.36 6.05l-.18.38-.39-.16c-3.47-1.38-7.74-2.02-12.23-1.36-4.47.67-9.18 2.69-12.85 6.38-3.67 3.63-6.38 8.76-6.93 14.43-.29 2.83 0 5.81-.23 8.91-.2 3.07-1.21 6.41-3.69 8.73-1.65 1.63-4.18 2.32-6.39 1.89-2.22-.39-4.1-1.43-5.93-2.27-1.82-.85-3.66-1.6-5.5-1.61-1.84.01-3.64.66-5.11 1.74-3.03 2.14-4.66 5.66-4.9 9.12-.29 3.48.48 6.88 1.54 9.94l.27.78-.82-.05c-5.64-.34-10.62 2.65-13.27 6.31-2.76 3.71-3.11 8.04-2.55 11.24.54 3.28 1.91 5.59 2.96 7.01 1.05 1.41 1.79 2.03 1.74 2.09z"/><path class="st12" d="M237.17 100.21c.07.23-1.95-.1-4.51 1.75-2.56 1.81-4.77 6.18-5.42 11.74l-.06.48-.47-.04c-4.72-.39-10.69 1.45-14.73 6.15-.97 1.17-1.83 2.54-2.37 3.99-.51 1.49-.77 3.14-1.02 4.84-.26 1.7-.49 3.46-1.03 5.24-.46 1.76-1.6 3.6-3.15 4.72-3.32 2.59-7.39 3.04-10.96 3.61-3.63.49-7.04 1.09-9.99 2.59-5.94 2.88-9.86 7.88-11.57 12.53-1.78 4.69-1.71 8.9-1.36 11.67.36 2.8.95 4.28.83 4.32-.04.02-.21-.34-.48-1.05-.25-.71-.6-1.77-.85-3.19-.51-2.8-.74-7.14 1-12.07 1.68-4.88 5.69-10.2 11.91-13.29 3.08-1.6 6.73-2.27 10.33-2.77 3.56-.57 7.43-1.07 10.33-3.36 2.86-2.01 3.16-5.8 3.72-9.13.26-1.7.53-3.42 1.11-5.07.63-1.66 1.55-3.08 2.62-4.35 4.4-5.02 10.74-6.84 15.74-6.33l-.53.44c.8-5.78 3.23-10.26 6.07-12.09 1.38-.92 2.67-1.23 3.52-1.31.87-.07 1.32-.07 1.32-.02z"/><path class="st10" d="M202.68 153.65c2.85-5.59-.98-12.61-7.25-12.6-3.44.01-7.15 1.87-10.23 7.78-8.21 15.74 9.29 20.74 9.55 20.3.16-.27 4.59-8.93 7.93-15.48z"/><path class="st11" d="M193.05 160.66c-.04-.09-.37.05-.95.02-.56-.03-1.41-.29-2.07-1.03-1.34-1.48-1.37-4.85.04-7.73.71-1.45 1.72-2.66 2.81-3.53 1.08-.9 2.25-1.32 3.16-1.03a1.59 1.59 0 0 1 1.23 1.6c-.02.55-.28.81-.21.88.02.06.48-.09.69-.8.1-.35.11-.81-.1-1.31-.22-.5-.69-.95-1.31-1.19-1.26-.55-2.93 0-4.14.95-1.27.92-2.44 2.26-3.24 3.89-1.55 3.22-1.48 7.04.46 8.88.96.87 2.05 1.01 2.72.89.68-.13.95-.44.91-.49z"/><path class="st7" d="M186.99 372.27c-1.39-2.58-4.97-4.17-4.97-4.17l-2.98-7.35s1.19-2.58 0-5.76c-1.19-3.18-9.93-21.66-9.74-22.25l-2.26-.13s8.06 19.55 8.85 20.55c.79.99 1.95 6.81-.03 7.61-1.99.79-6.21-1.36-8-3.15-1.79-1.79-7.48-15.24-8.48-18.02-.99-2.78.78-6.65.78-6.65l1.59-3.77h-2.19s-1.39 3.97-2.19 7.75c-.79 3.77 8.15 20.27 9.54 22.05 1.39 1.79 6.16 3.18 8.74 4.97 2.58 1.79 2.19 7.35 2.19 7.35s-2.19 2.98-2.38 6.56 7.75 20.46 13.11 24.04c5.36 3.58 11.72.99 12.32 1.19.6.2 1.99-2.78 1.99-2.78s-14.49-25.46-15.89-28.04zm7.33 29.53c-2.86-.23-5.81-2.19-7.38-4.27-.65-.86-7.61-12.97-8.5-15.22-1.57-3.93-.48-6.11.09-8.42.83-3.34 6-1.38 6-1.38s15.22 26.3 14.87 27.1c-.35.8-2.22 2.42-5.08 2.19z"/><path class="st7" d="M202.89 400.28s44.31-16.86 46.38-18.77c2.07-1.91 9.55-12.89 9.55-12.89s3.66.64 3.18 1.59c-.48.95-7.48 11.94-14.96 15.12-7.48 3.18-46.14 17.74-46.14 17.74l1.99-2.79z"/><path class="st6" d="M62.67 261.33 44.42 366.59s-6.72 20.48-5.76 24.96 4.35 23.81 14.59 29.89c10.24 6.08 30.52 2.11 34.68-2.05s12.36-11.78 13.32-15.3c.96-3.52 7.69-57.04 7.69-57.04l2.67-15.01s-9.92 3.2-16-.96S81.53 309 81.53 309l-8.96 13.76-9.9-61.43z"/><path class="st7" d="M81.53 308.99c.01.01-.11.21-.35.59-.28.42-.64.97-1.08 1.64-.94 1.43-2.3 3.49-3.93 6.08-3.28 5.15-7.67 12.37-12.46 20.37-4.79 8.01-9.11 15.27-12.32 20.47-1.6 2.6-2.93 4.7-3.86 6.13-.45.68-.81 1.22-1.09 1.64-.25.37-.39.56-.41.55-.02-.01.1-.22.32-.61.26-.43.59-.99 1.01-1.69.91-1.52 2.17-3.63 3.71-6.21 3.15-5.3 7.44-12.54 12.19-20.55 4.79-8 9.23-15.2 12.59-20.31 1.67-2.56 3.08-4.6 4.07-5.99.48-.66.87-1.18 1.16-1.59.29-.35.44-.53.45-.52z"/><path class="st7" d="M109.32 344.94c.01.01-.12.16-.38.44-.27.27-.63.69-1.17 1.17-1.06.97-2.7 2.3-5.05 3.41-1.18.53-2.52 1.03-4.03 1.27-1.5.27-3.15.35-4.86.12-1.7-.22-3.46-.68-5.18-1.4-1.71-.73-3.41-1.66-5.03-2.79-1.59-1.17-3-2.5-4.23-3.9-1.2-1.43-2.22-2.91-3.05-4.4-1.66-3-2.56-5.98-3.03-8.51-.46-2.54-.48-4.64-.41-6.07.03-.72.12-1.27.16-1.65.05-.38.08-.57.1-.57.05 0-.02.8-.05 2.22-.01 1.43.07 3.5.57 6 .51 2.49 1.43 5.41 3.09 8.34.83 1.46 1.84 2.91 3.02 4.31 1.21 1.37 2.59 2.67 4.15 3.81 1.58 1.1 3.25 2.02 4.92 2.75 1.68.71 3.39 1.17 5.04 1.39 1.65.24 3.26.18 4.72-.07 1.47-.22 2.79-.69 3.95-1.18 2.31-1.05 3.98-2.31 5.06-3.23 1.09-.94 1.65-1.5 1.69-1.46z"/><path class="st10" d="m81.53 308.99 13.65-8.78s36.41-14.79 40.1-15.64c3.7-.85 7.96-2.56 9.95 0 1.99 2.56 22.75 17.63 22.75 17.63s12.23 23.04 12.23 26.17 3.41 7.13 0 8.26l-3.41 1.13s-1.14 5.58-5.4 6.2c-4.27.62-5.69 0-5.69 0s-.28 5.58-3.7 5.23c-3.41-.34-9.1-5.23-9.1-5.23s-2.56 2.9-4.55 2.9c-1.99 0-8.25-4.27-8.25-4.27l-12.1-10.52-10.66-3.7-5.76 3.66s-12.31 1.05-14.15.04c-1.83-1-15.91-23.08-15.91-23.08z"/><path class="st11" d="M151.44 344.94c-.03.01-.26-.57-.63-1.61-.18-.53-.41-1.17-.72-1.89-.3-.73-.61-1.57-1.05-2.46-.41-.9-.87-1.89-1.44-2.91-.52-1.04-1.18-2.1-1.85-3.22-1.41-2.21-3.09-4.55-5.08-6.83a58.903 58.903 0 0 0-6.11-5.92c-1.03-.81-1.99-1.6-2.96-2.26-.94-.7-1.85-1.28-2.69-1.8-.82-.55-1.62-.96-2.3-1.36-.68-.4-1.28-.71-1.78-.96-.99-.5-1.53-.8-1.52-.83.01-.03.58.2 1.61.65.51.22 1.14.5 1.83.88.7.37 1.51.77 2.36 1.3.86.51 1.79 1.08 2.75 1.76.99.64 1.97 1.43 3.01 2.24 2.04 1.68 4.17 3.67 6.2 5.95 2 2.31 3.7 4.68 5.09 6.92.67 1.14 1.32 2.22 1.83 3.28.55 1.04 1 2.04 1.39 2.96.42.91.71 1.77.99 2.51.29.74.49 1.39.64 1.93.3 1.06.46 1.66.43 1.67zM165.7 344.59c-.02.01-.12-.14-.31-.44-.18-.3-.47-.73-.78-1.32-.63-1.17-1.43-2.93-2.22-5.18-.8-2.24-1.56-4.97-2.46-7.97-.93-2.98-2-6.27-3.84-9.35-1.8-3.11-4.33-5.5-6.84-7.33-2.52-1.84-4.95-3.32-6.79-4.83-1.87-1.49-3.16-2.97-3.86-4.11-.34-.57-.6-1.03-.72-1.36-.14-.32-.21-.49-.19-.5.05-.03.34.66 1.08 1.74.74 1.09 2.05 2.49 3.92 3.93 1.85 1.46 4.29 2.9 6.85 4.73 2.55 1.83 5.16 4.28 7.01 7.45 1.88 3.15 2.95 6.48 3.86 9.48.88 3.01 1.6 5.74 2.35 7.98.74 2.25 1.48 4.01 2.05 5.2.57 1.21.93 1.85.89 1.88zM175.96 337.99c-.02 0-.07-.17-.15-.5-.09-.39-.2-.86-.34-1.44-.13-.63-.31-1.39-.57-2.26-.25-.87-.49-1.88-.87-2.96-.35-1.09-.74-2.28-1.25-3.52-.46-1.27-1.07-2.57-1.68-3.95-1.31-2.72-2.91-5.64-4.86-8.53-1.98-2.88-4.1-5.44-6.15-7.66-1.06-1.08-2.04-2.13-3.05-3.02-.97-.93-1.93-1.73-2.82-2.46-.86-.75-1.71-1.35-2.43-1.9-.72-.56-1.36-1.01-1.9-1.36-.49-.34-.89-.62-1.21-.85-.27-.2-.41-.31-.4-.33.01-.02.17.07.46.24.34.21.76.46 1.27.76.55.33 1.22.75 1.95 1.29.74.53 1.61 1.11 2.49 1.85.9.71 1.89 1.5 2.88 2.43 1.03.88 2.03 1.93 3.11 3a64.71 64.71 0 0 1 6.23 7.7 66.55 66.55 0 0 1 4.87 8.62c.61 1.4 1.21 2.71 1.65 4 .5 1.26.87 2.47 1.2 3.57.36 1.09.58 2.11.8 3 .23.88.38 1.66.48 2.29.1.59.18 1.07.25 1.46.04.35.06.53.04.53zM122.38 299.17c.01.09-.71.19-1.76.65-1.04.44-2.42 1.31-3.46 2.69s-1.5 2.94-1.65 4.06c-.15 1.13-.06 1.86-.15 1.87-.06.01-.28-.7-.22-1.9.05-1.18.48-2.86 1.6-4.34s2.62-2.34 3.74-2.71c1.14-.4 1.9-.38 1.9-.32zM132.52 289.53c.08.13-1.68 1.25-3.42 3.11-1.76 1.84-2.78 3.66-2.91 3.59-.12-.05.72-2.04 2.54-3.95 1.79-1.92 3.74-2.87 3.79-2.75z"/><path class="st10" d="M275.23 170.78c-1.73.71-2.08 2.78-2.05 4.65.03 2.34.62 2.72 2.54 6.65 3.12 6.41 6.86 18.57 6.86 18.57s-3.06 30.7-1.05 37.91c1.82 6.51 7.97 8.17 7.97 8.17l-2.8 23.71h33.49s-1.19-22.95-1.91-29.95c-.76-7.4-.25-52.15-.25-52.15l-3.29-23.9-7.76-13.41s-4.04 2.43-2.29 7.34 2.9 14.34 2.9 14.34l-19.39-29.18s-3.81.91-4.04 7.96c0 0-5.64 3.67-2.01 9.63 4.05 6.65 8.26 26.63 6.78 26.63l-12.03-17.67-1.67.7z"/><path class="st11" d="M286.7 270.44s.04-.53.15-1.57c.12-1.05.29-2.59.51-4.59.46-4.04 1.14-9.97 2.01-17.56l.09.14c-1.5-.47-2.95-1.27-4.26-2.37a11.513 11.513 0 0 1-3.2-4.22c-.8-1.69-1.01-3.64-1.17-5.59-.12-1.97-.16-4-.14-6.1.09-8.39.74-17.76 1.69-27.94l.01.08c-1.57-4.94-3.3-10.15-5.48-15.43-.55-1.32-1.14-2.63-1.8-3.93-.62-1.32-1.43-2.54-1.91-4.03-.21-.75-.25-1.53-.24-2.29.02-.76.09-1.54.33-2.3.23-.75.68-1.5 1.4-1.94.36-.23.73-.35 1.07-.5l1.06-.44.18-.07.11.16c3.99 5.85 8.21 12.05 12.55 18.42l-.45.09c.19-1.48.11-3.07-.06-4.63-.19-1.56-.43-3.13-.8-4.68-.69-3.12-1.67-6.21-2.8-9.29-1.1-3.09-2.49-6.09-3.84-9.18-.64-1.57-.98-3.37-.54-5.09.4-1.72 1.43-3.25 2.86-4.32l-.11.19c.19-1.48.48-3.02 1.07-4.51.29-.74.68-1.47 1.17-2.13.51-.65 1.1-1.26 2-1.55l.16-.05.11.16c.07.11.15.22.22.34 6.56 9.88 12.97 19.53 19.16 28.85l-.47.17c-.51-3.89-1.13-7.73-2.05-11.43-.23-.92-.49-1.84-.8-2.73-.3-.92-.53-1.89-.48-2.88.07-1.99 1.22-3.81 2.83-4.89l.21-.14.13.23c2.65 4.59 5.23 9.06 7.75 13.42l.02.04.01.05c1.14 8.36 2.24 16.33 3.27 23.9v.04c-.14 12.38-.21 23.7-.2 33.73.01 5.01.04 9.7.15 14.02.06 2.17.18 4.22.38 6.2.17 1.98.29 3.87.41 5.66.46 7.16.75 12.78.94 16.61.09 1.91.16 3.37.21 4.37.04.99.05 1.5.05 1.5s-.05-.51-.11-1.5c-.06-1-.15-2.46-.27-4.37-.24-3.83-.56-9.45-1.06-16.6-.13-1.79-.26-3.67-.44-5.65-.21-1.97-.34-4.06-.41-6.22-.13-4.33-.18-9.02-.2-14.03-.05-10.03 0-21.35.11-33.73v.03c-1.05-7.56-2.15-15.54-3.31-23.89l.03.09c-2.52-4.36-5.11-8.83-7.76-13.41l.34.09c-1.46.98-2.54 2.68-2.59 4.49-.04.91.16 1.81.46 2.69.31.91.58 1.83.81 2.77.93 3.74 1.55 7.58 2.07 11.5l.14 1.09-.61-.92c-6.19-9.32-12.61-18.97-19.17-28.84-.08-.12-.15-.23-.22-.34l.27.11c-.64.2-1.25.77-1.7 1.36-.46.61-.82 1.29-1.1 2-.57 1.42-.85 2.93-1.04 4.38l-.01.11-.1.07c-1.29.96-2.29 2.42-2.65 4-.41 1.59-.1 3.27.52 4.78 1.33 3.05 2.74 6.09 3.85 9.2 1.14 3.09 2.12 6.21 2.82 9.36.37 1.57.62 3.16.81 4.74.17 1.59.26 3.16.05 4.78l-.08.63-.37-.54c-4.34-6.37-8.55-12.57-12.53-18.43l.29.09c-.68.3-1.47.56-2.07.9-.6.36-.99 1-1.21 1.68-.22.69-.3 1.43-.31 2.16-.01.74.02 1.47.22 2.15.43 1.36 1.25 2.63 1.88 3.95.66 1.31 1.25 2.64 1.8 3.96 2.18 5.31 3.9 10.52 5.47 15.48l.01.04v.04c-.97 10.17-1.64 19.54-1.76 27.91-.03 2.09.01 4.12.12 6.07.16 1.95.35 3.84 1.13 5.49 1.45 3.34 4.4 5.52 7.26 6.46l.11.04-.01.1c-.92 7.59-1.64 13.51-2.13 17.55-.25 2-.44 3.54-.57 4.58-.16 1.02-.25 1.55-.25 1.55z"/><path class="st11" d="M301.5 190.33c-.04 0-.16-.59-.36-1.65-.18-1.07-.51-2.61-.94-4.51-.9-3.78-2.43-8.94-4.95-14.31-2.49-5.38-5.37-9.93-7.54-13.15-1.08-1.61-1.98-2.91-2.61-3.79-.62-.89-.96-1.4-.93-1.42.03-.02.42.44 1.09 1.3.68.85 1.63 2.11 2.75 3.71 2.25 3.18 5.2 7.73 7.71 13.14a68.263 68.263 0 0 1 4.84 14.45c.39 1.91.66 3.47.78 4.55.14 1.08.2 1.68.16 1.68zM311.9 182.88c-.13.06-1.23-2.27-2.45-5.2-1.22-2.93-2.1-5.34-1.97-5.4.13-.06 1.23 2.27 2.45 5.2 1.22 2.93 2.1 5.34 1.97 5.4z"/><path class="st6" d="M284.02 260.62c-5.87 51.87-13.53 107.09-22.33 164.46h68.17c12.82-28.38 4.98-53.14 1.56-88.43l-11.24-80.13-36.16 4.1z"/><path class="st7" d="M261.7 425.08c-.01 0 0-.12.02-.34l.12-.98c.12-.9.3-2.16.52-3.78.48-3.31 1.17-8.04 2.01-13.87 1.73-11.74 4.1-27.9 6.72-45.76 2.57-17.88 4.75-34.09 6.18-45.84.73-5.87 1.28-10.63 1.65-13.92.19-1.62.34-2.89.44-3.79.05-.41.1-.73.13-.98.03-.22.05-.33.06-.33.01 0 .01.12-.01.34-.02.25-.04.58-.08.99-.08.9-.2 2.17-.35 3.8-.31 3.3-.81 8.06-1.49 13.94-1.34 11.76-3.46 27.98-6.03 45.87-2.57 17.88-5.06 34.04-6.88 45.74-.92 5.82-1.66 10.55-2.18 13.85-.26 1.61-.47 2.87-.62 3.76-.07.41-.13.73-.17.98-.01.21-.03.32-.04.32z"/></g><g id="Device"><path class="st13" d="M409.4 424.63H215.01l25.08-136.43c.89-4.84 5.11-8.35 10.03-8.35h174.67c6.4 0 11.22 5.83 10.01 12.11l-25.4 132.67z"/><path class="st13" d="M215.01 424.63h-73.73l.3-.22a39.947 39.947 0 0 1 22.74-7.96l52.73-1.55-2.04 9.73z"/><path class="st7" d="M261.7 280.03c-.01.05-.54-.1-1.57-.11-1.02-.01-2.57.2-4.32 1.07-1.74.86-3.68 2.39-5.18 4.71-1.5 2.33-2.52 5.38-3.17 8.82-.63 3.45-1.19 7.28-1.88 11.37-.7 4.09-1.45 8.45-2.31 13.04-1.69 9.17-3.7 19.22-5.88 29.76-4.39 21.07-8.45 40.12-11.11 53.97a1300.3 1300.3 0 0 0-3.07 16.41c-.35 1.9-.62 3.39-.81 4.47-.09.48-.17.86-.23 1.16-.06.26-.09.39-.1.39-.01 0 0-.14.03-.4.04-.3.09-.69.16-1.17.16-1.08.39-2.58.68-4.49.61-3.9 1.57-9.52 2.84-16.46 2.53-13.88 6.51-32.95 10.9-54.02 2.18-10.53 4.21-20.58 5.94-29.73.88-4.58 1.65-8.94 2.38-13.02.71-4.08 1.3-7.89 1.97-11.37.69-3.47 1.76-6.57 3.34-8.94 1.58-2.37 3.6-3.91 5.4-4.75 1.81-.85 3.41-1.02 4.44-.96 1.03.05 1.55.25 1.55.25z"/><path class="st3" d="M343.8 349.17c0 5.19-4.21 9.4-9.4 9.4s-9.4-4.21-9.4-9.4 4.21-9.4 9.4-9.4 9.4 4.21 9.4 9.4z"/></g><path class="st7" d="M457.24 424.79c0 .14-102.36.26-228.61.26-126.29 0-228.63-.12-228.63-.26s102.34-.26 228.63-.26c126.24 0 228.61.11 228.61.26z" id="Desk"/><g id="Lighting_bolts"><path class="st14" d="m186.2 66.59-2.67-25.11-12.81 2.89-11.04-19.5 6.88 26.36 12.99-2.98zM180.98 71.33l-11.9-12.25-5.61 6.89-14.01-5.77 14.66 11.16 5.67-7.01zM309.62 82.16l10.82-19.68 9.51 6.77 15.75-12.2-14.69 19.26-9.64-6.9zM329.47 93.39l11.19-4.77 1.79 6.06 10.79.07-12.7 3.29-1.8-6.16z"/></g><path class="st7" d="M251.85 16.93s.45-.29 1.35-.83c.91-.52 2.27-1.29 4.17-2.09 3.75-1.6 9.73-3.56 17.69-3.26.99.05 2.01.11 3.05.25 1.04.11 2.11.28 3.18.58 1.07.3 2.14.69 3.15 1.28 1 .6 1.96 1.39 2.57 2.47.64 1.06.84 2.39.62 3.66-.25 1.28-.96 2.44-1.85 3.43-1.83 1.96-4.33 3.33-7.03 4.25a43.963 43.963 0 0 1-18.07 2.59c-6.51-.43-13.39-2.29-19.7-6.04l-.14-.08.09-.14c2.41-3.93 6.07-7.22 10.38-9.54 4.32-2.32 9.28-3.76 14.46-4.14 5.19-.39 10.55.13 15.9 1.29 2.67.57 5.35 1.28 8.03 2.11 2.67.83 5.39 1.69 7.95 3.05 2.55 1.33 4.93 3.26 6.41 5.86.73 1.3 1.26 2.74 1.39 4.25.16 1.51-.13 3.06-.74 4.46-1.25 2.84-3.81 4.85-6.5 6.28-2.72 1.45-5.73 2.36-8.76 3.07-12.13 2.97-25.37 3.46-38.54.98-.83-.14-1.64-.33-2.46-.51-.82-.17-1.64-.36-2.46-.57-1.64-.39-3.29-.83-4.87-1.49-1.58-.64-3.12-1.47-4.45-2.61-1.32-1.13-2.4-2.67-2.69-4.45-.33-1.76.14-3.63 1.12-5.11.96-1.5 2.3-2.7 3.73-3.73 1.44-1.03 3.02-1.84 4.61-2.58.79-.4 1.6-.74 2.42-1.09.81-.36 1.63-.69 2.47-.99a63.053 63.053 0 0 1 21.1-3.99c3.64-.06 7.31.19 10.94.76.91.14 1.82.29 2.72.49.9.19 1.81.37 2.7.62 1.8.44 3.6.96 5.31 1.72 1.72.74 3.38 1.69 4.8 2.95 1.42 1.25 2.58 2.9 3.03 4.79l.15.71.06.72c.07.48-.01.97-.03 1.45-.15.95-.39 1.91-.84 2.77-.83 1.76-2.17 3.2-3.62 4.44-1.46 1.24-3.1 2.27-4.8 3.15-.85.45-1.73.83-2.61 1.2-.87.39-1.76.74-2.66 1.09a78.61 78.61 0 0 1-11.03 3.39 80.7 80.7 0 0 1-23.24 1.92c-3.92-.25-7.91-1.07-11.43-3.01-1.74-.98-3.36-2.28-4.47-4a9.589 9.589 0 0 1-1.44-5.84c.14-1.68.75-3.28 1.63-4.68.88-1.41 1.99-2.65 3.21-3.73 2.46-2.17 5.35-3.78 8.33-5.01a58.853 58.853 0 0 1 18.65-4.5c3.18-.23 6.37-.21 9.53.07 1.58.14 3.15.34 4.7.61 1.55.25 3.12.58 4.61 1.11 1.49.53 2.95 1.18 4.24 2.12 1.29.92 2.45 2.12 3.06 3.63.65 1.48.67 3.21.15 4.72-.51 1.52-1.48 2.84-2.65 3.89-2.4 2.12-5.5 3.01-8.45 3.72-2.97.71-5.93 1.41-8.89 2.06-5.91 1.31-11.84 2.41-17.78 2.88-5.93.5-11.88.28-17.62-.85-5.72-1.14-11.22-3.27-15.94-6.5l-.26-.18.23-.21c8.22-7.24 18.47-11.57 28.77-13.05 10.32-1.49 20.77-.15 29.83 3.85 1.11.56 2.18 1.2 3.12 2.03.94.81 1.75 1.83 2.16 3.03.4 1.21.33 2.54-.18 3.7-.52 1.15-1.39 2.07-2.36 2.81-1.95 1.48-4.25 2.27-6.48 3.02-2.25.72-4.54 1.26-6.83 1.62-4.6.7-9.22.71-13.66.01-1.11-.21-2.25-.52-3.16-1.28-.92-.74-1.37-2-1.15-3.15.25-1.15.96-2.09 1.75-2.86.8-.78 1.73-1.39 2.7-1.89 7.92-3.57 16.45-4.68 24.37-3.82 1.98.22 3.94.59 5.77 1.33 1.82.72 3.5 1.86 4.64 3.43 1.14 1.55 1.81 3.48 1.59 5.38-.21 1.92-1.42 3.53-2.8 4.7-1.39 1.19-2.96 2.05-4.49 2.93-1.56.83-3.12 1.59-4.72 2.21a45.093 45.093 0 0 1-9.6 2.65c-6.38 1.03-12.54.61-17.99-.78l-.18-.05.11-.15c2.65-3.64 6.3-6.11 10.01-7.47 3.72-1.36 7.54-1.68 10.92-1.07 1.69.27 3.3.82 4.62 1.73.65.46 1.22 1.02 1.63 1.67.4.65.67 1.38.74 2.11.16 1.47-.38 2.85-1.1 3.94-.72 1.11-1.65 1.96-2.58 2.67-1.89 1.42-3.9 2.02-5.53 2.69-1.65.63-3.02 1.21-4.05 1.8-1.03.59-1.74 1.16-2.17 1.57-.23.2-.37.38-.48.48l-.16.16s.19-.24.62-.67c.43-.43 1.13-1 2.16-1.61 1.03-.6 2.4-1.2 4.05-1.84 1.63-.67 3.63-1.29 5.49-2.7.92-.7 1.83-1.56 2.53-2.64.71-1.07 1.22-2.41 1.06-3.83-.07-.71-.33-1.4-.72-2.03-.4-.62-.95-1.16-1.59-1.61-1.29-.88-2.87-1.42-4.54-1.69-3.35-.59-7.13-.26-10.81 1.09-3.67 1.36-7.27 3.81-9.88 7.41l-.07-.2a44.059 44.059 0 0 0 17.88.74 45.87 45.87 0 0 0 9.53-2.65c1.59-.62 3.14-1.38 4.68-2.2 1.51-.87 3.08-1.73 4.43-2.9 1.35-1.14 2.48-2.67 2.68-4.48.2-1.8-.43-3.65-1.54-5.13-1.09-1.51-2.72-2.6-4.49-3.31-1.78-.72-3.71-1.08-5.67-1.3-7.84-.85-16.33.28-24.15 3.81-.94.49-1.84 1.08-2.6 1.82-.76.73-1.42 1.63-1.63 2.65-.19 1.01.2 2.11 1.02 2.77.81.68 1.89.99 2.97 1.18 4.39.69 8.98.68 13.53-.02 2.27-.36 4.54-.9 6.77-1.61 2.21-.75 4.47-1.53 6.35-2.96.93-.71 1.75-1.58 2.22-2.64.46-1.06.52-2.28.16-3.38-.38-1.1-1.13-2.06-2.04-2.84-.9-.79-1.94-1.42-3.03-1.97-8.95-3.94-19.35-5.28-29.57-3.79-10.21 1.48-20.37 5.78-28.51 12.95V32c4.66 3.19 10.1 5.29 15.77 6.42 5.68 1.12 11.58 1.33 17.48.83 5.9-.47 11.8-1.57 17.71-2.87 2.95-.65 5.91-1.35 8.88-2.06 2.93-.71 5.95-1.6 8.23-3.61 1.12-1 2.03-2.26 2.51-3.68.48-1.41.46-2.99-.14-4.36-.56-1.39-1.65-2.52-2.88-3.41-1.24-.9-2.66-1.54-4.11-2.05-1.46-.52-2.98-.84-4.53-1.09-1.54-.27-3.1-.47-4.66-.6-3.13-.28-6.29-.3-9.44-.06-6.31.46-12.59 1.95-18.49 4.46-2.96 1.22-5.79 2.8-8.19 4.92-2.36 2.1-4.4 4.87-4.67 8.07-.15 1.92.33 3.89 1.36 5.51 1.04 1.63 2.6 2.88 4.28 3.83 3.42 1.88 7.34 2.7 11.21 2.94 7.8.49 15.6-.17 23.09-1.9 3.75-.85 7.41-1.98 10.96-3.37.89-.34 1.77-.7 2.64-1.08.88-.37 1.74-.75 2.58-1.19 1.67-.86 3.28-1.87 4.7-3.08 1.41-1.21 2.7-2.61 3.49-4.27.43-.81.65-1.71.79-2.61.02-.45.09-.91.03-1.36l-.05-.68-.14-.67c-.41-1.77-1.5-3.33-2.87-4.53-1.37-1.21-2.98-2.14-4.67-2.86-1.68-.74-3.45-1.26-5.23-1.69-.88-.25-1.78-.43-2.68-.61-.89-.2-1.8-.36-2.7-.49-3.61-.57-7.25-.82-10.86-.76-7.23.11-14.34 1.48-20.93 3.95-.83.29-1.65.62-2.45.98-.81.34-1.62.68-2.4 1.08-1.59.74-3.14 1.54-4.54 2.54s-2.69 2.17-3.61 3.59c-.93 1.41-1.36 3.13-1.05 4.77.27 1.65 1.27 3.09 2.53 4.17 1.27 1.09 2.77 1.9 4.32 2.53 1.55.65 3.17 1.08 4.81 1.47.81.21 1.63.41 2.45.57.82.17 1.63.37 2.45.5 13.1 2.47 26.28 2 38.35-.95 3.03-.71 5.98-1.6 8.66-3.02 2.65-1.4 5.12-3.37 6.31-6.07.57-1.34.85-2.81.71-4.25-.13-1.44-.63-2.83-1.34-4.08-1.43-2.52-3.73-4.4-6.24-5.71-2.51-1.33-5.22-2.2-7.88-3.02-2.67-.83-5.33-1.54-7.99-2.11-5.32-1.16-10.65-1.68-15.79-1.3-5.14.38-10.05 1.79-14.33 4.08-4.27 2.29-7.89 5.53-10.27 9.4l-.06-.23c6.25 3.74 13.08 5.6 19.55 6.03 6.49.45 12.64-.59 17.97-2.53 2.69-.91 5.14-2.26 6.94-4.17.87-.96 1.56-2.09 1.8-3.31.21-1.21.03-2.49-.58-3.51-.58-1.04-1.51-1.81-2.49-2.4-.99-.58-2.05-.98-3.1-1.27-1.05-.3-2.11-.47-3.15-.58a36.11 36.11 0 0 0-3.03-.26c-7.93-.33-13.9 1.6-17.65 3.17-1.9.79-3.27 1.54-4.18 2.05l-1.41.78z" id="Line"/></svg>