<svg xmlns="http://www.w3.org/2000/svg" viewBox="0 0 487.44 467.38" style="enable-background:new 0 0 487.44 467.38" xml:space="preserve"><style>.st0{fill:#fafafa}.st2{fill:#ab2931}.st4{fill:#1d365b}.st5{fill:#0e213f}.st6{fill:#263238}.st7{fill:#ffbda7}.st8{fill:#b16668}.st9{fill:#f0997a}.st10{fill:#f28f8f}.st11{fill:#ffa8a7}.st12{fill:#51627c}.st13{fill:#fff}</style><g id="Floor"><path id="Floor_00000107580658230954330200000001971256659486645429_" class="st0" d="M71.38 227.17c-95.18 54.95-95.18 144.04.01 199 95.18 54.95 249.5 54.95 344.67 0 95.18-54.95 95.18-144.04-.01-199-95.18-54.95-249.49-54.95-344.67 0z"/></g><g id="Thoughts_00000100374018034888262090000018077862183324887989_"><g id="Thoughts" style="opacity:.25"><path class="st2" d="M172.46 354.08c-28.89 0-57.02-8.98-81.04-26.15-30.41-21.74-50.52-53.97-56.64-90.74-6.12-36.77 2.49-73.77 24.23-104.18 21.74-30.41 53.97-50.52 90.74-56.64 36.77-6.11 73.77 2.49 104.18 24.23 30.41 21.74 50.52 53.96 56.64 90.74 6.12 36.77-2.49 73.77-24.23 104.18-21.74 30.41-53.96 50.53-90.74 56.64a140.39 140.39 0 0 1-23.14 1.92zm.43-278.68c-7.63 0-15.31.63-22.99 1.91-36.53 6.07-68.54 26.05-90.13 56.26-21.59 30.2-30.14 66.95-24.07 103.48 6.07 36.52 26.05 68.53 56.26 90.12 30.21 21.59 66.96 30.14 103.49 24.07 36.52-6.07 68.53-26.05 90.12-56.26 21.59-30.21 30.14-66.96 24.06-103.48-6.07-36.52-26.05-68.53-56.26-90.12-23.84-17.06-51.79-25.98-80.48-25.98z"/><path class="st2" d="M226.09 354.07c-29.03 0-57.29-9.02-81.43-26.27-30.56-21.84-50.77-54.22-56.91-91.18-6.14-36.95 2.5-74.13 24.35-104.69 21.84-30.56 54.22-50.77 91.18-56.91 36.95-6.15 74.13 2.5 104.69 24.35 30.56 21.84 50.77 54.22 56.91 91.17 6.14 36.95-2.5 74.13-24.35 104.69-21.84 30.56-54.22 50.77-91.17 56.91a142.15 142.15 0 0 1-23.27 1.93zm.43-280.04c-7.67 0-15.39.63-23.1 1.92-36.7 6.1-68.86 26.18-90.56 56.53-21.7 30.35-30.29 67.28-24.18 103.98 11.34 68.17 70.61 116.64 137.55 116.65 7.58 0 15.24-.62 22.96-1.9 36.7-6.1 68.86-26.18 90.56-56.53 21.7-30.35 30.29-67.28 24.18-103.98-6.1-36.7-26.18-68.86-56.53-90.56-23.97-17.15-52.05-26.11-80.88-26.11z"/><path class="st2" d="M285.86 347.66c-67.41 0-127.07-48.8-138.48-117.44-12.7-76.4 39.12-148.9 115.52-161.6 36.95-6.14 74.13 2.5 104.69 24.35 30.56 21.84 50.77 54.22 56.91 91.18 12.7 76.4-39.12 148.9-115.52 161.6-7.76 1.29-15.49 1.91-23.12 1.91zM148.31 230.07c12.62 75.89 84.62 127.36 160.51 114.74 75.89-12.62 127.36-84.62 114.74-160.51-6.1-36.7-26.18-68.86-56.53-90.56-30.35-21.7-67.28-30.28-103.98-24.18-75.88 12.62-127.36 84.62-114.74 160.51z"/><path class="st2" d="M176.99 308.62c-67.41 0-127.07-48.8-138.49-117.44-12.7-76.4 39.12-148.9 115.52-161.6 36.95-6.15 74.13 2.5 104.69 24.35 30.56 21.84 50.77 54.22 56.91 91.17 12.7 76.4-39.12 148.9-115.52 161.6-7.76 1.3-15.49 1.92-23.11 1.92zM39.43 191.03c12.62 75.89 84.63 127.37 160.52 114.75 75.89-12.62 127.36-84.63 114.74-160.52-6.1-36.7-26.18-68.86-56.53-90.56-30.35-21.7-67.28-30.29-103.98-24.19C78.29 43.13 26.82 115.14 39.43 191.03z"/><path class="st2" d="M200.7 313.85c-67.41 0-127.07-48.8-138.48-117.44-12.7-76.4 39.12-148.9 115.52-161.6 36.95-6.14 74.13 2.5 104.69 24.35 30.56 21.84 50.77 54.22 56.91 91.18 6.14 36.95-2.5 74.13-24.35 104.69-21.84 30.56-54.22 50.77-91.17 56.91-7.77 1.28-15.5 1.91-23.12 1.91zM63.14 196.26C75.76 272.14 147.77 323.62 223.66 311c75.89-12.62 127.36-84.62 114.74-160.51-6.1-36.7-26.18-68.86-56.53-90.56-30.35-21.7-67.28-30.28-103.98-24.18C102 48.36 50.53 120.37 63.14 196.26z"/><path class="st2" d="M208.41 302.4c-17.01 0-33.58-5.29-47.72-15.4-17.91-12.8-29.75-31.78-33.35-53.44-3.6-21.66 1.47-43.45 14.27-61.35 12.8-17.91 31.78-29.75 53.43-33.35 44.77-7.44 87.27 22.93 94.71 67.7 3.6 21.66-1.46 43.45-14.27 61.36-12.8 17.91-31.78 29.76-53.44 33.36-4.55.75-9.11 1.12-13.63 1.12zm.17-163.73c-4.42 0-8.89.36-13.39 1.11-21.41 3.56-40.16 15.27-52.82 32.97-12.65 17.7-17.66 39.24-14.1 60.65 3.56 21.41 15.27 40.17 32.97 52.82 17.7 12.66 39.24 17.67 60.65 14.11 21.41-3.56 40.17-15.27 52.83-32.97 12.66-17.7 17.66-39.24 14.1-60.65-6.62-39.76-41.19-68.04-80.24-68.04z"/><path class="st2" d="M246.94 243.25c-39.51 0-74.48-28.6-81.17-68.83-3.6-21.66 1.47-43.45 14.27-61.35 12.8-17.91 31.78-29.75 53.44-33.36 44.78-7.45 87.26 22.93 94.71 67.7 3.6 21.66-1.46 43.45-14.27 61.36-12.8 17.91-31.78 29.76-53.43 33.36-4.56.75-9.08 1.12-13.55 1.12zm.08-163.72c-4.42 0-8.89.36-13.39 1.11-21.41 3.56-40.17 15.27-52.83 32.97-12.66 17.7-17.66 39.24-14.1 60.65 6.61 39.76 41.18 68.04 80.23 68.04 4.42 0 8.89-.36 13.39-1.11 21.41-3.56 40.16-15.27 52.82-32.97 12.65-17.7 17.66-39.24 14.1-60.65-6.6-39.76-41.17-68.04-80.22-68.04z"/><path class="st2" d="M229.05 257.01c-39.51 0-74.48-28.6-81.17-68.83-7.45-44.78 22.93-87.27 67.71-94.71 44.76-7.45 87.26 22.93 94.71 67.71 7.45 44.78-22.92 87.26-67.7 94.71-4.55.76-9.08 1.12-13.55 1.12zm-80.23-68.98c7.36 44.26 49.37 74.28 93.63 66.93 44.26-7.36 74.28-49.36 66.92-93.62-7.36-44.27-49.36-74.29-93.62-66.93-44.26 7.36-74.28 49.36-66.93 93.62z"/><path class="st2" d="M267.44 210.12c-39.51 0-74.47-28.6-81.16-68.83-3.6-21.66 1.46-43.45 14.27-61.36 12.8-17.91 31.78-29.76 53.44-33.36 21.65-3.6 43.44 1.47 61.35 14.27 17.91 12.8 29.75 31.78 33.35 53.44 3.6 21.66-1.46 43.45-14.27 61.35-12.8 17.91-31.78 29.75-53.43 33.35-4.55.77-9.08 1.14-13.55 1.14zm-80.23-68.98c7.36 44.26 49.37 74.28 93.63 66.93 21.41-3.56 40.16-15.27 52.82-32.97 12.65-17.7 17.66-39.24 14.1-60.65-3.56-21.41-15.27-40.17-32.97-52.83-17.7-12.66-39.24-17.66-60.65-14.11-21.41 3.56-40.17 15.27-52.83 32.97-12.65 17.71-17.66 39.25-14.1 60.66z"/><path class="st2" d="M238.88 215.86c-37.4 0-70.5-27.07-76.83-65.16-3.41-20.5 1.39-41.13 13.51-58.09s30.08-28.17 50.59-31.58c42.39-7.05 82.62 21.7 89.67 64.1 7.05 42.39-21.71 82.61-64.1 89.66-4.33.72-8.61 1.07-12.84 1.07zm-75.91-65.32c6.96 41.88 46.69 70.28 88.57 63.32 41.88-6.96 70.29-46.7 63.33-88.57-6.96-41.88-46.7-70.28-88.58-63.32-20.25 3.37-38 14.45-49.97 31.2-11.98 16.74-16.71 37.12-13.35 57.37z"/><path class="st2" d="M165.88 230.53c-39.51 0-74.47-28.6-81.16-68.83-3.6-21.66 1.47-43.45 14.27-61.35 12.8-17.91 31.78-29.75 53.44-33.35 44.78-7.45 87.27 22.93 94.71 67.7 3.6 21.66-1.47 43.45-14.27 61.36-12.8 17.91-31.78 29.75-53.44 33.36-4.55.75-9.08 1.11-13.55 1.11zm.09-163.71c-4.42 0-8.89.36-13.39 1.11-21.41 3.56-40.17 15.27-52.83 32.97-12.66 17.7-17.66 39.24-14.1 60.65 6.61 39.76 41.18 68.03 80.23 68.04 4.42 0 8.89-.36 13.39-1.11 21.41-3.56 40.17-15.27 52.83-32.97 12.66-17.7 17.66-39.24 14.1-60.65-6.61-39.77-41.18-68.04-80.23-68.04z"/><path class="st2" d="M223.19 280.98c-29.03 0-57.3-9.02-81.43-26.27-30.56-21.84-50.77-54.22-56.91-91.17-6.14-36.95 2.5-74.13 24.35-104.69 21.84-30.56 54.23-50.77 91.18-56.92 36.95-6.15 74.13 2.5 104.69 24.35 30.56 21.84 50.77 54.23 56.91 91.18 6.14 36.95-2.5 74.13-24.35 104.69-21.84 30.56-54.22 50.77-91.18 56.91-7.76 1.29-15.54 1.92-23.26 1.92zM223.63.95c-7.67 0-15.39.63-23.1 1.92-36.71 6.1-68.87 26.18-90.57 56.53-21.7 30.35-30.29 67.28-24.18 103.99 6.1 36.7 26.18 68.86 56.53 90.56 30.35 21.7 67.28 30.28 103.99 24.18 36.7-6.1 68.86-26.18 90.56-56.53 21.7-30.35 30.29-67.28 24.18-103.98-6.1-36.7-26.18-68.87-56.53-90.57C280.54 9.9 252.46.95 223.63.95z"/><path class="st2" d="M276.48 292.07c-29.03 0-57.29-9.02-81.43-26.28-30.56-21.84-50.77-54.23-56.91-91.18-6.14-36.95 2.5-74.13 24.35-104.69 21.84-30.56 54.22-50.77 91.17-56.91 36.95-6.14 74.13 2.5 104.69 24.35 30.56 21.84 50.77 54.22 56.91 91.17 12.7 76.4-39.12 148.9-115.52 161.6-7.77 1.3-15.54 1.94-23.26 1.94zm.43-280.04c-7.67 0-15.39.63-23.1 1.92-36.7 6.1-68.86 26.18-90.56 56.53-21.7 30.35-30.29 67.28-24.18 103.98 6.1 36.7 26.18 68.87 56.53 90.56 30.35 21.7 67.28 30.29 103.98 24.18 75.89-12.62 127.36-84.63 114.74-160.52-6.1-36.7-26.18-68.86-56.53-90.56-23.97-17.13-52.05-26.09-80.88-26.09z"/></g></g><g id="Shadow"><path id="Shadow_00000103257088883020645610000003149117662077672609_" d="M441.92 410.96c-4.83-3.73-9.65-7.46-14.48-11.18-4.48-3.46-9-6.96-12.52-11.36-3.03-3.78-5.3-9.64-5.45-14.44-.06-1.87.18-3.79 1.06-5.45 1.73-3.27 5-4.63 8.02-6.42 3.18-1.88 6.24-3.96 9.16-6.21 5.85-4.5 11.15-9.67 15.85-15.32 11.14-13.4 20.47-29.57 17.2-47.45-.88-4.79-3.2-10.71-8.42-12.34.64 4.47 1.26 9.16-.38 13.38-1.77-.26-2.5-2.31-3-4a37.781 37.781 0 0 0-6.97-13.2c-2.01-2.47-4.76-4.86-7.98-4.68-.06 1.63.89 3.1 1.71 4.52 2.63 4.58 4.1 9.81 4.23 15.07.02.7.01 1.44-.34 2.06-.34.62-1.12 1.06-1.79.8-.46-.18-.75-.63-1-1.06-3.07-5.07-6.79-9.94-11.83-13.15-1.23-.78-2.64-1.48-4.08-1.28-.15 1.15.61 2.2 1.28 3.15 4.19 5.94 6.31 13.26 5.94 20.47-.1 1.97-.73 4.35-2.67 4.85-5.81 1.52-5.79-8.7-7.94-11.48-.18-.24-.43-.49-.74-.46-.27.02-.47.25-.63.46-1.45 1.97-1.98 4.44-2.21 6.86-.31 3.4-.07 6.85.71 10.18 1.34 5.68 4.4 12.25-.03 17.29-11.88 13.52-36.21 13.4-50.05 3.01-7.01-5.26-9.54-14.38-11.04-22.92-.46-2.6-.88-5.28-2.3-7.52-1.35-2.13-3.48-3.66-5.67-4.95-11.11-6.56-24.48-8.2-37.42-8.91-28.14-1.55-56.76.36-84.26 6.49-12.46 2.78-25.69 3.43-38.38 5.84-10.37 1.96-20.48 4.51-30.91 5.83-10.96 1.39-21.92 3.96-31.74 9.08-11.44 5.96-21.26 15.72-25.04 27.88-1.1 3.56-1.65 7.53-.05 10.9 1.44 3.02 4.37 5.07 7.29 6.78a75.945 75.945 0 0 0 20.71 8.3c2.48.59 6.23 1.56 6.91 4.45 1.59 6.74-14.7 9.58-18.47 10.41-9.55 2.08-19.56 2.72-29.14.39-3.78-.92-7.56-2.36-10.37-5-2.81-2.65-4.48-6.71-3.42-10.39.93-3.22 3.69-5.6 5.21-8.6.93-1.83 2.9-10.34-.52-10.91-1.89-.31-2.95 3.99-4.13 4.97-2.05 1.69-5.51 2.02-7.2-.01-.71-.85-1-1.96-1.17-3.05-.6-4.03.37-8.26 2.68-11.65 1.44-2.12 3.4-3.89 5.64-5.16.99-.56 5.47-1.48 5.54-2.45.02-.27-.09-.53-.23-.76-.91-1.54-2.87-2.18-4.68-2.31-6.42-.47-12.48 2.66-15.4 8.25-.25.48-.49.99-.87 1.38-.38.39-.96.66-1.49.53s-.9-.63-1.04-1.15c-.13-.52-.07-1.07 0-1.6.51-3.7 1.56-7.31 2.7-10.87.94-2.93 2.95-5.56 3.21-8.69.03-.34.02-.72-.21-.97-.21-.23-.54-.3-.85-.33-3.21-.29-5.9 2.29-7.79 4.86a42.704 42.704 0 0 0-6.98 14.81c-.26 1.03-1.25 2.35-2.55 1.8-.52-.22-.78-.79-.94-1.33-.72-2.46-.22-5.12.73-7.5s2.34-4.57 3.49-6.86c.14-.27.26-.63.05-.85-.11-.12-.29-.16-.45-.17-1.25-.12-2.39.63-3.36 1.41-5.51 4.41-7.82 10.48-9.66 17.05-3.43 12.25-2.77 24.7 2.91 36.28 9.2 18.76 30.25 29.17 49.87 34.57 14.22 3.91 29.08 5.31 43.81 5.09.96-.01 1.91-.03 2.87-.06 10.4-.29 21.34-.98 31.46-3.55 9.48-2.41 19.84-1.8 29.65-2.16 4.68-.17 9.45-.33 13.98.9 4.97 1.36 9.33 4.31 13.92 6.66 14.64 7.51 31.15 7.83 46.94 11.21 6.36 1.36 14.25 2.5 20.01 5.64 5.49 2.99 10.86 6.8 16.36 9.96 6.17 3.53 12.37 7.09 18.98 9.73 10.86 4.34 23.39 4.74 34.65 1.72 5.13-1.38 9.62-4.11 13.07-8.18 1.67-1.98 3.14-4.13 4.83-6.09 1.17-1.35 2.53-2.66 4.25-3.13 1.22-.34 2.52-.23 3.78-.07 2.81.35 5.59.92 8.31 1.71 5.23 1.52 10.19 3.61 15.59 4.63 5.41 1.03 10.99 1.34 16.46.61 8.85-1.19 19.32-5.92 24.91-12.99 2.4-3.04 3.89-7 3.09-10.76-.99-4.63-5.01-7.93-8.78-10.84z" style="fill:#e0e0e0"/></g><g id="Character"><g id="Character_00000035515676141575152010000005519914863479334279_"><path class="st4" d="M203.58 378c-22.55-8.27-32.24-20.07-38.6-34.86-5.88-13.68-5.88-23.99-5.88-23.99s20.75 3.56 41.94 1.35c21.19-2.2 28.61-3.58 28.61-3.58L203.58 378z"/><g id="Top_00000124136806567777658820000012788225781968977833_"><path class="st5" d="M252.71 166.24c18.94 5.35 29.46 16.01 45.52 34.25 17.46 19.82 23.85 28.35 23.85 28.35l-4.51 45.5c-13.99 2.54-28.61-11.28-52.28-39.14l-12.58-68.96z"/><g id="Chest_00000142164078375804333650000017755984066400145851_"><path id="XMLID_00000044161787874237411980000008146689769759856545_" class="st2" d="M266.57 215.15c-.16-33.44-7.81-46.86-14.67-49.25 0 0-24.62-9.79-51.88-5.17-7.7 1.31-20.59 5.92-30.24 9.4-6.09 2.2-14.62 18.82-16.71 38.68-1.7 16.13-1.62 29.62-.61 56.51 1.07 28.18 1.97 34.14 4.75 57.09 43.88 10.74 92.81-3.43 116.8-44.7-2.6-8.35-4.07-16.59-5.3-29.5-1.38-14.55-2.1-22.89-2.14-33.06z"/><g id="Head_2_"><path class="st6" d="M200.34 153.42c-.76-9.1-6.31-19.22-9.66-27.39-3.24-7.87-5.05-13.92-4.01-20.97.62-4.18 3.75-9.65 6.96-10.58-2.28-15.92 10.05-22.17 16.4-23.12 2.43-.37 6.45-.91 8.81-1.67 3.5-1.13 4.5-3.78 7.42-5.87 5.03-3.59 12.95-3.01 15.45 3.28 3.47-3.78 7.7-3.31 12.49-1.65 4.57 1.58 6.45 5.73 5.61 9.99 6.86-3.11 12.47 2.02 12.75 5.93.2 2.88-.61 5.22 1.04 7.92 1.85 3.04 5.81 3.33 7.21 1.12.33 4.09-1.5 7.03-5.86 6.44 1.32 2.31 1.47 5.21.49 7.8-1.34 3.5-5.13 5.31-8.05 5.13-.65 2.17-.92 4.19-2.47 5.98-1.49 1.72-3.38 3.39-5.54 4.21-6.89 2.59-14.3 3-21.56 3.87-2.87.34-5.74.69-8.62 1.04-.5.06-3.07 0-3.41.41-.02 0-25.45 28.13-25.45 28.13z"/><g id="XMLID_00000119095417526256423400000004604071686165192854_"><path class="st7" d="M191.26 141.26c7.07 5.55 11.13 1.18 11.13 1.18l-4.03 21.59c12.84 24.98 44.4 21.55 38.58 10.88l1.24-9.73s6.45.66 10.71.43c7.12-.37 13.53-5.43 16.19-12.88 2.77-7.78 4.46-20.75 3.54-30.44-.23-2.47-.22-4.98.25-7.42 1.23-6.49.38-10.39-.84-16.03-7.21-6.89-25.69-10.41-43.24-1.68 1.08 10.1-3.45 17.64-10.99 20.82.11 2.71-.13 9.52-4.53 9.02-3.17-.36-2.47-4.36-5.43-8.15-3.02-3.87-10.65-5.05-15.02-.13-5.56 6.25-2.98 18.28 2.44 22.54z"/><path class="st8" d="M239.93 147.68c1.45.02 2.88.04 4.33-.05 1-.06 2.03-.25 2.85-.82.09-.06.18-.14.23-.24.06-.14.03-.3-.02-.44-.41-1.24-1.76-1.97-3.06-2.06-1.47-.1-3.18.32-4.3 1.26-.4.33-2.06 1.7-1.24 2.2.2.12.45.14.68.14.17 0 .35.01.53.01z"/><path class="st9" d="M238.18 165.18c-11.05-2.26-19.42-4.2-24.55-12.78-3.22-5.38-5.6-13.8-5.6-13.8s.3 9.98 3.38 16.98c2.37 5.4 8.9 10.29 26.27 13.28l.5-3.68z"/></g><g id="XMLID_00000010290674754772405730000004492931974248960944_"><path id="XMLID_00000176024295519396502630000005796883519737705106_" class="st6" d="M238.77 121.86c-.09 1.81-1.58 3.19-3.32 3.1-1.74-.1-3.07-1.64-2.98-3.44.09-1.81 1.58-3.19 3.32-3.1 1.74.1 3.07 1.64 2.98 3.44z"/><path id="XMLID_00000114780811330066086070000004379608860932788873_" class="st6" d="m229.96 112.38 6.91-3.39c.9 1.98.08 4.35-1.83 5.28-1.9.94-4.18.09-5.08-1.89z"/><path id="XMLID_00000159442600859623414830000013413969301506954403_" class="st6" d="m254.51 108.99 7.4 2.34c-.57 2.08-2.7 3.25-4.74 2.6-2.05-.64-3.24-2.85-2.66-4.94z"/><path id="XMLID_00000015329772367092149120000015860729433597027254_" class="st6" d="M266.14 122.76c-.09 1.81-1.58 3.19-3.32 3.1-1.74-.1-3.07-1.64-2.97-3.44.09-1.81 1.58-3.19 3.32-3.1 1.73.09 3.07 1.63 2.97 3.44z"/></g></g></g><path class="st5" d="M169.09 170.44c-11.69 4.49-21.7 10.58-25.33 26.12-3.76 16.09 4.18 36.24 14.67 58.65 8.22 17.56 19.04 30.47 29.8 33.67 10.76 3.2 11.69-41.72 11.69-41.72s-16.79-56.05-30.83-76.72z"/><path class="st7" d="M209.18 184.49c-.06 8.35-13.98 32.79-20.97 43.45s-9.08 15.87-10.25 24.99 1.65 24.05 7.26 33.1c3.12 5.03 16.46 3.15 27.3-11.82s11.38-28.68 13.48-46.38c1.63-13.8 3.65-21.96 4.88-29.22.49-2.88 4.42-10.44 7.27-19.77 2.85-9.34.48-16.08.63-19.95.1-2.58.29-6.96 1.86-11.63.78-2.33 1.84-4.77 2.32-7.05 1.25-5.9-.41-8.2-1.94-8.73.75-4.15.09-6.83-2.29-7.82.59-3.71-1.71-6.62-3.52-5.74-1.81.87-4.05 5.01-4.05 5.01s-2.42-.54-4.41.57c-1.99 1.11-6.72 7.49-9.92 10.89-3.19 3.4-3.04 7.87-5.07 13.68 0 0-1.19-2.62-3.41-4.9-2.22-2.28-6.66-1.92-5.36 2.61 1.3 4.53 2.18 10.83 2.61 19.1.41 8.27 3.58 19.61 3.58 19.61"/><path class="st8" d="M243.61 134.92c-.11-.75-.32-1.5-.71-2.19-.34-.6-.86-1.14-1.52-1.45.23-1.39.38-2.82.15-4.26-.13-.76-.36-1.53-.82-2.2-.4-.59-.97-1.06-1.61-1.38.14-1.16.06-2.36-.37-3.48-.23-.6-.55-1.17-1.01-1.66-.45-.48-1.07-.91-1.84-.94-.8.01-1.39.49-1.85.89-.47.43-.88.91-1.26 1.39-.69.9-1.29 1.85-1.85 2.84-1.4-.2-2.82-.09-4.12.53-1.39.77-2.26 1.9-3.25 2.94-1.89 2.14-3.65 4.36-5.5 6.5-.46.54-.93 1.06-1.4 1.58-.48.53-.96 1.11-1.33 1.73-.78 1.24-1.28 2.62-1.67 4-.7 2.54-1.19 5.08-1.99 7.54-.43-.8-.9-1.57-1.43-2.31-.34-.46-.69-.91-1.07-1.35-.37-.43-.77-.86-1.26-1.22-.97-.68-2.2-1.08-3.42-.82-.6.13-1.19.48-1.54 1.02-.38.53-.44 1.18-.44 1.77.07 1.22.51 2.26.74 3.36.26 1.09.48 2.2.68 3.31.4 2.22.69 4.46.92 6.7.49 4.48.51 9.03 1.34 13.5.76 4.46 1.79 8.87 3 13.23-1.13-4.38-2.09-8.8-2.77-13.27-.76-4.46-.65-8.99-1.14-13.5-.22-2.25-.5-4.5-.88-6.74-.19-1.12-.41-2.23-.67-3.34-.23-1.11-.66-2.21-.7-3.25.01-.52.07-1.06.36-1.46.28-.41.72-.68 1.22-.79 1.01-.22 2.13.13 2.97.74.42.3.8.71 1.16 1.14.36.42.71.86 1.03 1.31.65.9 1.23 1.87 1.71 2.86l.31.66.24-.68c.97-2.69 1.5-5.52 2.26-8.22.38-1.35.88-2.66 1.62-3.82.36-.59.79-1.11 1.27-1.62.49-.52.96-1.05 1.43-1.59 1.87-2.14 3.65-4.36 5.53-6.46.95-1.01 1.9-2.15 3.02-2.74 1.17-.56 2.62-.64 3.9-.4l.3.06.14-.26c.58-1.02 1.23-2.03 1.93-2.97.36-.46.74-.91 1.15-1.29.42-.38.87-.7 1.3-.69.94.04 1.75 1.07 2.14 2.08.41 1.05.49 2.23.32 3.36l-.04.29.27.11c.62.26 1.16.68 1.54 1.23.38.55.6 1.22.71 1.91.23 1.39.08 2.85-.16 4.28l-.05.29.28.1c1.23.44 1.87 1.86 2.06 3.22.19 1.39.09 2.84-.15 4.26-.45 2.85-1.7 5.51-2.58 8.32-.9 2.81-1.37 5.74-1.57 8.67-.08 1.46-.21 2.94-.06 4.42.14 1.47.35 2.91.5 4.36.32 2.89.35 5.81-.03 8.69s-1.23 5.67-2.15 8.44c-.93 2.77-1.96 5.5-3.04 8.21l-1.62 4.07c-.52 1.36-1.07 2.73-1.36 4.16.31-1.43.89-2.78 1.43-4.13l1.69-4.04c1.13-2.69 2.21-5.41 3.19-8.17.97-2.75 1.9-5.56 2.29-8.48.4-2.92.39-5.88.09-8.8-.14-1.46-.34-2.91-.47-4.35-.14-1.43-.01-2.88.08-4.33.22-2.89.71-5.77 1.6-8.53.88-2.75 2.17-5.43 2.65-8.39.25-1.49.37-2.99.18-4.5z"/><path class="st10" d="M185.21 286.02c.7.94 1.73 1.55 2.81 1.86 1.1.29 2.24.34 3.37.27 2.27-.17 4.44-.96 6.51-1.89 2.07-.96 3.99-2.23 5.8-3.64 1.82-1.39 3.51-2.96 5.08-4.65 3.2-3.32 5.79-7.23 7.99-11.3 2.2-4.08 3.85-8.44 5.01-12.94 2.38-8.99 3.05-18.35 4.27-27.58.59-4.63 1.31-9.24 2.16-13.82.84-4.59 1.84-9.14 2.65-13.73-.76 4.6-1.71 9.17-2.5 13.76s-1.49 9.2-2.04 13.83c-1.13 9.24-1.66 18.6-3.96 27.7-1.14 4.54-2.78 8.97-4.97 13.12-.55 1.04-1.1 2.07-1.72 3.06l-.91 1.5-.99 1.46c-1.32 1.93-2.62 3.91-4.21 5.65a43.148 43.148 0 0 1-5.12 4.9c-1.88 1.44-3.92 2.7-6.1 3.66-2.17.97-4.53 1.59-6.93 1.63-1.2.02-2.41-.15-3.53-.6-1.11-.43-2.12-1.2-2.67-2.25z"/><path class="st9" d="M219.04 147.23c.24-2.3.31-4.6.83-6.9.47-2.31 1.56-4.53 2.92-6.42 2.62-3.78 5.53-7.05 8.56-10.55-2.2 4.07-4.94 7.47-7.56 11.26-1.34 1.82-2.37 3.78-3.01 5.95-.65 2.15-1.05 4.45-1.74 6.66zM238.32 123.85c-.62-.11-1.26-.09-1.71.28-.46.35-.77.89-1.05 1.42-.57 1.07-.95 2.25-1.48 3.41-1.01 2.3-2.01 4.01-3.13 6.23-.56 1.1-1.16 2.21-1.56 3.3-.4 1.14-.73 2.36-1.11 3.54-.71 2.39-1.48 4.76-2.32 7.13.37-2.48.82-4.94 1.38-7.37.27-1.23.57-2.42.93-3.66.43-1.27 1.02-2.36 1.57-3.49 1.15-2.22 2.19-3.9 3.36-6.08.58-1.08 1.09-2.24 1.83-3.3.38-.51.79-1.05 1.39-1.38.62-.39 1.34-.26 1.9-.03zM240.6 131.65c-.5.03-.96.21-1.29.53-.33.32-.58.73-.8 1.16-.44.85-.77 1.77-1.1 2.69-.6 1.86-.91 3.57-1.75 5.38-.43.9-.88 1.79-1.33 2.67-.47.88-.88 1.72-1.24 2.62-.69 1.81-1.27 3.7-1.87 5.6.13-1.99.4-3.97.96-5.91.57-1.99 1.58-3.71 2.36-5.5.85-1.77 1.17-3.38 1.98-5.21.41-.91.88-1.81 1.48-2.65.31-.41.66-.8 1.11-1.1.44-.31 1-.39 1.49-.28zM211.74 148.06c-.06 2.39-.26 4.74-.49 7.09-.25 2.35-.53 4.7-1.04 7.04-.22-2.39-.11-4.77.12-7.14.26-2.35.63-4.72 1.41-6.99z"/><path class="st7" d="M292.72 177.14c.71 7.88 15.73 29.88 23.16 39.4 7.43 9.53 9.81 14.28 11.62 22.8 1.81 8.52.31 22.83-4.29 31.81-2.55 4.99-15.3 4.25-26.69-9.04-11.4-13.3-12.97-26.2-16.32-42.75-2.61-12.9-5.15-20.46-6.87-27.22-.68-2.68-4.98-9.51-8.4-18.11s-1.7-15.15-2.14-18.79c-.29-2.43-.81-6.55-2.66-10.84-.92-2.14-2.1-4.36-2.73-6.48-1.63-5.47-.24-7.77 1.16-8.4-1.03-3.87-.61-6.44 1.56-7.56-.84-3.46 1.1-6.38 2.88-5.69 1.78.69 4.22 4.42 4.22 4.42s2.24-.7 4.21.2c1.97.9 6.93 6.55 10.21 9.52 3.28 2.97 3.48 7.19 5.85 12.53 0 0 .92-2.57 2.84-4.89s6.14-2.33 5.26 2.05c-.87 4.38-1.22 10.39-.98 18.24.22 7.85-1.89 18.8-1.89 18.8"/><path class="st8" d="M256.37 133c.05-.72.18-1.44.5-2.13.28-.59.72-1.14 1.32-1.49-.33-1.29-.57-2.63-.47-4.01.06-.73.22-1.48.6-2.14.33-.59.84-1.08 1.41-1.43-.22-1.09-.24-2.23.08-3.31.17-.58.43-1.15.82-1.65.39-.49.94-.94 1.67-1.03.76-.05 1.35.35 1.81.7.48.37.9.79 1.29 1.22.73.8 1.36 1.65 1.97 2.54 1.3-.3 2.65-.3 3.93.18 1.37.62 2.28 1.62 3.29 2.53 1.95 1.87 3.79 3.83 5.7 5.71.48.47.96.93 1.45 1.38.5.47.99.97 1.39 1.53.83 1.11 1.41 2.38 1.88 3.65.85 2.34 1.52 4.7 2.46 6.96.35-.79.73-1.56 1.17-2.29.28-.47.58-.92.91-1.35.32-.43.66-.87 1.1-1.25.86-.72 2-1.19 3.17-1.04.58.08 1.16.36 1.53.84.4.47.51 1.08.56 1.64.03 1.16-.31 2.17-.44 3.23a48.11 48.11 0 0 0-.39 3.17c-.21 2.12-.3 4.26-.35 6.4-.12 4.27.22 8.57-.22 12.85-.37 4.27-1 8.52-1.81 12.72.73-4.22 1.29-8.47 1.58-12.74.37-4.27-.08-8.54.03-12.84.04-2.15.12-4.29.31-6.43.1-1.07.21-2.14.37-3.2.13-1.07.45-2.13.41-3.13-.05-.49-.14-1-.46-1.35-.29-.37-.73-.59-1.21-.65-.97-.13-2 .29-2.75.93-.38.32-.7.73-1.01 1.16-.31.42-.6.86-.87 1.32-.54.9-1.02 1.86-1.39 2.83l-.24.64-.28-.62c-1.12-2.47-1.84-5.09-2.77-7.58-.47-1.24-1.04-2.44-1.82-3.48-.39-.53-.84-.99-1.32-1.43-.5-.46-.99-.92-1.47-1.39-1.93-1.88-3.78-3.83-5.72-5.67-.97-.88-1.96-1.89-3.07-2.35-1.15-.44-2.52-.4-3.72-.08l-.28.08-.16-.23c-.62-.92-1.32-1.83-2.06-2.66-.37-.41-.77-.8-1.19-1.13-.43-.33-.87-.59-1.28-.56-.89.11-1.57 1.14-1.86 2.13-.31 1.02-.29 2.14-.05 3.2l.06.27-.24.13c-.57.29-1.04.73-1.36 1.28-.32.55-.47 1.2-.53 1.86-.11 1.33.15 2.7.48 4.03l.07.27-.25.11c-1.12.51-1.62 1.9-1.69 3.2-.07 1.33.13 2.69.48 4.01.64 2.65 2.03 5.07 3.08 7.65 1.06 2.59 1.74 5.31 2.16 8.06.19 1.37.43 2.76.39 4.17-.02 1.4-.11 2.77-.13 4.15-.07 2.75.12 5.51.7 8.2.58 2.69 1.6 5.26 2.69 7.8 1.09 2.54 2.28 5.04 3.51 7.52l1.84 3.72c.59 1.25 1.23 2.49 1.6 3.82-.4-1.33-1.05-2.56-1.67-3.79l-1.91-3.69c-1.28-2.46-2.51-4.94-3.65-7.46-1.13-2.52-2.22-5.1-2.81-7.83-.61-2.72-.82-5.52-.76-8.3.02-1.39.1-2.77.11-4.15.02-1.36-.22-2.72-.41-4.09-.43-2.72-1.11-5.4-2.17-7.93-1.04-2.53-2.47-4.96-3.16-7.71-.32-1.35-.55-2.76-.48-4.2z"/><path class="st10" d="M323.21 271.16c-.59.95-1.51 1.59-2.51 1.97-1.01.36-2.09.5-3.16.51-2.16.02-4.27-.56-6.3-1.28-2.03-.75-3.94-1.8-5.75-2.99-1.83-1.17-3.54-2.52-5.15-4-3.28-2.89-6.03-6.38-8.42-10.05-2.39-3.68-4.29-7.67-5.74-11.83-2.94-8.31-4.3-17.09-6.17-25.71-.92-4.32-1.96-8.62-3.11-12.88-1.15-4.27-2.44-8.49-3.57-12.76 1.08 4.28 2.32 8.52 3.42 12.8 1.1 4.27 2.12 8.57 2.99 12.9 1.78 8.64 3.01 17.44 5.88 25.85 1.42 4.2 3.32 8.25 5.71 12 .6.94 1.2 1.87 1.87 2.76l.98 1.35 1.04 1.3c1.39 1.72 2.78 3.48 4.41 5.01 1.61 1.54 3.35 2.97 5.21 4.23 1.89 1.21 3.91 2.24 6.04 2.99 2.12.75 4.4 1.15 6.67 1 1.13-.08 2.27-.33 3.29-.84 1.03-.5 1.93-1.3 2.37-2.33z"/><path class="st9" d="M280.52 142.72c-.4-2.15-.65-4.32-1.31-6.45-.62-2.14-1.82-4.15-3.26-5.83-2.76-3.37-5.77-6.22-8.9-9.3 2.4 3.67 5.24 6.67 8.01 10.04 1.41 1.62 2.53 3.39 3.31 5.38.77 1.99 1.32 4.13 2.15 6.16zM260.54 122.14c.57-.15 1.19-.19 1.64.13.46.3.8.78 1.1 1.26.62.96 1.07 2.05 1.66 3.1 1.13 2.1 2.17 3.63 3.4 5.64.61.99 1.27 2 1.73 2.99.47 1.04.87 2.17 1.32 3.25.86 2.2 1.77 4.38 2.74 6.55-.54-2.31-1.16-4.6-1.88-6.85-.35-1.14-.72-2.24-1.16-3.39-.51-1.17-1.15-2.15-1.75-3.17-1.26-2.01-2.34-3.51-3.61-5.49-.63-.97-1.2-2.03-1.98-2.98-.4-.46-.83-.93-1.42-1.19-.61-.29-1.28-.12-1.79.15zM258.95 129.72c.48-.01.92.13 1.26.4.34.28.6.65.84 1.03.48.77.87 1.61 1.25 2.45.71 1.71 4.5 8.87 4.91 9.7.79 1.66 1.49 3.4 2.2 5.14-.28-1.87-.68-3.72-1.36-5.5-.69-1.84-1.51-3.41-2.39-5.04-.94-1.61-1.64-3.03-2.54-4.7-.46-.83-.97-1.64-1.6-2.38-.33-.36-.69-.71-1.13-.95-.46-.26-.99-.29-1.44-.15zM287.47 142.94c.24 2.26.61 4.45 1.01 6.66.42 2.2.86 4.4 1.53 6.57.02-2.27-.27-4.51-.66-6.73-.43-2.21-.96-4.42-1.88-6.5zM259.84 134.64l-11.14 4.44-2.55-21.61c4.12-1.3 8.98 8.78 13.69 17.17zM240.38 106.31c-.27-.14-.56-.28-.86-.31-.24-.02-.57.04-.64.3-.03.11 0 .24.06.34.03.05.29.28.32.22-.13.04-.1.08.07.13.05.03.09.05.14.07.09.05.18.09.27.15.16.09.3.19.44.31.28.24.46.53.58.87.11.31.14.67.13 1.02 0 .18-.01.36-.01.54v.24c0 .11.03.2.08.28.01.23.01.45.08.67.06.18.29.41.46.21.09-.1.16-.22.22-.34.14-.29.29-.57.37-.88.08-.34.11-.69.1-1.04-.02-.6-.17-1.18-.5-1.68-.32-.48-.81-.85-1.31-1.1zm11.63 2.62c.02-.07.03-.15.04-.22.04-.15.09-.3.15-.45.01-.01 0-.01.01-.01.01-.03.03-.06.05-.09.03-.06.07-.12.11-.18.14-.21.31-.42.41-.65.2-.47-.39-.79-.78-.65l-.62.44c-.02.02-.04.05-.06.07-.03.03-.05.06-.08.1-.05.07-.09.13-.14.21-.1.17-.19.36-.27.54-.14.35-.22.72-.25 1.1-.03.37 0 .75.1 1.12.07.27.2.51.35.73.05.07.1.15.15.21.13.17.26.25.46.34.3.12.86 0 .78-.43-.02-.13-.02-.22-.08-.33 0 0-.07-.12-.05-.1-.02-.04-.1-.19-.11-.27-.03-.14-.08-.34-.11-.5l-.03-.14v-.01c-.01-.08-.02-.15-.02-.23-.01-.16-.01-.32 0-.48-.01-.06-.01-.09-.01-.12z"/></g><path class="st11" d="M325.73 401.2c-2.4-2.88-5.22-8.77-6-15.07-1-8.06-2.75-26.43-4.72-44.14-1.97-17.71-5.54-57.72-9.84-80.16-2.19-11.41-7.11-23.71-15.12-23.87-6.11-.12-23.15 4.01-29.42 26.43-6.27 22.42-5.08 34.97 0 52.92 3.17 11.2 22.48 52.2 25.08 59.83 2.6 7.64 2.62 9.27 2.62 9.27v15.27l37.4-.48z"/><g id="XMLID_00000101089703325364058290000015645414621205185450_"><path class="st6" d="M285.71 411.99c-.24 7.71 9.34 9.51 13.82 11.79 2.91 1.33 6.09 3.26 8.97 9.01 9.19 14.68 24.21 18.61 43.5 15.38 13.55-2.83 14.9-12.5 9.86-16.75-2.94-.94-76.15-19.43-76.15-19.43z"/><path id="XMLID_00000111886356741345870510000009250209616829714584_" class="st5" d="M288.33 386.42c-1.3.11-2.02.84-1.9 3.12.3 5.57-2.83 15.74-.72 22.45 4.09 8.55 17.78 8.38 22.65 14.75 4.87 6.37 9.43 14.36 24.79 16.96 15.36 2.6 26.81-2.57 29.51-7 2.7-4.42.01-8.45-9.93-13.46-10.55-5.32-24.69-21.64-24.69-21.65-1.84-2.12-3.42-4.43-5.01-6.74-.74-1.09-.79-2.31-1.01-3.61l-.75-4.44c-.11-.67-.24-1.38-.65-1.92-.52-.69-1.4-1-2.25-1.16-2.11-.39-4.28-.06-6.38.35-1.38.27-2.76.59-4.12.93-1.94.49-3.91 1.09-5.46 2.35-.66.54-1.24 1.21-1.52 2.02-.2.58-.23 1.21-.24 1.82-.02 1.98.2 3.95.53 5.9.08.46.06 1.08-.39 1.2-.27.07-.54-.12-.74-.31-.98-.95-1.38-2.36-2.25-3.41-1.48-1.79-3.94-2.2-5.99-3.02-.94-.38-2.13-.89-3.11-2.08l-.37-3.05z"/><path class="st0" d="M323.15 440.33c-1.33-13.02 20.8-26.79 32.89-17.07 4.28 2.9 10.46 9.04 6.94 13.72-5.5 10.17-34.52 9.59-39.83 3.35zM306.38 405.07c2.76-1.8 9.2-9.59 18.63-7.46-1.61-9.31-25.88 6.27-18.63 7.46zM329.82 403.58c-3.42-8.33-19.27 4.76-19.12 5.64-.95 1.4 1.34 2.75 2.22 1.37 1.22-1.81 8.99-8.48 16.9-7.01zM342.89 416.33c-3.74-9.58-26.48 5.11-19.99 7.02 2.81-1.86 10.14-10.47 19.99-7.02zM317.39 417.26c2.75-1.78 9.03-9.4 18.36-7.51-3.03-8.8-25.04 6.3-18.36 7.51z"/></g><path class="st11" d="M351.95 380.59c-1.41-5.57-13.08-28.85-18.27-39.39-6.38-12.94-19.05-39.24-19.63-63.09-.58-23.85 5.36-33.55 11.69-40.77 7.29-8.33 20.79-8.97 26.83 3.33 15.29 31.12 21.19 79.91 23.86 97.59 2.67 17.69 6.42 44.46 6.42 44.46s2.11 7.77 6.48 13.32h-37.38v-15.45z"/><path class="st5" d="M239.04 373.11c20.67 2.55 43.04-10.4 55.24-19.21 14-10.1 32.04-24.16 32.04-24.16l21.44 42.74s8.65 3.79 20.67 1.38c12.02-2.4 14.41-8.52 14.41-8.52s-7.27-49.56-11.04-68.39c-5.72-28.52-9.42-41.66-12.12-49.08-2.69-7.42-9.87-18.16-21.83-18.6-11.96-.44-18.61 4.18-40.27 18.6-14.68 9.77-68.82 61.15-74.4 68.06-5.58 6.91-18.63 52.92 15.86 57.18z"/><path class="st12" d="M357.53 374.44c-.68-2.04-4.69-12.64-5.38-14.67-1.34-3.99-10.23-33.77-11.48-38.28-1.31-4.68-2.45-9.4-3.43-14.16-.88-4.23-1.62-8.5-2.23-12.78-.31-2.18-.59-4.36-.83-6.55-.23-2.14-.33-4.32-.73-6.44-.38-1.95-1.17-3.88-2.74-5.17-1.36-1.13-3.22-1.72-4.95-1.12-1.75.6-2.95 2.07-3.91 3.59-1.2 1.9-2.29 3.88-3.35 5.85-4.38 8.09-8.09 16.51-12.47 24.59-3.86 7.13-8.31 14.03-13.97 19.87-5.31 5.46-11.77 10.08-19.16 12.21-6.85 1.96-14.39 1.94-21.06-.68-3.35-1.31-6.42-3.33-8.88-5.95-1.52-1.61-2.81-3.41-3.94-5.3-.98-1.62-1.85-3.32-2.64-5.03-.83-1.8-1.65-3.61-2.49-5.41-.19-.42-1.04-.44-.84.14 1.39 3.93 2.99 7.91 5.16 11.48 1.98 3.27 4.44 6.2 7.68 8.45 5.84 4.05 13.19 5.5 20.2 4.9 7.5-.64 14.43-3.62 20.44-8.1 6.32-4.71 11.45-10.87 15.74-17.43 4.9-7.49 8.71-15.61 12.65-23.63 2.02-4.1 4.09-8.19 6.35-12.16.98-1.73 1.92-3.71 3.37-5.11 1.41-1.37 3.27-1.49 4.84-.29 1.7 1.29 2.32 3.36 2.63 5.38.33 2.17.46 4.38.71 6.56.49 4.28 1.11 8.54 1.87 12.79 1.28 7.21 2.98 14.38 4.85 21.44a653.35 653.35 0 0 0 11.57 38.91c1.36 4.08 2.73 8.19 4.64 12.04.58.07 1.19.13 1.82.17-.02-.04-.04-.08-.04-.11z"/><path class="st12" d="M319.96 273.73c-6.67 16.2-5.8 38.18 1.27 59.95l5.09-3.94c-8.57-20.41-7.21-43.19-6.36-56.01z"/><path class="st5" d="M209.48 379.5c15.3 3.23 29.51-1.33 40.67-11.43s18.07-28.97 18.07-28.97l15.95 39.56s8.65 3.79 20.67 1.38c12.02-2.4 14.41-8.52 14.41-8.52s-3.66-52.18-6.13-71.23c-3.48-26.85-6.74-42.57-9.43-49.99-2.69-7.42-11.2-16.93-23.16-17.37-11.96-.44-21.84 5.22-34.13 17.86-12.29 12.64-50.74 58.8-56.32 65.71-5.58 6.91-21 30.3-21 30.3s6.39 25.53 40.4 32.7z"/><path class="st4" d="M209.48 379.5c15.3 3.23 29.51-1.33 40.67-11.43s18.07-28.97 18.07-28.97l15.95 39.56s8.65 3.79 20.67 1.38c12.02-2.4 14.41-8.52 14.41-8.52s-3.66-52.18-6.13-71.23c-3.48-26.85-6.74-42.57-9.43-49.99-2.69-7.42-11.2-16.93-23.16-17.37-11.96-.44-21.84 5.22-34.13 17.86-12.29 12.64-50.74 58.8-56.32 65.71-5.58 6.91-21 30.3-21 30.3s6.39 25.53 40.4 32.7z"/><path class="st12" d="M293.57 380.72c-1.99-3.94-3.39-8.17-4.79-12.36a653.35 653.35 0 0 1-11.57-38.91c-1.87-7.06-3.57-14.23-4.85-21.44-.76-4.25-1.38-8.51-1.87-12.79-.25-2.18-.38-4.39-.71-6.56-.31-2.02-.93-4.09-2.63-5.38-1.57-1.2-3.43-1.08-4.84.29-1.45 1.4-2.39 3.38-3.37 5.11-2.26 3.97-4.33 8.06-6.35 12.16-3.94 8.02-7.75 16.14-12.65 23.63-4.29 6.56-9.42 12.72-15.74 17.43-6.01 4.48-12.94 7.46-20.44 8.1-7.01.6-14.36-.85-20.2-4.9-3.24-2.25-5.7-5.18-7.68-8.45-2.17-3.57-3.77-7.55-5.16-11.48-.2-.58.65-.56.84-.14.84 1.8 1.66 3.61 2.49 5.41.79 1.71 1.66 3.41 2.64 5.03 1.13 1.89 2.42 3.69 3.94 5.3 2.46 2.62 5.53 4.64 8.88 5.95 6.67 2.62 14.21 2.64 21.06.68 7.39-2.13 13.85-6.75 19.16-12.21 5.66-5.84 10.11-12.74 13.97-19.87 4.38-8.08 8.09-16.5 12.47-24.59 1.06-1.97 2.15-3.95 3.35-5.85.96-1.52 2.16-2.99 3.91-3.59 1.73-.6 3.59-.01 4.95 1.12 1.57 1.29 2.36 3.22 2.74 5.17.4 2.12.5 4.3.73 6.44.24 2.19.52 4.37.83 6.55.61 4.28 1.35 8.55 2.23 12.78.98 4.76 2.12 9.48 3.43 14.16 1.25 4.51 10.14 34.29 11.48 38.28.69 2.03 4.7 12.63 5.38 14.67.03.09.08.22.14.37l-1.77-.11z"/><path class="st12" d="M256.36 279.92c-6.67 16.2-4.21 41.22 8.24 67.47 2.35-4.79 3.63-8.28 3.63-8.28-8.58-20.42-12.72-46.37-11.87-59.19z"/><g id="XMLID_00000127762339715668186580000013442426477339751090_"><path class="st6" d="M351.96 406.54c.4 7.71 10.09 8.71 14.74 10.62 3.01 1.09 6.34 2.75 9.68 8.25 10.36 13.88 25.65 16.57 44.61 11.78 13.27-3.92 13.83-13.68 8.46-17.5-3.01-.7-77.49-13.15-77.49-13.15z"/><path id="XMLID_00000086651857989821374540000009343280891445374857_" class="st5" d="M351.95 380.59c-1.1.54-1.41 1.26-1.11 3.52.76 5.53-1.53 15.91 1.12 22.43 4.77 8.19 18.41 6.89 23.78 12.84 5.37 5.95 10.58 13.54 26.09 14.88 15.52 1.34 26.51-4.76 28.84-9.39 2.33-4.63-.68-8.42-10.99-12.6-10.94-4.44-26.37-19.55-26.38-19.56-2.01-1.97-3.77-4.13-5.54-6.31-.83-1.02-.98-2.24-1.31-3.52l-1.11-4.36c-.17-.66-.35-1.35-.81-1.86-.57-.64-1.48-.88-2.33-.97-2.13-.22-4.27.29-6.33.87-1.36.39-2.7.81-4.03 1.27-1.89.65-3.81 1.41-5.25 2.79-.62.59-1.14 1.31-1.35 2.14-.15.6-.13 1.22-.09 1.84.14 1.97.52 3.92 1.01 5.84.11.45.15 1.08-.29 1.22-.26.09-.55-.07-.76-.25-1.05-.87-1.56-2.24-2.52-3.22-1.63-1.66-4.1-1.87-6.21-2.52-.97-.3-2.2-.72-3.27-1.82l-1.16-3.26z"/><path class="st0" d="M391.6 431.73c-2.39-12.86 18.54-28.4 31.38-19.7 4.5 2.54 11.16 8.15 8.04 13.1-4.65 10.59-33.62 12.39-39.42 6.6zM372 397.96c2.6-2.02 8.39-10.31 17.96-8.95-2.37-9.15-25.28 8.36-17.96 8.95zM395.24 394.56c-4.09-8.02-18.82 6.32-18.6 7.19-.83 1.48 1.56 2.63 2.33 1.19 1.07-1.91 8.27-9.2 16.27-8.38zM409.31 406.2c-4.52-9.24-25.97 7.26-19.35 8.63 2.64-2.09 9.25-11.27 19.35-8.63zM383.97 409.21c2.59-2 8.23-10.11 17.68-8.98-3.74-8.53-24.44 8.32-17.68 8.98z"/></g></g></g><g id="Doodles"><path class="st5" d="M133.65 102.21c-3.97 1.02-7.69 2.86-11.09 5.13-3.19 2.13-6.24 4.53-9.02 7.18-5.2 4.96-9.71 11.31-10.23 18.7-.13 1.84.14 3.73 1.51 5.08 1.14 1.13 2.76 1.66 4.31 1.86 3.65.46 7.47-.57 10.76-2.1 3.47-1.61 6.61-3.91 9.45-6.45 2.85-2.55 5.59-5.35 7.6-8.62.96-1.57 1.82-3.26 2.3-5.04.22-.84.16-1.75-.59-2.3-.71-.53-1.66-.54-2.51-.49-3.93.25-7.13 3.17-9.82 5.76-2.85 2.74-5.4 5.78-7.6 9.06a54.469 54.469 0 0 0-3.07 5.14c-.93 1.8-1.74 3.77-1.85 5.82-.2 3.76 2.33 6.81 5.8 8 3.86 1.33 8.26.44 11.98-.95 3.54-1.32 6.83-3.34 9.58-5.94 2.65-2.51 5.01-5.68 5.44-9.4.18-1.56-.13-3.52-1.89-4.01-1.81-.5-3.36 1-4.55 2.13-2.5 2.37-5.31 5.27-5.64 8.89-.26 2.82 1.1 6.11 3.87 7.19 3.48 1.36 6.66-1.41 8.47-4.12.98-1.48 1.82-3.24 1.28-5.03-.12-.4-.68-.57-1.02-.33-1.83 1.29-3.03 3.41-3.17 5.65-.06 1.02.04 2.2.77 2.98.82.88 2.2 1.07 3.34 1.08 2.44.02 4.73-1.18 6.47-2.81.94-.88 1.74-1.89 2.46-2.96.69-1.02 1.38-2.08 1.88-3.2.47-1.05.7-2.24.28-3.35-.36-.95-1.14-1.74-2.17-1.91-2.33-.4-4.12 2.01-4.8 3.93-.76 2.14-.92 4.7-.62 6.94.29 2.2 1.62 3.94 3.65 4.82 2.14.92 4.59.72 6.59-.45 2.26-1.33 3.52-3.5 4.28-5.93.14-.45-.68-.94-.84-.44-1.01 3.22-3.94 6.55-7.56 6.41-1.61-.06-3.27-.79-4.19-2.15-1.13-1.68-.97-4.05-.78-5.97.17-1.77.62-3.63 1.84-4.99.62-.69 1.76-1.58 2.74-1.06.8.42 1.01 1.52.91 2.33-.14 1.08-.74 2.06-1.29 2.98-.53.89-1.1 1.76-1.74 2.58-1.27 1.64-2.85 3.08-4.83 3.8-1.08.39-2.24.57-3.37.38-.55-.09-1.18-.24-1.51-.74-.3-.45-.34-1.08-.35-1.61-.02-2.19 1.08-4.25 2.88-5.48l-1.02-.33c.51 1.81-.73 3.65-1.79 5.02-.97 1.26-2.21 2.51-3.76 3-2.83.89-4.93-1.54-5.43-4.1-.61-3.14 1.2-5.97 3.23-8.2 1.06-1.16 2.24-2.47 3.56-3.34.58-.38 1.43-.79 2-.16.51.57.49 1.5.43 2.22-.29 3.37-2.44 6.32-4.8 8.6-2.4 2.33-5.25 4.22-8.34 5.5-3.24 1.34-7.01 2.32-10.52 1.66-3.08-.58-5.93-2.85-6.18-6.13-.14-1.86.5-3.71 1.28-5.37.74-1.57 1.62-3.07 2.54-4.54a54.53 54.53 0 0 1 6.44-8.3c1.23-1.3 2.51-2.55 3.87-3.71 1.27-1.08 2.62-2.11 4.16-2.78.73-.32 4.22-1.49 4.13.1-.04.76-.47 1.59-.76 2.28-.32.75-.69 1.48-1.1 2.19-1.68 2.93-4.02 5.46-6.47 7.76-2.49 2.34-5.18 4.52-8.17 6.2-2.91 1.64-6.13 2.84-9.49 3.04-2.72.17-6.23-.43-6.79-3.62-.27-1.55.03-3.29.37-4.81.35-1.56.89-3.08 1.56-4.53 1.34-2.9 3.24-5.52 5.37-7.89 2.21-2.47 4.71-4.67 7.33-6.7 2.77-2.16 5.69-4.18 8.83-5.76 1.87-.94 3.8-1.74 5.82-2.3.3-.08.36-.44.22-.68-.21-.33-.56-.39-.86-.31z"/><path class="st13" d="M370.31 147.38c-.64 3.38-2.52 6.29-5.21 8.41-6.07 4.8-14.08 4.69-21.41 4.34-1.55-.07-3.14-.08-4.63.42-1.49.5-2.49 1.57-3.19 2.94-.73 1.44-1.3 3.03-2.87 3.77-1.47.69-3.23.52-4.79.29-2.73-.42-6.27-1.29-8.56.84-1.23 1.16-1.43 2.84-2.28 4.22-.73 1.22-2.05 1.96-3.42 2.24-.5.11-1.02.14-1.53.12 1.41-.39 2.45-1.43 3.11-2.71 1.5-2.91 1.07-6.94 3.59-9.3 1.14-1.08 2.71-1.48 4.19-1.84 1.5-.37 3.05-.73 4.38-1.57 3.41-2.14-.66-6.52-2.46-8.34-2.5-2.53-4.91-5.07-6.49-8.32-1.49-3.06-2.18-6.59-1.6-9.97 1.2-7.12 8.87-10.89 15.26-12.32 7.09-1.57 14.55-.72 21.14 2.28 3.21 1.46 6.21 3.42 8.87 5.73 2.65 2.3 4.95 5.04 6.44 8.23 1.51 3.26 2.12 7.01 1.46 10.54z"/><path class="st5" d="M371.5 143.12c-.53-7.16-5.26-13.04-10.82-17.17-5.89-4.38-13.02-6.97-20.37-7.13-7.06-.15-14.69 1.78-20.06 6.56-1.27 1.13-2.37 2.41-3.14 3.95-.73 1.46-1.15 3.09-1.28 4.72-.28 3.44.57 6.93 2.19 9.95.83 1.55 1.84 3.01 2.97 4.35 1.15 1.38 2.46 2.6 3.71 3.88 1.22 1.26 2.42 2.65 3.01 4.32.14.41.25.88.15 1.29-.12.52-.58.81-1.02 1.07-.68.39-1.42.65-2.18.87-1.5.43-3.05.71-4.49 1.36-1.49.68-2.6 1.83-3.27 3.34-.67 1.52-.9 3.19-1.29 4.8-.38 1.58-.95 3.35-2.31 4.37-.85.64-2.19 1.04-3.25.69-.04-.01-.08-.04-.11-.05a.273.273 0 0 0-.14-.04c-.26-.12-.48-.27-.68-.5-.26-.28-.77-.07-.47.27.34.37.72.65 1.13.83.02.01.04.02.05.03 2.32 1.28 5.54 1.02 7.49-.82 1.21-1.14 1.46-2.78 2.28-4.16.87-1.46 2.41-2.02 4.04-2.07 3.12-.08 6.31 1.43 9.39.34 1.55-.56 2.45-1.75 3.15-3.19.73-1.51 1.42-2.95 3.08-3.61 1.52-.6 3.26-.51 4.87-.42 2.04.11 4.1.2 6.14.16 3.78-.09 7.58-.6 11.08-2.1 3.01-1.28 5.77-3.28 7.65-5.98 2.01-2.91 2.75-6.45 2.5-9.91zm-1.19 4.26c-.64 3.38-2.52 6.29-5.21 8.41-6.07 4.8-14.08 4.69-21.41 4.34-1.55-.07-3.14-.08-4.63.42-1.49.5-2.49 1.57-3.19 2.94-.73 1.44-1.3 3.03-2.87 3.77-1.47.69-3.23.52-4.79.29-2.73-.42-6.27-1.29-8.56.84-1.23 1.16-1.43 2.84-2.28 4.22-.73 1.22-2.05 1.96-3.42 2.24-.5.11-1.02.14-1.53.12 1.41-.39 2.45-1.43 3.11-2.71 1.5-2.91 1.07-6.94 3.59-9.3 1.14-1.08 2.71-1.48 4.19-1.84 1.5-.37 3.05-.73 4.38-1.57 3.41-2.14-.66-6.52-2.46-8.34-2.5-2.53-4.91-5.07-6.49-8.32-1.49-3.06-2.18-6.59-1.6-9.97 1.2-7.12 8.87-10.89 15.26-12.32 7.09-1.57 14.55-.72 21.14 2.28 3.21 1.46 6.21 3.42 8.87 5.73 2.65 2.3 4.95 5.04 6.44 8.23 1.51 3.26 2.12 7.01 1.46 10.54z"/><path class="st5" d="M337.05 129.83c.93 1.8 2.33 3.4 3.52 5.04 1.12 1.55 2.26 3.08 3.37 4.64 1.08 1.5 2.15 3.02 3.2 4.54 1.08 1.56 2.1 3.18 3.23 4.7.13.17.38.23.58.19 1.13-.22.19-1.37-.17-1.89-.57-.83-1.14-1.67-1.71-2.5-1.2-1.73-2.41-3.45-3.64-5.16a275.1 275.1 0 0 0-3.56-4.87c-1.3-1.73-2.57-3.59-4.13-5.08-.3-.3-.93-.07-.69.39z"/><path class="st5" d="M354.93 133.32c-4.15 1.31-8.26 2.67-12.37 4.08-2.04.7-4.07 1.42-6.1 2.13-1.02.36-2.03.71-3.05 1.07-.92.32-2.41.57-3.03 1.38-.09.11-.02.31.08.39.63.53 1.8-.1 2.46-.33 1.02-.36 2.03-.71 3.05-1.07 2.07-.72 4.14-1.44 6.21-2.17 2.15-.76 4.29-1.52 6.44-2.28 2.26-.8 4.47-1.72 6.71-2.56.42-.15-.06-.74-.4-.64z"/><path class="st13" d="M136.87 239.41c-.31 1-.88 1.91-1.71 2.63-1.93 1.66-4.87 2.08-7.34 1.96h-.04c-4.05-.31-8.36-3.26-8.78-7.54-.09-.91.1-1.82-.02-2.73-.1-.74-.37-1.45-.84-2.04-1.15-1.47-3.13-2.11-4.91-2.39-2.31-.37-4.69-.42-7.02-.47-2.51-.05-5.02-.02-7.52-.04-4.49-.03-9.01-.2-13.4-1.25-3.66-.88-7.25-2.37-10.22-4.73-3.12-2.5-5.22-6.04-6.58-9.76-2.79-7.65-2.27-16.15 1.02-23.55 3.14-7.07 8.59-13.02 15.06-17.19 7.04-4.53 16.23-7.44 24.37-4.15 7.37 2.99 12.64 10.01 15.41 17.26 1.55 4.05 2.37 8.44 1.95 12.78-.21 2.16-.74 4.24-1.54 6.26-.82 2.08-1.84 4.09-2.59 6.2-1.18 3.32-1.63 7.3.33 10.44.46.74 1.04 1.39 1.73 1.91.74.57 1.61.91 2.43 1.34.83.43 1.59.97 1.93 1.87.33.87.19 1.85-.07 2.71-.55 1.88-1.78 3.44-2.45 5.27-.56 1.56-.9 3.41-.01 4.92.93 1.59 2.92 2.12 4.64 2.24 1.71.13 3.5-.23 5-1.08.42-.24.82-.53 1.17-.87z"/><path class="st5" d="M137.22 236.7c-1.03 3.39-5.6 4.19-8.5 2.93-4.27-1.87.13-7.36 1.02-9.96.61-1.76.77-3.8-.58-5.26-1.28-1.39-3.3-1.67-4.61-3.02-2.63-2.72-2.21-7.04-1.04-10.31.75-2.12 1.77-4.12 2.6-6.21.8-2.01 1.36-4.11 1.59-6.27.46-4.35-.25-8.78-1.72-12.88-2.63-7.37-7.78-14.52-14.95-18.01-7.95-3.87-17.12-1.97-24.57 2.14-6.74 3.72-12.58 9.24-16.39 15.95-3.91 6.89-5.47 14.89-3.97 22.71.77 4.03 2.33 7.93 4.72 11.27 2.24 3.13 5.48 5.4 8.99 6.91 8.3 3.59 17.44 2.89 26.27 3.05 2.45.04 4.98.06 7.4.52 1.71.32 3.78 1.09 4.32 2.95.25.88.07 1.78.09 2.67.03.98.23 1.95.61 2.84.76 1.8 2.13 3.22 3.77 4.23 1.72 1.07 3.7 1.72 5.72 1.85h.04c1.68.09 3.26.11 4.88-.4 1.16-.35 2.27-.9 3.18-1.71 1.68-1.5 2.41-3.66 2.34-5.88-.02-.63-1.04-.67-1.21-.11zm-2.06 5.34c-1.93 1.66-4.87 2.08-7.34 1.96h-.04c-4.05-.31-8.36-3.26-8.78-7.54-.09-.91.1-1.82-.02-2.73-.1-.74-.37-1.45-.84-2.04-1.15-1.47-3.13-2.11-4.91-2.39-2.31-.37-4.69-.42-7.02-.47-2.51-.05-5.02-.02-7.52-.04-4.49-.03-9.01-.2-13.4-1.25-3.66-.88-7.25-2.37-10.22-4.73-3.12-2.5-5.22-6.04-6.58-9.76-2.79-7.65-2.27-16.15 1.02-23.55 3.14-7.07 8.59-13.02 15.06-17.19 7.04-4.53 16.23-7.44 24.37-4.15 7.37 2.99 12.64 10.01 15.41 17.26 1.55 4.05 2.37 8.44 1.95 12.78-.21 2.16-.74 4.24-1.54 6.26-.82 2.08-1.84 4.09-2.59 6.2-1.18 3.32-1.63 7.3.33 10.44.46.74 1.04 1.39 1.73 1.91.74.57 1.61.91 2.43 1.34.83.43 1.59.97 1.93 1.87.33.87.19 1.85-.07 2.71-.55 1.88-1.78 3.44-2.45 5.27-.56 1.56-.9 3.41-.01 4.92.93 1.59 2.92 2.12 4.64 2.24 1.71.13 3.5-.23 5-1.08.42-.24.82-.53 1.17-.87-.31 1-.88 1.91-1.71 2.63z"/><path class="st5" d="M78.25 197.98c4.78.58 9.61.77 14.41 1.11 4.8.33 9.6.63 14.39.93l8.23.51c.91.06 1.08-1.34.12-1.4-9.58-.57-19.16-1.16-28.75-1.64-2.83-.14-5.67-.32-8.51-.33-.57 0-.36.76.11.82z"/><path class="st5" d="M101.11 180.26c-.51 1.15-.76 2.46-1.07 3.67-.3 1.17-.61 2.35-.91 3.52-.62 2.39-1.24 4.78-1.85 7.17-1.22 4.72-2.42 9.44-3.63 14.17-.69 2.7-1.38 5.41-2.08 8.11-.15.6.97.74 1.13.13 2.42-9.47 4.85-18.93 7.25-28.4.34-1.33.67-2.65 1.01-3.98.34-1.35.82-2.77.92-4.16.02-.36-.61-.6-.77-.23zM356.49 172.77c-.99.45-1.73 1.35-2.5 2.11-.81.81-1.61 1.62-2.39 2.45a108.29 108.29 0 0 0-4.62 5.19c-2.91 3.48-5.62 7.13-8.1 10.93-.7 1.08-1.39 2.16-2.06 3.26-.7 1.14-1.58 2.32-1.96 3.61-.24.79.8 1.09 1.28.61.8-.8 1.3-2.01 1.89-2.98.6-1 1.22-1.99 1.85-2.96 1.19-1.84 2.44-3.65 3.73-5.42a119.184 119.184 0 0 1 10.86-12.85c.95-.98 2.12-1.9 2.84-3.07.32-.53-.31-1.11-.82-.88zM333.17 206.33c-.67-.51-1.73-.07-1.93.71-.18.71.17 1.46.75 1.88.63.46 1.46.56 2.14.15.58-.35.99-1.06.78-1.75a1.53 1.53 0 0 0-.69-.85c-.19-.11-.4-.16-.61-.18-.18-.02-.39-.03-.56.05-.15.08-.29.15-.32.33-.05.22.16.44.37.45.05 0 .09.01.14.01-.07-.01-.13-.02-.2-.04.08.02.15.06.23.08.05 0 .1.01.14.01-.08-.01-.1-.01-.06 0 .02.01.04.01.07.01.08.01-.14-.04-.03-.01.08.03-.03-.01-.03-.01l.06.04c.05.03.1.05.14.08.02.01.04.03.05.04-.01 0-.11-.09-.04-.03.03.03.06.05.09.08.01.01.08.09.02.02-.05-.06-.01-.01 0 .01.03.04.05.09.08.13.04.05-.03-.1-.02-.04 0 .02.01.04.02.06.01.02.01.05.02.07.02.07-.01-.04 0-.03.01.01 0 .12 0 .14 0 .02-.01.05-.01.07-.01.11.03-.11 0 0-.01.04-.03.09-.05.13-.01.01-.03.11-.01.03.02-.07 0-.01-.01.02-.03.04-.06.09-.09.13l-.05.05c.02-.04.07-.07.01-.01-.04.04-.08.07-.12.1-.04.03-.07.02.03-.02l-.06.03c-.03.01-.11.03-.13.05.04-.05.12-.03.03-.01-.03.01-.06.01-.09.02-.12.03.12 0 .03 0h-.14c-.08-.01-.05-.04.03.01-.03-.02-.1-.02-.14-.03-.02-.01-.04-.01-.07-.02-.12-.04.12.06.01 0-.04-.02-.08-.04-.13-.07.01 0-.06-.04-.06-.04.01-.01.1.08.03.02-.04-.03-.08-.07-.12-.11l-.05-.05c-.01-.01-.02-.03-.04-.04.05.06.06.07.03.04-.06-.08-.12-.17-.16-.26-.04-.07.02.01.01.02 0 0-.02-.06-.03-.07-.02-.06-.04-.13-.05-.19-.03-.11.01.02 0 .02s-.01-.11-.01-.12v-.08c0-.01.02-.12 0-.05.01-.02.01-.05.02-.07 0 0 .05-.1.02-.05.01-.02.02-.03.04-.05.05-.07-.06.03.01-.01.02-.01.03-.02.05-.04-.05.04-.03.02.02 0s.05.02-.05.01c.02 0 .06-.01.08-.01.07-.02-.15-.01-.05 0 .02 0 .12.02.01 0-.12-.02 0 .01.01.01-.04 0-.12-.07-.03 0 .22.16.62.13.8-.09.2-.25.1-.51-.13-.68zM46.61 123.79c.21 1.17.98 2.26 1.55 3.29.56 1 1.13 2 1.71 2.99 1.15 1.94 2.36 3.85 3.62 5.72 2.5 3.69 5.21 7.24 8.11 10.61.82.95 1.65 1.89 2.49 2.81.47.52.95 1.03 1.43 1.54.48.5.94 1.11 1.56 1.42.67.34 1.36-.46 1.02-1.08-.27-.5-.71-.88-1.1-1.29a102.163 102.163 0 0 1-3.42-3.74c-1.48-1.69-2.9-3.42-4.28-5.2a119.23 119.23 0 0 1-7.62-11.06c-.66-1.09-1.31-2.2-1.94-3.31-.31-.54-.61-1.08-.9-1.63-.31-.57-.58-1.2-1.08-1.63-.36-.33-1.25 0-1.15.56zM72.36 155.52c-.33.25-.47.62-.42 1.03.05.37.29.68.6.88.64.41 1.51.28 2.12-.11.51-.33.89-.94.84-1.56-.06-.7-.52-1.3-1.2-1.51-.38-.12-.82-.08-1.17.11-.4.21-.77.6-.76 1.08 0 .16.15.32.29.39l.06.03c-.1-.11-.19-.23-.29-.34.07.2.16.35.32.49.08.07.26.13.35.04.2-.22.23-.32.34-.52.04-.07.08-.12.13-.17l.01-.01c.02-.02.04-.03.05-.05.02-.01.04-.03.05-.04.01-.01.03-.02.04-.03.04-.02.02-.01-.05.03.01.01.11-.05.12-.06.09-.04-.03.01-.05.01.02 0 .05-.01.07-.02.02 0 .13-.01.02-.01-.1.01-.02 0 .01 0h.07c.06 0-.15-.04-.03 0 .02.01.04.01.06.02.07.01-.11-.06-.05-.02.04.03.09.05.13.07.06.03-.01.03-.04-.03 0 .01.04.03.05.04.03.02.08.11.12.12-.04-.01-.07-.08-.03-.03.01.02.03.04.04.05.03.04.05.09.07.13.03.06-.04-.1-.01-.03.01.03.02.05.03.08.02.05.03.1.04.14.02.09-.02.01 0-.02v.2c0 .02-.01.04-.01.07-.01.1 0-.03.01-.03.01.01-.04.15-.05.17-.01.03-.02.05-.03.08-.02.03-.05.05-.01.02.05-.04.01-.01-.01.02-.02.02-.03.05-.05.07-.03.04-.06.07-.09.11-.04.04-.04.01.02-.02-.03.01-.06.05-.08.07-.04.03-.07.06-.11.08-.07.06.02-.01.03-.02l-.06.03c-.05.02-.09.05-.14.07-.02.01-.04.02-.07.02-.05.02.14-.04.01-.01-.05.01-.1.02-.16.03-.07.01-.02-.03.05 0-.01-.01-.06 0-.07 0-.04 0-.12-.02-.15-.01.04-.02.13.03.05.01l-.11-.03s-.06-.03-.07-.02c.08.03.1.04.06.02-.02-.01-.03-.01-.05-.02l-.06-.03c-.1-.05.08.08 0 0l-.05-.05c-.08-.08.05.09.01.01-.01-.02-.02-.04-.03-.05-.05-.08.02.1 0 .01 0-.02-.01-.04-.02-.06 0-.01 0-.02-.01-.03-.01-.05-.01-.04 0 .04.01-.01.01-.12.01-.14 0-.06-.05.11-.01.03.01-.02.02-.05.03-.07.02-.05-.08.09-.01.02.03-.03.1-.09-.01 0 .1-.08.19-.18.2-.32a.488.488 0 0 0-.13-.36c-.16-.2-.53-.27-.76-.09zM166.31 64.32c-3.86-3.27-9.37-3.67-13.73-1.11-2.28 1.34-4.27 3.44-5.02 6.03-.67 2.33-.21 5.23 2.29 6.21.56.22 1.12-.43.48-.74-2.11-1.04-1.91-4.32-1.07-6.13 1.03-2.21 3-3.87 5.22-4.81 2.29-.97 4.93-1.13 7.3-.34 2.39.81 4.42 2.55 5.76 4.66 1.42 2.24 2.08 4.94 1.68 7.58-.44 2.88-2.08 5.12-4.59 6.56-2.63 1.51-5.63 2.33-8.09 4.16-2.12 1.58-3.96 4.26-3.44 7.03.54 2.9 3.72 5.28 6.51 3.45 1.12-.73 1.9-2.09 1.46-3.44-.48-1.47-2.04-2.26-3.48-1.71-.23.09-.27.38-.16.57.13.24.42.29.66.25.58-.08 1.18.4 1.46.87.42.7.27 1.48-.32 2.04-.96.92-2.38.68-3.32-.13-2.14-1.85-1.31-4.83.36-6.66 2.03-2.23 5.12-3.09 7.75-4.38 2.58-1.27 4.84-3.01 5.99-5.73 2.1-4.93.32-10.83-3.7-14.23zM158.9 105.83c-.05-.19-.13-.35-.25-.51-.03-.04-.06-.08-.1-.12-.11-.12-.22-.16-.37-.2-.18-.05-.31-.11-.5-.09-.06.01-.15.05-.17.12-.12.37.03.49.14.72.01.01.01.03.02.04.02.09.05.18.07.27 0 .02.01.04.01.05v-.02V106.21c0 .04 0 .08-.01.12 0 .02-.01.04-.01.06-.01.07-.04.07.01-.01-.04.07-.05.17-.09.25 0 .01-.01.02-.01.02-.03.04-.05.08-.08.11 0 .01-.01.01-.02.02-.03.02-.05.04-.08.06.01 0 .01-.01.03-.01 0 0-.02.01-.03.01-.01 0-.01.01-.02.01-.01.01-.01 0-.01 0h-.01c-.02.01-.04.02-.06.02-.04.01-.07.01-.11.02h-.01c-.04 0-.09-.01-.13-.01-.01 0-.03-.01-.04-.01-.05-.01-.09-.03-.14-.04-.02-.01-.03-.02-.05-.03-.05-.02-.09-.05-.13-.08-.01 0-.01-.01-.01-.01-.02-.02-.04-.03-.06-.05l-.1-.1s-.01-.02-.02-.03c-.02-.04-.05-.07-.07-.11l-.03-.06-.01-.01v-.02c-.01-.04-.03-.09-.03-.13 0-.03-.01-.05-.01-.08v-.14c0-.03.01-.06.01-.09v-.02c0-.01.01-.04.01-.05.01-.04.02-.07.04-.11.02-.05.04-.1.07-.15.01-.01.02-.05.04-.06 0-.01.01-.01.01-.02l.12-.15c.09-.1.19-.19.3-.26.04-.03.09-.05.14-.07.08-.03.14-.08.21-.12.02 0 .04-.01.06-.01.21-.03.32-.22.25-.42-.07-.19-.24-.28-.43-.31a.98.98 0 0 0-.51 0c-.1.03-.19.06-.28.1-.15.06-.29.14-.42.24-.28.21-.5.5-.65.81-.29.65-.16 1.35.29 1.88.43.51 1.12.77 1.78.7.62-.06 1.18-.49 1.38-1.09.12-.25.15-.61.07-.95z"/><path class="st5" d="M157.47 106.86c-.03.01-.04.02-.03.02 0-.01.01-.02.03-.02-.01 0-.01 0 0 0zM157.75 106.12v.03-.03zM410.45 201.16c.62-6.37-2.86-12.67-8.22-16.03-5.64-3.53-12.99-3.94-19.17-1.64-5.98 2.22-11.05 7.06-12.18 13.52-.55 3.17-.17 6.47 1.37 9.32 1.49 2.76 3.95 4.86 6.61 6.44 2.57 1.53 5.51 2.88 8.54 3.1 2.83.21 5.79-1.06 6.71-3.92.84-2.61-.16-5.48-1.66-7.65-1.73-2.5-4.49-4.08-7.42-4.74-2.94-.66-6.24-.45-8.92 1.02-2.47 1.36-4.17 3.69-5.33 6.21-1.43 3.11-2 6.72-.96 10.03.87 2.76 2.95 5.34 5.73 6.32 1.32.47 2.96.53 4.15-.32 1.15-.82 1.45-2.26.96-3.54-1.04-2.72-4.17-3.88-6.88-3.72-2.63.15-5.31 1.5-6.46 3.96-1.02 2.2-.54 4.94 1.01 6.77.81.96 1.91 1.58 3.14 1.83.68.13.85-.76.17-.89-2.19-.43-3.5-2.73-3.63-4.82-.15-2.34 1.23-4.3 3.34-5.23 2.14-.95 5.08-.85 6.9.74.82.72 1.69 1.97 1.33 3.12-.42 1.35-2 1.36-3.12 1.04-2.5-.72-4.36-3.07-5.19-5.44-1.02-2.88-.59-6.11.58-8.87.94-2.23 2.32-4.38 4.37-5.73 2.2-1.44 5.02-1.73 7.57-1.34 2.6.4 5.21 1.64 6.91 3.68 1.47 1.77 2.59 4.25 2.2 6.59-.45 2.65-2.96 3.69-5.4 3.51-2.75-.21-5.44-1.53-7.77-2.91-2.33-1.38-4.47-3.19-5.87-5.53-1.46-2.44-1.95-5.32-1.6-8.13.69-5.65 4.72-10.09 9.75-12.44 5.19-2.42 11.47-2.64 16.79-.5 5.2 2.09 9.33 6.72 10.4 12.28.25 1.28.32 2.59.22 3.89-.04.52.98.61 1.03.02zM101.23 297.39c-5.09 4.02-12.57 4.62-17.99.89-5.3-3.65-7.77-10.64-5.92-16.79 1.86-6.19 6.87-10.97 12.87-13.17 5.8-2.12 13.03-1.75 17.96 2.27 2.52 2.06 4.15 5.05 4.11 8.35-.04 3-1.59 5.84-4.48 6.93-2.62.99-5.71.46-7.31-1.99-1.79-2.73-1.19-6.3.54-8.89 1.9-2.83 5.02-4.94 8.16-6.15 3.19-1.23 6.86-1.63 10.11-.39 2.8 1.06 5.31 3.23 6.41 6.06.51 1.31.74 2.72.39 4.1-.29 1.15-.99 2.5-2.24 2.81-1.56.39-2.83-1-3.49-2.24-.66-1.24-.93-2.7-.88-4.1.09-2.85 1.47-5.68 3.8-7.36 2.32-1.67 5.43-1.86 8.08-.94 2.77.96 5.62 3.59 5.57 6.73-.03 1.6-1.13 3.4-2.88 3.45-.72.02-.52.95.14.93 1.78-.06 3.31-1.31 3.83-3 .58-1.86-.06-3.91-1.13-5.46-1.86-2.7-5.06-4.26-8.31-4.38-3.3-.12-6.42 1.35-8.37 4.03-1.9 2.61-2.62 6.15-1.65 9.26.5 1.61 1.48 3.23 3.04 4 1.41.69 3.06.43 4.22-.62 2.49-2.27 2.09-6.13.64-8.83-1.62-3.02-4.69-5.19-7.98-6.01-3.91-.98-8.09-.1-11.64 1.69-3.35 1.7-6.54 4.32-8.04 7.85-1.35 3.17-.94 7.31 1.79 9.63 2.41 2.05 6.02 1.96 8.71.51 3.1-1.66 4.59-5.16 4.32-8.58-.62-7.89-8.74-12.04-15.9-12.12-6.96-.07-13.9 3.24-18.19 8.73-2.35 3.02-4 6.8-4.12 10.66-.11 3.5.97 6.99 2.97 9.87 2.01 2.88 4.91 5.11 8.3 6.11 3.51 1.03 7.36.88 10.77-.45 1.64-.64 3.17-1.53 4.48-2.7.42-.4-.28-1.01-.69-.69zM230.17 20.55c-4.7-3.95-11.14-.88-14.38 3.42-1.53 2.03-2.66 4.58-2.33 7.17.37 2.9 2.71 4.84 5.33 5.77.95.34 1.93.58 2.93.75 1.17.19 2.28.43 3.48.37 2.26-.1 4.47-.93 6.27-2.3 3.65-2.76 5.63-7.49 4.57-12.01-.49-2.09-2.38-3.95-4.06-5.17-1.85-1.34-4-2.23-6.2-2.8-4.59-1.18-9.51-.97-13.66 1.47a16.935 16.935 0 0 0-5.23 4.81c-1.37 1.93-2.33 4.17-3.11 6.4-1.35 3.87-1.69 8.14-.63 12.13.96 3.6 3.09 6.9 6.24 8.95 3.54 2.31 7.85 2.78 11.95 2.04 2.6-.47 5.04-1.26 7.17-2.89 1.99-1.52 3.71-3.63 4.31-6.11.62-2.55.05-5.29-1.33-7.5-1.49-2.38-3.84-3.99-6.27-5.31-5.32-2.88-11.44-4.01-17.43-3.15-2.73.39-5.42 1.11-7.83 2.47-2.25 1.27-4.23 3.02-5.82 5.04-3.44 4.35-5.39 10.28-4.09 15.79 1.14 4.86 5.01 8.5 9.63 10.13 3.31 1.17 6.91 1.31 10.38.97 3.64-.35 7.33-1.23 10.56-2.99 2.86-1.56 5.37-3.97 6.06-7.26.35-1.67.28-3.39-.57-4.89-.93-1.64-2.38-2.97-3.93-4.02-3.36-2.29-7.61-3.76-11.7-3.7-.9.01-1.82.12-2.69.35-.98.26-1.74.73-2.46 1.45-1.39 1.39-2 3.3-1.83 5.25.17 2.02 1.09 3.93 2.3 5.54.65.86 1.4 1.64 2.23 2.32.85.69 1.78 1.17 2.73 1.7 4.72 2.59 10.12 3.95 15.52 3.44 5.2-.49 10.69-2.76 13.46-7.41 1.22-2.05 1.72-4.54.92-6.83-.5-1.42-1.4-2.64-2.55-3.61-2.13-1.79-5.16-2.73-7.94-2.4-2.57.3-4.85 1.84-5.15 4.57-.38 3.44 1.8 6.94 4.41 8.99 2.75 2.16 6.34 3.13 9.8 3.05 3.45-.08 6.94-1.2 9.59-3.44 2.84-2.41 4.4-6.1 4.06-9.82-.73-7.98-9.54-15.68-17.69-13.6-1.09.28-1.97.71-2.84 1.44-.81.69-1.53 1.48-2.1 2.37-.95 1.49-1.45 3.25-1.33 5.02.25 3.65 2.91 6.68 6.29 7.9 2.04.74 4.24.83 6.38.59 1.96-.22 3.92-.81 5.55-1.95 2.94-2.07 4.23-5.58 3.83-9.1-.51-4.48-3.57-8.04-6.67-11.08-3.81-3.73-8.51-6.81-13.82-7.81-4.66-.87-9.77.18-13.9 2.45-4.06 2.23-7.22 5.93-8.11 10.54-.77 4-.37 8.83 2.9 11.67 1.75 1.51 4.12 2.07 6.34 2.51 1.94.38 3.95.55 5.92.32 3.22-.37 6.25-1.87 7.95-4.72 1.94-3.25 1.81-7.31 1.01-10.88-.25-1.14-.52-2.38-1.04-3.43-.49-1-1.08-1.94-1.75-2.83-1.3-1.73-2.9-3.22-4.67-4.46-3.7-2.59-8.12-4.09-12.56-4.74-2.19-.32-4.43-.43-6.64-.33-1.1.05-2.19.15-3.28.32-1.07.16-2.05.49-3.04.93-3.91 1.73-7.29 4.67-9.68 8.21-2.3 3.41-3.78 7.54-3.37 11.7.2 2.02.85 3.98 1.92 5.7 1.27 2.04 3.08 3.62 4.9 5.15 7.83 6.58 18.78 10.03 28.93 8.24 2.36-.42 4.76-1.06 6.88-2.21 1.83-.99 3.44-2.39 4.71-4.04 2.52-3.28 3.72-7.5 3.55-11.61-.09-2.09-.52-4.18-1.32-6.12-.89-2.15-2.28-3.96-4-5.52-3.7-3.36-8.63-5.35-13.6-5.67-4.44-.29-8.97.74-12.45 3.61-3.1 2.55-5.14 6.25-5.69 10.22-.58 4.2.65 8.54 3.34 11.81 2.93 3.56 6.94 6.13 11.26 7.66 4.35 1.55 9.07 2.1 13.66 1.67 2.32-.22 4.63-.69 6.84-1.44 1.03-.35 2.03-.76 3.01-1.23 1.06-.51 2.04-1.24 2.96-1.96 7.08-5.54 12.02-15.21 9.41-24.25-.66-2.28-1.78-4.39-3.24-6.25-1.45-1.84-3.55-3.27-5.55-4.44-4.26-2.51-9.17-4.02-14.11-4.29-4.69-.26-9.71.53-13.74 3.07A16.813 16.813 0 0 0 207 20.1c-1.09 3.89-.85 8.13.65 11.88.75 1.89 1.8 3.65 3.12 5.2 1.51 1.78 3.43 3.2 5.33 4.54 4.5 3.18 9.93 5.31 15.51 5.07 4.38-.19 8.81-2.36 11.7-5.64 1.36-1.54 2.39-3.41 2.75-5.45.19-1.04.18-2.1.01-3.14-.17-1.02-.5-2.38-1.22-3.17-1.77-1.95-3.88-3.68-6.08-5.12-2.25-1.46-4.72-2.63-7.36-3.18-2.43-.5-5.25-.49-7.49.69-1.82.96-3.29 2.51-4.33 4.27-2.1 3.56-2.78 8.33-.78 12.09 1.8 3.37 6.12 4.27 9.38 2.6 3.35-1.73 5.01-5.61 3.81-9.2-.16-.48-1.16-.54-.97.03 1.18 3.51-.6 7.32-4.05 8.7-1.57.63-3.36.65-4.89-.13-1.8-.93-2.77-2.64-3.19-4.57-.85-3.84.49-8.19 3.13-11.06 1.49-1.61 3.31-2.55 5.5-2.77 2.54-.26 5.07.37 7.37 1.4 2.36 1.05 4.54 2.54 6.51 4.22.9.77 1.96 1.61 2.69 2.56.62.81.89 2.1 1.01 3.1.49 4.09-2.17 7.72-5.37 9.95-1.71 1.2-3.65 2.08-5.68 2.57-2.17.53-4.43.47-6.62.13-2.72-.42-5.33-1.39-7.74-2.71a36.56 36.56 0 0 1-6.22-4.32c-5.82-4.99-7.79-13.65-4.59-20.64 1.7-3.71 4.78-6.57 8.53-8.13 4.22-1.75 8.92-2.06 13.4-1.37 4.51.69 8.91 2.39 12.65 5.02.91.64 1.77 1.33 2.58 2.08.84.78 1.51 1.79 2.09 2.77 1.12 1.87 1.88 3.94 2.22 6.1 1.37 8.62-3.78 17.36-10.67 22.2-3.46 2.43-7.94 3.46-12.1 3.74-4.34.29-8.77-.33-12.84-1.87-4-1.51-7.66-3.96-10.36-7.31-2.47-3.06-3.47-7.17-2.93-11.04.52-3.73 2.48-7.24 5.39-9.63 3.29-2.7 7.53-3.69 11.73-3.42 4.63.3 9.22 2.12 12.7 5.21 1.65 1.47 3.02 3.16 3.87 5.21.76 1.82 1.19 3.76 1.29 5.73.19 3.86-.84 7.81-3.11 10.96a14.438 14.438 0 0 1-4.2 3.89c-1.89 1.14-4.07 1.79-6.22 2.24-9.53 2.01-19.87-.92-27.55-6.73-3.41-2.58-6.68-5.59-7.57-9.95-.78-3.78.25-7.7 2.1-11.01 1.97-3.53 4.96-6.55 8.47-8.56.86-.49 1.76-.93 2.69-1.28.94-.36 1.87-.52 2.87-.64 2.06-.24 4.14-.28 6.2-.13 7.93.58 16.96 4.08 20.57 11.71.49 1.04.74 2.26.99 3.38.22 1 .37 2.01.44 3.04.12 1.72.01 3.47-.52 5.12-.9 2.83-3.01 4.94-5.83 5.86-3.55 1.15-7.5.53-10.98-.58-2.04-.65-3.61-1.92-4.57-3.86-.88-1.78-1.13-3.83-1.05-5.8.08-2.07.48-4.14 1.41-6 .97-1.96 2.42-3.68 4.13-5.03 3.44-2.72 7.85-4.12 12.2-4.3 5.06-.2 9.95 2.17 13.84 5.23 1.99 1.56 3.78 3.34 5.41 5.27 1.31 1.56 2.49 3.14 3.19 5.07 1.12 3.07 1.03 6.69-1.02 9.36-2.34 3.05-6.47 3.98-10.14 3.66-3.48-.3-6.83-2.39-7.92-5.83-1.12-3.54.61-7.03 3.49-9.14.76-.56 1.85-.8 2.77-.94.92-.14 1.87-.15 2.8-.03 1.91.24 3.74.97 5.37 1.99 3.33 2.1 6.03 5.48 6.94 9.35.82 3.5-.13 7.21-2.57 9.86-2.17 2.36-5.29 3.71-8.44 4.09-3.19.38-6.58-.15-9.36-1.82-2.78-1.68-4.99-4.6-5.27-7.91-.21-2.49 1.25-4.37 3.66-4.93 2.44-.56 5.19.12 7.22 1.54 1.1.76 2.01 1.77 2.57 2.99.93 1.99.69 4.25-.26 6.18-2.28 4.65-7.62 7.05-12.53 7.64-5.06.61-10.28-.48-14.78-2.84-1.83-.96-3.51-1.95-4.87-3.54-1.26-1.48-2.22-3.29-2.51-5.23-.27-1.89.27-3.76 1.62-5.12.68-.69 1.38-1.06 2.31-1.28.81-.19 1.65-.26 2.49-.26 3.8.02 7.76 1.42 10.85 3.59 1.4.99 2.73 2.21 3.53 3.74.73 1.4.68 3.08.28 4.58-.8 3.02-3.29 5.16-5.97 6.55-3.03 1.57-6.46 2.38-9.84 2.7-3.14.3-6.44.23-9.46-.76-4.43-1.46-8.17-4.8-9.3-9.42-1.28-5.25.55-10.94 3.79-15.13 1.5-1.93 3.33-3.61 5.44-4.86 2.27-1.35 4.79-2.08 7.39-2.49 5.65-.91 11.44.04 16.54 2.63 2.4 1.22 4.87 2.77 6.35 5.09 1.35 2.11 1.93 4.77 1.27 7.22-.65 2.39-2.42 4.44-4.42 5.84-2.06 1.44-4.38 2.12-6.84 2.52-3.77.62-7.76.1-10.94-2.12-2.89-2.01-4.78-5.16-5.6-8.55-.91-3.75-.56-7.74.72-11.36.73-2.07 1.61-4.19 2.86-5.99 1.29-1.85 2.94-3.45 4.86-4.63 3.89-2.4 8.46-2.69 12.84-1.65 2.12.5 4.2 1.33 5.99 2.59 1.64 1.16 3.42 2.9 3.85 4.94.9 4.3-1.13 8.82-4.7 11.28-1.77 1.22-3.86 1.92-6.02 1.89-1.09-.01-2.17-.26-3.24-.47-.88-.18-1.75-.42-2.59-.76-2.31-.95-4.14-2.79-4.21-5.41-.06-2.4 1.13-4.73 2.63-6.53 3.03-3.63 8.59-6.35 12.76-2.91.46.36.85-.2.43-.55z"/><path class="st2" d="M17.55 224.14c0 .21 14.83 14.56 14.83 14.56l12.27-6.56 18.07 25.73s-8.39-21.69-11.27-34.8L41.3 225.5l-7.85-17.92-15.9 16.56z"/><path d="M17.55 224.14c0 .21 14.83 14.56 14.83 14.56l12.27-6.56 18.07 25.73s-8.39-21.69-11.27-34.8L41.3 225.5l-7.85-17.92-15.9 16.56z" style="opacity:.5;fill:#fff"/><path class="st5" d="M19.84 226.53c2.85 3.23 5.91 6.28 8.92 9.36l2.36 2.42c.52.53 1.13 1.02 1.93.88.45-.08.85-.34 1.25-.56.51-.29 1.01-.58 1.52-.86.94-.53 1.88-1.07 2.82-1.6 2.13-1.21 4.26-2.43 6.39-3.64-.3-.06-.59-.13-.88-.19a261.005 261.005 0 0 0 18.06 26.22c.35.44 1.37.17 1.11-.47a241.794 241.794 0 0 1-11.33-35.45c-.07-.31-.54-.4-.79-.32-2.41.75-4.83 1.51-7.24 2.26-.54.17-1.09.36-1.63.51-.35.09-.5.14-.73-.18-.15-.21-.24-.51-.35-.74-.51-1.08-1.01-2.18-1.5-3.27-1.99-4.48-3.78-9.04-5.71-13.54-.19-.44-.8-.4-1.1-.11-2.47 2.46-4.92 4.95-7.32 7.47-2.33 2.45-4.79 4.88-6.86 7.56-.33.43.41.9.75.56 2.47-2.42 4.77-5.02 7.16-7.53 2.39-2.5 4.81-4.96 7.26-7.4-.37-.04-.73-.07-1.1-.11 1.63 3.82 3.19 7.67 4.85 11.48.83 1.91 1.69 3.79 2.57 5.68.33.7.76 1.31 1.62 1.3.93-.02 1.94-.5 2.82-.78 2.3-.72 4.59-1.43 6.89-2.15-.26-.11-.53-.22-.79-.32a237.597 237.597 0 0 0 11.33 35.43c.37-.16.74-.31 1.11-.47-5.08-6.47-9.83-13.18-14.32-20.08-1.28-1.96-2.53-3.95-3.75-5.94-.19-.31-.59-.36-.88-.19-2.22 1.27-4.44 2.54-6.65 3.81-1.07.62-2.14 1.23-3.22 1.85-.45.26-1.34 1.01-1.89.86-.45-.12-.92-.81-1.23-1.12-3.65-3.69-7.22-7.51-11.06-10.99-.32-.3-.69.02-.39.36z"/><path class="st2" d="M346.57 90.53c-.88-1.7-.34-4.01 1.21-5.14s3.91-.94 5.26.43c.91-2.66 2.01-5.47 4.34-7.04 2.33-1.57 6.21-1.06 7.09 1.6.54-4.88 1.12-9.91 3.5-14.21 2.38-4.29 7.06-7.71 11.93-7.08 4.44.57 7.93 4.35 9.49 8.54s1.56 8.78 1.54 13.25c3.13-4.16 9.13-5.68 14.06-3.99 4.93 1.68 8.63 6.21 9.85 11.27 1.22 5.06.11 10.53-2.49 15.04a572.819 572.819 0 0 0-63.41-9.9l-2.37-2.77z"/><path class="st13" d="M346.57 90.53c-.88-1.7-.34-4.01 1.21-5.14s3.91-.94 5.26.43c.91-2.66 2.01-5.47 4.34-7.04 2.33-1.57 6.21-1.06 7.09 1.6.54-4.88 1.12-9.91 3.5-14.21 2.38-4.29 7.06-7.71 11.93-7.08 4.44.57 7.93 4.35 9.49 8.54s1.56 8.78 1.54 13.25c3.13-4.16 9.13-5.68 14.06-3.99 4.93 1.68 8.63 6.21 9.85 11.27 1.22 5.06.11 10.53-2.49 15.04a572.819 572.819 0 0 0-63.41-9.9l-2.37-2.77z" style="opacity:.5"/><path class="st5" d="M348.94 93.73c8.34 1.01 16.67 2.03 24.99 3.24 8.18 1.19 16.33 2.55 24.45 4.09 4.62.88 9.22 1.8 13.82 2.79.29.06.63-.12.77-.37 3.39-5.95 4.28-13.47.95-19.64-2.94-5.42-8.77-9.01-15.01-8.12-3.31.47-6.45 2.11-8.5 4.78.41.1.82.21 1.24.31.02-4.3.01-8.72-1.39-12.84-1.1-3.26-3.2-6.26-6.17-8.06-2.99-1.81-6.6-1.94-9.78-.51-3.33 1.5-5.93 4.32-7.48 7.59-2 4.2-2.54 8.88-3.04 13.46.45-.09.9-.18 1.36-.27-1-2.78-4.5-3.45-7.01-2.46-3.25 1.28-4.68 4.9-5.73 7.95l1.13-.27c-1.64-1.58-4.41-1.79-6.23-.38-1.71 1.32-2.27 3.79-1.32 5.72.31.63 1.51.27 1.19-.4-.71-1.45-.39-3.36.89-4.4 1.32-1.07 3.31-.82 4.49.32.33.32.98.17 1.13-.27.88-2.55 2-5.76 4.62-7.01 1.85-.88 4.74-.53 5.51 1.64.26.74 1.28.39 1.36-.27.77-6.98 1.84-15.2 8.45-19.17 2.8-1.69 6.14-2.02 9.09-.51 2.81 1.44 4.89 4.19 6 7.1 1.6 4.21 1.55 8.78 1.53 13.21 0 .61.91.73 1.23.31 3.38-4.41 9.74-5.55 14.65-3.2 5.39 2.57 8.48 8.45 8.52 14.28.03 3.72-1.07 7.38-2.9 10.6.26-.12.52-.25.77-.37-8.14-1.74-16.32-3.3-24.53-4.68-8.29-1.39-16.6-2.59-24.94-3.59-4.68-.56-9.38-1.05-14.09-1.41-.64-.07-.6.73-.02.81zM361.79 100.34s-.94 1.58-1.01 1.69c-.26.45-.53.89-.81 1.33-.53.84-1.2 1.64-1.59 2.55-.08.19-.09.37.04.55.02.03.04.05.06.08.12.15.28.23.47.18.76-.23 1.29-1.14 1.71-1.77.28-.42.54-.85.8-1.28.31-.51.6-1.03.88-1.55.26-.48.53-.98.68-1.5.09-.29-.22-.56-.47-.61a.756.756 0 0 0-.42.03c-.06.01-.4.25-.34.3zM368.99 110.53s-.94 1.58-1.01 1.69c-.26.45-.53.89-.81 1.33-.53.84-1.2 1.64-1.59 2.55-.08.19-.09.37.04.55.02.03.04.05.06.08.12.15.28.23.47.18.76-.23 1.29-1.14 1.71-1.77.28-.42.54-.85.8-1.28.31-.51.6-1.03.88-1.55.26-.48.53-.98.68-1.5.09-.29-.22-.56-.47-.61a.756.756 0 0 0-.42.03c-.05.01-.4.26-.34.3zM381.95 104.49s-.94 1.58-1.01 1.69c-.26.45-.53.89-.81 1.33-.53.84-1.2 1.64-1.59 2.55-.08.19-.09.37.04.55.02.03.04.05.06.08.12.15.28.23.47.18.76-.23 1.29-1.14 1.71-1.77.28-.42.54-.85.8-1.28.31-.51.6-1.03.88-1.55.26-.48.53-.98.68-1.5.09-.29-.22-.56-.47-.61a.756.756 0 0 0-.42.03c-.06.01-.4.25-.34.3zM402.35 106s-.94 1.58-1.01 1.69c-.26.45-.53.89-.81 1.33-.53.84-1.2 1.64-1.59 2.55-.08.19-.09.37.04.55.02.03.04.05.06.08.12.15.28.23.47.18.76-.23 1.29-1.14 1.71-1.77.28-.42.54-.85.8-1.28.31-.51.6-1.03.88-1.55.26-.48.53-.98.68-1.5.09-.29-.22-.56-.47-.61a.756.756 0 0 0-.42.03c-.05.01-.4.25-.34.3zM389.69 113.25s-.94 1.58-1.01 1.69c-.26.45-.53.89-.81 1.33-.53.84-1.2 1.64-1.59 2.55-.08.19-.09.37.04.55.02.03.04.05.06.08.12.15.28.23.47.18.76-.23 1.29-1.14 1.71-1.77.28-.42.54-.85.8-1.28.31-.51.6-1.03.88-1.55.26-.48.53-.98.68-1.5.09-.29-.22-.56-.47-.61a.756.756 0 0 0-.42.03c-.05.01-.4.25-.34.3z"/><path class="st2" d="M132.93 61.39a572.511 572.511 0 0 0-55.77 31.76 22.798 22.798 0 0 1-7.8-12.77c-.56-2.59-.36-5.43 1.02-7.69 1.33-2.18 3.7-3.54 6.18-3.94 1.19-.19 2.62-.25 3.79.14.6.2 3.27 1.18 3.41 1.73a40.8 40.8 0 0 1-1.31-11.27c.04-1.71.2-3.46.9-5.02 1.81-4.05 6.94-5.8 11.29-4.92 4.35.88 7.99 3.82 11.07 7.01.34-1.36.7-2.78 1.66-3.8 1.52-1.63 4.16-1.75 6.22-.88 2.05.87 3.66 2.51 5.2 4.12-.15-2.5 1.72-4.9 4.11-5.64 2.4-.74 5.12.04 6.99 1.71 1.87 1.68 2.92 4.14 3.18 6.64l-.14 2.82z"/><path class="st13" d="M132.93 61.39a572.511 572.511 0 0 0-55.77 31.76 22.798 22.798 0 0 1-7.8-12.77c-.56-2.59-.36-5.43 1.02-7.69 1.33-2.18 3.7-3.54 6.18-3.94 1.19-.19 2.62-.25 3.79.14.6.2 3.27 1.18 3.41 1.73a40.8 40.8 0 0 1-1.31-11.27c.04-1.71.2-3.46.9-5.02 1.81-4.05 6.94-5.8 11.29-4.92 4.35.88 7.99 3.82 11.07 7.01.34-1.36.7-2.78 1.66-3.8 1.52-1.63 4.16-1.75 6.22-.88 2.05.87 3.66 2.51 5.2 4.12-.15-2.5 1.72-4.9 4.11-5.64 2.4-.74 5.12.04 6.99 1.71 1.87 1.68 2.92 4.14 3.18 6.64l-.14 2.82z" style="opacity:.8"/><path class="st5" d="M132.69 61c-7.56 3.56-14.97 7.48-22.28 11.52-7.33 4.04-14.57 8.25-21.7 12.61-4.01 2.45-7.98 4.95-11.93 7.5.28 0 .56.01.85.01-3.88-3.2-6.72-7.78-7.65-12.75-.47-2.53-.21-5.42 1.42-7.51 1.5-1.93 3.84-2.94 6.25-3.11 1.18-.08 2.23.13 3.32.55.48.19.95.38 1.41.61.17.08.34.17.5.28.07.04.14.09.2.14.03.03.08.13.03.02.3.8 1.54.29 1.33-.5a40.95 40.95 0 0 1-1.29-9.41c-.05-2.74-.01-5.83 1.85-8.03 1.43-1.7 3.58-2.69 5.76-3 2.5-.35 4.94.21 7.19 1.31 2.79 1.37 5.15 3.46 7.29 5.68.35.36 1.04.06 1.15-.38.33-1.33.67-2.81 1.74-3.76.89-.78 2.16-1.03 3.32-.91 2.86.28 4.98 2.51 6.87 4.47.37.39 1.19.02 1.17-.51-.07-1.65.72-3.17 2.01-4.18 1.36-1.07 3.16-1.31 4.81-.91 3.65.88 5.73 4.37 6.15 7.9.08.71 1.33.6 1.26-.12-.36-3.27-1.97-6.52-4.94-8.15-2.8-1.53-6.43-1.39-8.76.93-1.22 1.22-1.97 2.87-1.9 4.61l1.17-.51c-2.25-2.34-4.76-4.76-8.21-4.81-1.43-.02-2.87.43-3.94 1.4-1.23 1.11-1.69 2.78-2.08 4.34.38-.13.76-.25 1.15-.38-3.89-4.02-9.02-7.89-14.94-7.32-2.45.24-4.9 1.18-6.69 2.9-2.15 2.06-2.71 4.9-2.8 7.77-.11 3.91.35 7.81 1.33 11.59.44-.17.89-.33 1.33-.5-.29-.76-1.41-1.14-2.08-1.43-.88-.38-1.81-.76-2.77-.9-2.77-.4-5.86.48-7.99 2.29-4.76 4.04-3.41 11-.89 15.9 1.47 2.86 3.5 5.38 5.99 7.43.23.19.6.17.85.01 6.94-4.49 13.98-8.83 21.11-13.02 7.11-4.18 14.31-8.2 21.58-12.09 4.32-2.31 8.67-4.58 13.03-6.83.47-.27-.17-.94-.58-.75zM90.44 89.65c-.03.66.12 1.34.2 2 .08.62.16 1.25.21 1.87.06.72.06 1.46.15 2.17.04.27.06.6.2.84.11.19.45.44.69.39.29-.05.44-.42.5-.67.11-.42.09-.89.07-1.32-.02-.63-.09-1.27-.16-1.9-.06-.57-.12-1.14-.22-1.7-.11-.67-.19-1.38-.51-1.98-.26-.49-1.11-.21-1.13.3zM102.36 93.35c-.03.66.12 1.34.2 2 .08.62.16 1.25.21 1.87.06.72.06 1.46.15 2.17.04.27.06.6.2.84.11.19.45.44.69.39.29-.05.44-.42.5-.67.11-.42.09-.89.07-1.32-.02-.63-.09-1.27-.16-1.9-.06-.57-.12-1.14-.22-1.7-.11-.67-.19-1.38-.51-1.98-.26-.5-1.11-.21-1.13.3zM108.95 80.66c-.03.66.12 1.34.2 2 .08.62.16 1.25.21 1.87.06.72.06 1.46.15 2.17.04.27.06.6.2.84.11.19.45.44.69.39.29-.05.44-.42.5-.67.11-.42.09-.89.07-1.32-.02-.63-.09-1.27-.16-1.9-.06-.57-.12-1.14-.22-1.7-.11-.67-.19-1.38-.51-1.98-.26-.49-1.11-.21-1.13.3zM126.06 69.43c-.03.66.12 1.34.2 2 .08.62.16 1.25.21 1.87.06.72.06 1.46.15 2.17.04.27.06.6.2.84.11.19.45.44.69.39.29-.05.44-.42.5-.67.11-.42.09-.89.07-1.32-.02-.63-.09-1.27-.16-1.9-.06-.57-.12-1.14-.22-1.7-.11-.67-.19-1.38-.51-1.98-.26-.49-1.11-.21-1.13.3zM120.43 82.89c-.03.66.12 1.34.2 2 .08.62.16 1.25.21 1.87.06.72.06 1.46.15 2.17.04.27.06.6.2.84.11.19.45.44.69.39.29-.05.44-.42.5-.67.11-.42.09-.89.07-1.32-.02-.63-.09-1.27-.16-1.9-.06-.57-.12-1.14-.22-1.7-.11-.67-.19-1.38-.51-1.98-.26-.49-1.11-.21-1.13.3zM380.58 162.05c.86-.74 1.55-1.66 2.4-2.41.89-.79 1.89-1.51 2.92-2.09 1.99-1.13 4.19-1.84 6.48-2.04 4.28-.38 8.99.88 12.13 3.92.68.65 1.26 1.41 1.73 2.22.38.66.7 1.36.96 2.08.27.73.47 1.4 1.02 1.95.22.22.63.21.73-.11.42-1.34-.22-2.99-.8-4.22-.46-.95-1.04-1.85-1.74-2.64-1.47-1.65-3.41-2.87-5.44-3.72-4.86-2.02-10.47-1.8-15.11.72-1.3.7-2.49 1.55-3.58 2.56-.96.89-2.17 2.02-2.59 3.29-.18.52.55.78.89.49zM389.03 141.78c-.14.62-.08 1.3-.05 1.93l.06 1.39c.04.94.05 1.88.14 2.82.08.86 1.45.78 1.45-.06-.01-1.01-.08-2.03-.13-3.04-.02-.48-.04-.96-.07-1.44-.03-.57-.02-1.18-.26-1.71-.21-.48-1.02-.39-1.14.11zM402.12 143.25c-.17.52-.22 1.07-.3 1.61-.07.49-.14.98-.2 1.47-.12.94-.23 1.88-.25 2.82-.01.89 1.43.74 1.46-.1.03-.95.13-1.9.25-2.85.06-.49.12-.98.19-1.47s.16-.99.08-1.48c-.04-.26-.39-.4-.62-.4-.25-.01-.53.14-.61.4z"/><path class="st2" d="m416.86 231.72-11.6 19.56-12.19-5.93-8.99 15.42-5.11-2.8 2.52 12.88 12.32-3.87-4.35-2.79 6.21-8.91 12.91 6.36 17.08-21.95z"/><path style="opacity:.8;fill:#fff" d="m416.86 231.72-11.6 19.56-12.19-5.93-8.99 15.42-5.11-2.8 2.52 12.88 12.32-3.87-4.35-2.79 6.21-8.91 12.91 6.36 17.08-21.95z"/><path class="st5" d="M381.49 271.35c-.09 0-.18-.02-.26-.07a.465.465 0 0 1-.23-.33l-2.52-12.87c-.04-.19.04-.38.2-.5.15-.12.36-.13.54-.04l5 2.73c.24.13.33.44.2.68-.13.24-.44.33-.68.2l-4.06-2.22 2.21 11.28 10.77-3.38-3.45-2.22a.522.522 0 0 1-.22-.32.47.47 0 0 1 .08-.38l6.21-8.9a.5.5 0 0 1 .63-.16l12.54 6.17L425 239.76l-8-7.25-11.28 19.04c-.13.22-.42.31-.65.19L393.26 246l-7.29 12.51c-.14.24-.45.32-.68.18a.493.493 0 0 1-.18-.68l7.52-12.91c.13-.23.42-.31.65-.2l11.78 5.74 11.36-19.17c.08-.13.21-.22.36-.24.15-.02.3.02.41.12l8.8 7.97c.19.17.22.47.06.68l-17.08 21.95c-.15.19-.41.25-.62.14l-12.52-6.16-5.67 8.12 3.91 2.51c.16.11.25.29.22.49-.03.19-.16.35-.35.41l-12.32 3.86a.25.25 0 0 1-.13.03zM329.86 57.94c-.95-2.26-2.94-3.8-5.11-4.8-2.38-1.1-5.01-1.73-7.62-2-5.16-.52-10.45.58-14.6 3.79-3.54 2.74-6.06 6.9-6.14 11.44-.08 4.34 1.98 8.73 5.71 11.06 2.34 1.46 5.14 2.05 7.78 2.7 2.95.73 5.96 1.36 9.01 1.45 4.13.12 10.62-.97 11.16-6.13.26-2.45-1.24-4.75-2.88-6.42-1.76-1.8-3.96-3.23-6.26-4.25-4.65-2.05-9.93-2.43-14.8-.96-4.76 1.44-9.2 4.55-11.77 8.85-1.28 2.14-2.03 4.58-1.96 7.09.07 2.35.8 4.63 1.95 6.67 2.52 4.49 6.95 7.36 11.73 8.98 2.49.85 5.09 1.37 7.7 1.71 2.67.35 5.38.48 8.05.02 2.18-.38 5.19-1.21 6.37-3.29 1.24-2.18-.38-4.51-2.04-5.9-1.88-1.58-4.39-2.52-6.75-3.08-2.56-.61-5.25-.72-7.84-.3-4.53.72-8.83 3.09-11.41 6.96-2.55 3.84-2.55 8.72.14 12.49 2.79 3.91 8.05 5.46 12.55 3.8 1.04-.38 2.15-.91 2.95-1.7.69-.68 1.32-1.69 1.1-2.71-.24-1.11-1.33-1.48-2.3-1.75-1.33-.37-2.7-.62-4.07-.77-2.8-.31-5.7-.2-8.45.42-2.04.46-4.14 1.3-5.59 2.86-1.45 1.57-1.92 3.78-1.17 5.79.72 1.95 2.42 3.39 4.49 3.67 2 .26 4.1-.51 5.35-2.11.12-.16.08-.36-.04-.5-1.26-1.39-3.06-1.94-4.87-2.16-1.68-.21-3.49-.35-5.16.02-1.52.33-2.99 1.35-3.04 3.04-.07 2.07 1.68 3.62 3.05 4.92.15.15.24-.16.13-.27-1.2-1.14-2.65-3.01-2.26-4.77.32-1.48 1.71-2.08 3.08-2.26 1.4-.19 2.91-.08 4.31.11 1.51.2 3.01.64 4.05 1.82-.01-.17-.03-.33-.04-.5-1.19 1.51-3.28 2.25-5.16 1.71-1.9-.54-3.16-2.41-3.27-4.34-.28-4.62 5.25-6.22 8.86-6.66a25.071 25.071 0 0 1 9.61.71c.59.16 1.44.31 1.6 1.02.21.95-.75 1.95-1.44 2.45-3.53 2.54-8.79 2.17-11.97-.75-3.1-2.83-4.12-7.38-2.46-11.24 1.58-3.69 5.05-6.45 8.81-7.7 4.45-1.48 9.45-1.17 13.72.77 1.93.87 4.15 2.23 4.74 4.43.68 2.54-2.12 3.78-4.08 4.37-2.32.7-4.78.78-7.18.61-2.36-.17-4.72-.56-7.01-1.13-4.41-1.1-8.82-3.1-11.83-6.62-2.79-3.26-4.43-7.74-3.32-12.01 1.14-4.39 4.66-7.96 8.55-10.1 3.96-2.18 8.6-3.02 13.07-2.24 4.35.76 8.93 3 11.66 6.56 1.33 1.73 2.26 4.09 1.13 6.16-.93 1.72-2.85 2.66-4.67 3.13-5.06 1.28-10.52-.2-15.43-1.47-2.28-.59-4.62-1.27-6.48-2.78-1.5-1.23-2.62-2.87-3.31-4.67-1.44-3.78-.98-7.95 1.15-11.37 5.14-8.27 16.54-9.47 24.86-5.68 1.88.86 3.64 2.09 4.56 3.99.18.45 1.03.37.8-.18z"/></g></svg>