<svg xmlns="http://www.w3.org/2000/svg" xml:space="preserve" id="Layer_1" x="0" y="0" style="enable-background:new 0 0 500.6 443" version="1.1" viewBox="0 0 500.6 443"><style>.st0{fill:#e0e0e0}.st1{fill:#f5f5f5}.st2{fill:#ebebeb}.st3{fill:#fafafa}.st4{fill:#0e213f}.st5{opacity:.3}.st6{fill:#263238}.st7{fill:#ab2931}.st9{fill:#ff725e}.st10{fill:#fff}.st12{fill:#6f4439}.st13{fill:#ffbf9d}.st14{fill:#ff9a6c}.st15{fill:#455a64}</style><path d="M155.2 57.2 152.5 32l-12.8 2.9-11-19.5 6.8 26.4 13-3zM138.1 64.3l-11.9-12.2-5.6 6.9-14-5.8 14.7 11.2 5.6-7z" class="st0"/><path d="m182.6 44.7 6.5-15.8-8.5-2.4-.2-15.2-4.5 17.9 8.7 2.5z" class="st1"/><path d="m283.5 77 10.8-19.7 9.5 6.8 15.8-12.2-14.7 19.3-9.7-6.9zM303.3 88.3l11.2-4.8 1.8 6 10.8.1-12.7 3.3-1.8-6.2z" class="st0"/><path d="m101.3 427.7 19.8-29.5 90.5-.3 23.5 29.8z" class="st2"/><path d="M66.1 418.6 86 389.1l104.1-.4 9.8 29.9z" class="st3"/><path d="M66.1 418.6v3.6l133.8-.5v-3.1zM185.6 408.7c0 .1-22.6.3-50.5.3s-50.5-.1-50.5-.3 22.6-.3 50.5-.3 50.5.1 50.5.3zM223.5 400.7l27.8 41.5 104.4.8-.4-4.2-34.3-40.3-61.7-8.7z" class="st0"/><path d="m223.6 396.4 29.7 42.4h102l-36.8-43.7-61.7-8.8z" class="st3"/><path d="M338.8 429.8c0 .1-18.5.3-41.3.3-22.8 0-41.3-.1-41.3-.3s18.5-.3 41.3-.3 41.3.2 41.3.3zM335.4 425.5c0 .1-18.5.3-41.3.3-22.8 0-41.3-.1-41.3-.3s18.5-.3 41.3-.3 41.3.2 41.3.3zM332.1 421.2c0 .1-18.5.3-41.3.3-22.8 0-41.3-.1-41.3-.3s18.5-.3 41.3-.3c22.8 0 41.3.1 41.3.3zM328.7 416.8c0 .1-18.5.3-41.3.3-22.8 0-41.3-.1-41.3-.3s18.5-.3 41.3-.3c22.8.1 41.3.2 41.3.3zM324.2 412.5c0 .1-18.5.3-41.3.3-22.8 0-41.3-.1-41.3-.3s18.5-.3 41.3-.3c22.8.1 41.3.2 41.3.3zM319.7 408.2c0 .1-18.5.3-41.3.3-22.8 0-41.3-.1-41.3-.3s18.5-.3 41.3-.3c22.8 0 41.3.1 41.3.3z" class="st0"/><path d="M387.5 318.6h-44.3c-6.8 0-12.3-5.5-12.3-12.3 0-6.8 5.5-12.3 12.3-12.3h44.3v24.6z" class="st4"/><path d="M473.7 298h-98.5v-4.1h98.5c1.1 0 2 .9 2 2 0 1.2-.9 2.1-2 2.1zM473.7 318.6h-98.5v-4.1h98.5c1.1 0 2 .9 2 2s-.9 2.1-2 2.1z" class="st4"/><path d="M472.7 314.5h-86.3c-4.5 0-8.2-3.7-8.2-8.2 0-4.5 3.7-8.2 8.2-8.2h86.3c-2.3 5.4-2.3 10.9 0 16.4z" class="st1"/><path d="M378.2 318.6h-35c-6.8 0-12.3-5.5-12.3-12.3 0-6.8 5.5-12.3 12.3-12.3h36c-9 5.3-8.3 18.3-1 24.6z" class="st5"/><path d="M462.3 307c0 .1-17.7.1-39.6.1-21.9 0-39.6-.1-39.6-.1s17.7-.1 39.6-.1c21.8 0 39.6 0 39.6.1zM470.4 310.7c0 .1-17.7.1-39.6.1-21.9 0-39.6-.1-39.6-.1s17.7-.1 39.6-.1c21.9-.1 39.6 0 39.6.1zM468 301.8c0 .1-17.7.1-39.6.1-21.9 0-39.6-.1-39.6-.1s17.7-.1 39.6-.1c21.9 0 39.6 0 39.6.1zM373.9 316.8c0 .1-8.3.1-18.5.1s-18.5-.1-18.5-.1 8.3-.1 18.5-.1 18.5 0 18.5.1zM373.9 296c0 .1-8.3.1-18.5.1s-18.5-.1-18.5-.1 8.3-.1 18.5-.1c10.2-.1 18.5 0 18.5.1z" class="st6"/><path d="M384.8 349.8h-54.9c-8.8 0-15.9-7.1-15.9-15.9s7.1-15.9 15.9-15.9h54.9c1.2 0 2.1.9 2.1 2.1v27.5c0 1.3-.9 2.2-2.1 2.2z" class="st7"/><path d="M498 323.4H371.1v-5.3H498c1.5 0 2.6 1.2 2.6 2.6 0 1.5-1.2 2.7-2.6 2.7zM498 349.8H371.1v-5.3H498c1.5 0 2.6 1.2 2.6 2.6 0 1.5-1.2 2.7-2.6 2.7z" class="st7"/><path d="M496.7 344.5H385.6c-5.8 0-10.6-4.7-10.6-10.6 0-5.9 4.7-10.6 10.6-10.6h111.2c-3 7.1-3 14.2-.1 21.2z" class="st1"/><path d="M375 349.8h-45.3c-8.7 0-15.7-7-15.7-15.7 0-8.9 7.2-16 16-16h46.2c-11.5 7-10.6 23.6-1.2 31.7z" style="opacity:.4"/><path d="M483.2 334.9c0 .1-22.8.1-51 .1s-51-.1-51-.1 22.8-.1 51-.1 51 .1 51 .1zM493.7 339.6c0 .1-22.8.1-51 .1s-51-.1-51-.1 22.8-.1 51-.1 51 .1 51 .1zM490.6 330.6c0 .1-22.8.1-51 .1s-51-.1-51-.1 22.8-.1 51-.1c28.2-.1 51 0 51 .1zM369.4 347.6c0 .1-10.7.1-23.8.1-13.2 0-23.9-.1-23.9-.1s10.7-.1 23.9-.1c13.1-.1 23.8 0 23.8.1zM369.4 320.7c0 .1-10.7.1-23.8.1-13.2 0-23.9-.1-23.9-.1s10.7-.1 23.9-.1c13.1 0 23.8.1 23.8.1z" class="st6"/><path d="M414.8 301.9v9.9l3.4-2.2 3.8 2.2v-9.9z" class="st9"/><path d="m343.9 292.8-.3-26.5h13l.4 26.5z" class="st1"/><path d="M355.8 271c0 .1-2.7.2-6 .2s-6-.1-6-.2 2.7-.2 6-.2 6 .1 6 .2zM355.8 275.1c0 .1-2.7.2-6 .2s-6-.1-6-.2 2.7-.2 6-.2 6 .1 6 .2zM355.8 279.2c0 .1-2.7.2-6 .2s-6-.1-6-.2 2.7-.2 6-.2 6 .1 6 .2zM355.8 283.3c0 .1-2.7.2-6 .2s-6-.1-6-.2 2.7-.2 6-.2c3.3-.1 6 .1 6 .2zM355.8 287.4c0 .1-2.7.2-6 .2s-6-.1-6-.2 2.7-.2 6-.2c3.3-.1 6 0 6 .2z" class="st0"/><path d="M342.5 265.4h143.3c1.8 8.8 1.5 18.5 0 28.7H343.1v-2h8.7c2.3 0 4.1-2.1 4.1-4.6v-15.9c0-2.5-1.8-4.6-4.1-4.6h-9.3v-1.6z" class="st7"/><path d="M480.9 294.6c-.1 0-.2-6.6-.2-14.7s.1-14.7.2-14.7.2 6.6.2 14.7-.1 14.7-.2 14.7zM363.6 294.6c-.1 0-.2-6.6-.2-14.7s.1-14.7.2-14.7.2 6.6.2 14.7-.1 14.7-.2 14.7zM483.4 294.6c-.1 0-.2-6.6-.2-14.7s.1-14.7.2-14.7.2 6.6.2 14.7-.1 14.7-.2 14.7zM361.3 294.6c-.1 0-.2-6.6-.2-14.7s.1-14.7.2-14.7.2 6.6.2 14.7-.1 14.7-.2 14.7z" class="st6"/><path d="M464.4 283H387c-1.1 0-2-.9-2-2v-3.8c0-1.1.9-2 2-2h77.4c1.1 0 2 .9 2 2v3.8c-.1 1.2-.9 2-2 2z" class="st10"/><path d="M469.9 241.3v22.2h-38.4v-22.2h38.4z" class="st2"/><path d="M345.9 252.6v.6c.3 6.7 5.4 11.9 11.4 11.9h114.4v-1.6h-27.2c-5.5 0-9.9-5-9.9-11.1s4.4-11.1 9.9-11.1h27.2v-2.4l-114.4.4c-6.5.1-11.6 6-11.4 13.3z" class="st4"/><path d="M469.9 252.6c0 .1-7.9.2-17.6.2s-17.6-.1-17.6-.2 7.9-.2 17.6-.2 17.6.1 17.6.2zM469.4 257.6c0 .1-7.5.2-16.7.2s-16.7-.1-16.7-.2 7.5-.2 16.7-.2 16.7.1 16.7.2zM469.9 262.2c0 .1-6.7.2-15 .2s-15-.1-15-.2 6.7-.2 15-.2 15 .1 15 .2zM469.9 248.2c0 .1-7.7.2-17.3.2-9.5 0-17.3-.1-17.3-.2s7.7-.2 17.3-.2c9.6-.1 17.3 0 17.3.2zM469.4 243.7c0 .1-6.9.2-15.4.2s-15.4-.1-15.4-.2 6.9-.2 15.4-.2 15.4 0 15.4.2z" class="st0"/><path d="M421.6 254.4h-63.1c-.6 0-1-.4-1-1v-2c0-.6.5-1 1-1h63.1c.6 0 1 .4 1 1v2c0 .6-.4 1-1 1zM381.9 265.4c.5.2 72.8 8.6 72.8 8.6l14.4-9-87.2.4z" class="st10"/><path d="M381.9 265.4c1.4 0 9.9-.1 25.3-.2 15.8-.1 37.7-.3 61.9-.4h.9l-.8.5c-.4.3-.9.5-1.3.8-4.5 2.8-8.9 5.5-13.1 8.2h-.2c-20.7-2.5-38.9-4.6-51.9-6.2-6.5-.8-11.7-1.5-15.3-1.9-1.8-.2-3.2-.4-4.1-.6-.5-.1-.8-.1-1.1-.2h-.3c2.5.3 31.7 3.6 72.8 8.4h-.2c4.2-2.6 8.6-5.4 13.1-8.2.5-.3.9-.6 1.3-.8l.1.5c-24.1 0-45.8.1-61.6.1h-25.5z" class="st6"/><path d="m398.6 318.1 32.2 16.7 28.9-17.2z" class="st10"/><path d="M398.6 318.1c1.3 0 7-.1 17.6-.2 11-.2 26.3-.4 43.5-.5h1l-.8.5c-1.2.7-2.5 1.5-3.8 2.2-9 5.4-17.6 10.5-25.1 14.9l-.1.1-.1-.1c-9.6-5-17.7-9.3-23.4-12.2-5.3-2.9-8-4.3-8.8-4.7 1.8.9 13.5 6.8 32.4 16.5h-.2l25-15c1.3-.8 2.6-1.5 3.8-2.2l.1.5c-17 .1-32.2.2-43.2.2h-17.9z" class="st6"/><g id="Book_1"><path d="m329.5 404.1-118.3-.6s.8 2.1-4.1 2.1l-39.1-.3s-2.9.3-2.9-1.9c0 0-91.7 1.4-114.4 2-1.7 0-4.7-.9-3.3-2.9l7.9-8.9 130.9-11.9 92.8 9.1 31.8-10.8h1c.9 0 1.7.4 2.2 1l16.4 21.3c.4 1-.1 1.8-.9 1.8z" class="st4"/><path d="m279.5 401.6-210.8 1.5 49.6-14.3 61.8 1.6 61.8-2.3z" class="st4" style="opacity:.2"/><path d="m187.3 397.7-1.2-24.2s-.2-13.3 16.9-17.8c17.2-4.5 38.6 1.2 58.6 2.2 20 1 19.8-.4 19.8-.4l16.2 23.4-63.8 8.7s-37 2-37.6 2.2c-.7.2-8.9 5.9-8.9 5.9z" class="st3"/><path d="m187.5 398.6-1.4-22.8s.2-13.3-16.9-17.8-38.6 1.2-58.6 2.2c-14 .7-18.3.6-19.7.5-.4 0-.8.1-1 .4l-15.4 22.2 63.8 8.7s37 2 37.6 2.2c.8.2 11.6 4.4 11.6 4.4z" class="st3"/><path d="M325.4 402.4 297.6 381s-57.5-9.1-77.1-5.9c-19.5 3.2-30.6 9.5-33.3 22.8l18.7 4.5s10.8-5.7 25-5.9c14.1-.2 49.4 5.9 49.4 5.9h45.1zM167.4 402.4l19.8-4.6s-1.4-21.2-33.5-24.7c0 0-9.1-2.8-41.3 2.9-32.2 5.7-35.5 5.5-35.5 5.5L50 403.6s16 1.2 29.2-1.2 36.2-10.7 61.2-8.3c24.9 2.4 27 8.3 27 8.3zM297.7 380.9 282 358.2l27.8 20.8 17.7 23.4h-2.1zM76.9 381.3l12.8-20.1S64.2 381.9 64 382.5c-.2.6-13.9 21-13.9 21l26.8-22.2z" class="st0"/><path d="M207.1 402.4h-39.6l19.8-4.7 1 .2M187.3 397.7c.1 0 0-5.3-.3-11.8-.3-6.5-.6-11.8-.8-11.8-.1 0 0 5.3.3 11.8.3 6.5.7 11.8.8 11.8zM270 377.2s.2 0 .5.1c.4.1.9.1 1.6.2 1.4.2 3.4.5 5.8.9 5 .7 11.9 1.7 19.7 2.7h-.1c1.2.9 2.5 1.8 3.8 2.7 7.2 5.1 13.7 9.8 18.4 13.2 2.3 1.6 4.2 3 5.6 4 .6.4 1.1.8 1.5 1.1.4.2.5.4.6.3 0 0-.2-.1-.5-.4-.4-.3-.9-.7-1.5-1.1-1.4-1-3.2-2.4-5.5-4.1-4.7-3.4-11.2-8.1-18.3-13.3-1.3-.9-2.6-1.9-3.8-2.7h-.1c-7.8-1-14.7-1.9-19.8-2.6-2.5-.3-4.4-.5-5.9-.7-.6-.1-1.2-.1-1.6-.2-.2-.1-.4-.1-.4-.1zM189.9 385s.1 0 .2-.2l.5-.5c.4-.5 1.1-1.2 1.9-2 1.8-1.6 4.5-3.9 8.5-5.8 3.9-2 9-3.6 14.9-4.5 5.8-.9 12.3-1.2 19.2-1.2 13.7-.1 26 1.2 34.8 2.5 4.4.6 8 1.3 10.4 1.7 1.2.2 2.1.4 2.8.5.3 0 .5.1.7.1h.2s-.1 0-.2-.1c-.2 0-.4-.1-.7-.2-.6-.1-1.6-.4-2.8-.6-2.5-.5-6-1.2-10.4-1.9-8.8-1.4-21.2-2.7-34.9-2.6-6.8 0-13.4.3-19.2 1.2-5.9.9-11 2.6-14.9 4.6-4 2-6.8 4.2-8.5 5.9-.9.9-1.5 1.6-1.9 2-.2.2-.3.4-.4.6-.2.4-.2.5-.2.5z" class="st6"/><path d="M189.9 382s.1 0 .2-.2l.5-.5c.2-.2.4-.5.7-.8.3-.3.6-.7 1-1 1.6-1.5 4.2-3.6 7.8-5.5 3.6-1.9 8.2-3.5 13.6-4.5s11.4-1.4 17.7-1.5c12.7-.3 24.1.6 32.3 1.6 4.1.5 7.4 1 9.7 1.3 1.1.2 2 .3 2.6.4.3 0 .5.1.7.1h.2s-.1 0-.2-.1c-.2 0-.4-.1-.7-.1-.6-.1-1.5-.3-2.6-.5-2.3-.4-5.6-.9-9.7-1.5-8.2-1.1-19.7-2-32.4-1.7-6.3.1-12.4.5-17.8 1.6-5.4 1-10.1 2.7-13.7 4.7-3.6 1.9-6.2 4-7.8 5.6-.4.4-.7.8-1 1.1-.3.3-.5.6-.7.8-.2.2-.3.4-.4.5v.2z" class="st6"/><path d="M189.9 379.1s.1 0 .2-.2c.1-.1.3-.3.4-.5.2-.2.4-.5.7-.8.3-.3.6-.7 1-1 1.6-1.5 4.1-3.6 7.7-5.5 3.6-1.9 8.2-3.5 13.5-4.6 5.3-1 11.3-1.4 17.5-1.6 12.5-.3 23.9.5 32 1.5 4.1.5 7.4.9 9.6 1.3 1.1.2 2 .3 2.6.4.3 0 .5.1.7.1h.2s-.1 0-.2-.1c-.2 0-.4-.1-.7-.1-.6-.1-1.5-.3-2.6-.5-2.3-.4-5.5-.9-9.6-1.4-8.1-1-19.5-1.9-32.1-1.6-6.3.1-12.3.5-17.6 1.6-5.4 1-10 2.7-13.5 4.7-3.6 1.9-6.1 4-7.7 5.6-.4.4-.7.8-1 1.1-.3.3-.5.6-.7.8-.2.2-.3.4-.4.5v.3z" class="st6"/><path d="M189.9 376.1s.1 0 .2-.2c.1-.1.3-.3.4-.5.4-.4.9-1 1.7-1.8 1.5-1.5 4-3.6 7.4-5.6 3.4-2 7.8-4 12.9-5 5.2-1.1 11-1.1 17.2-1.1 12.3.1 23.4.6 31.4 1.4 4 .4 7.2.8 9.5 1.1 1.1.1 1.9.3 2.6.4.3 0 .5.1.7.1h.2s-.1 0-.2-.1c-.2 0-.4-.1-.7-.1-.6-.1-1.4-.3-2.5-.4-2.2-.4-5.4-.8-9.5-1.2-8-.9-19.1-1.4-31.4-1.5-6.1-.1-12 0-17.3 1.1-5.2 1-9.7 3-13 5.1-3.4 2.1-5.8 4.2-7.3 5.7-.8.8-1.3 1.4-1.7 1.9-.2.2-.3.4-.4.5-.2.1-.2.2-.2.2z" class="st6"/><path d="M189.9 373.1s.1 0 .2-.2c.1-.1.2-.3.4-.5.4-.4.9-1.1 1.7-1.8 1.5-1.5 3.7-3.8 7-5.9 1.6-1 3.5-2.1 5.7-2.9 2.2-.8 4.6-1.4 7.2-1.9 5.2-.9 11-1.1 17.1-1 12.2.3 23.2 1.4 31.1 2 4 .3 7.2.5 9.4.6 1.1 0 1.9.1 2.6.1H273.2h-.2c-.2 0-.4 0-.7-.1-.6 0-1.5-.1-2.6-.2-2.3-.2-5.5-.5-9.4-.8-8-.7-18.9-1.8-31.1-2.1-6.1-.1-12 .1-17.2 1-2.6.5-5 1.1-7.2 1.9-2.2.8-4.1 1.9-5.8 3-3.3 2.2-5.5 4.4-7 6-.7.8-1.2 1.5-1.6 1.9-.2.2-.3.4-.4.5l-.1.4zM184.2 384.2s0-.1-.1-.2-.3-.3-.5-.6c-.4-.5-1-1.2-1.9-2-1.8-1.7-4.6-3.9-8.6-5.8-4-2-9.1-3.5-15-4.3-5.9-.8-12.4-1-19.2-.9-13.7.2-26 1.7-34.8 3.2-4.4.8-7.9 1.5-10.4 2.1-1.2.3-2.2.5-2.8.7-.3.1-.5.1-.7.2-.2 0-.2.1-.2.1h.2c.2 0 .4-.1.7-.1.7-.1 1.6-.3 2.8-.6 2.5-.5 6-1.2 10.4-1.9 8.8-1.5 21.1-2.9 34.8-3.1 6.8-.1 13.3 0 19.2.9 5.8.8 11 2.3 14.9 4.2 4 1.9 6.8 4 8.6 5.6.9.8 1.5 1.5 2 2l.5.5c0-.1.1 0 .1 0z" class="st6"/><path d="M184.1 381.2s0-.1-.1-.2-.2-.3-.4-.5-.4-.5-.7-.8c-.3-.3-.6-.7-1-1.1-1.6-1.6-4.2-3.6-7.9-5.5-3.6-1.9-8.4-3.5-13.8-4.4-5.4-1-11.5-1.3-17.8-1.3-12.7 0-24.1 1.1-32.4 2.3-4.1.6-7.4 1.2-9.7 1.6-1.1.2-2 .4-2.6.5-.3.1-.5.1-.7.1-.1 0-.2.1-.2.1h.2c.2 0 .4-.1.7-.1.6-.1 1.5-.3 2.6-.5 2.3-.4 5.6-.9 9.7-1.5 8.2-1.1 19.6-2.2 32.3-2.1 6.3 0 12.4.3 17.7 1.2 5.4.9 10.1 2.5 13.7 4.3 3.6 1.8 6.3 3.8 7.9 5.4.4.4.8.7 1.1 1l.8.8c.2.2.3.4.5.5l.1.2z" class="st6"/><path d="M184.1 378.3s0-.1-.1-.2-.2-.3-.4-.5-.4-.5-.7-.8c-.3-.3-.6-.7-1-1.1-1.6-1.6-4.2-3.6-7.8-5.5-3.6-1.9-8.3-3.5-13.6-4.5-5.4-1-11.4-1.3-17.6-1.3-12.6-.1-23.9 1-32 2.2-4.1.6-7.3 1.1-9.6 1.6-1.1.2-2 .4-2.6.5-.3.1-.5.1-.7.1-.1 0-.2.1-.2.1h.2c.2 0 .4-.1.7-.1.6-.1 1.5-.3 2.6-.4 2.3-.4 5.5-.9 9.6-1.5 8.1-1.1 19.5-2.1 32-2 6.3 0 12.2.3 17.6 1.3 5.3.9 10 2.5 13.6 4.3 3.6 1.8 6.2 3.8 7.8 5.3.4.4.8.7 1.1 1s.5.6.7.8c.2.2.3.4.5.5-.2.1-.1.2-.1.2z" class="st6"/><path d="M184 373.1s-.7-1-2.3-2.4c-1.6-1.5-4.3-3.2-8-4.7-1.8-.8-3.9-1.4-6.1-2.1-2.2-.6-4.6-1.4-7.2-1.8-5.2-.9-11-.8-17.1-.6-12.1.4-23 1.8-30.9 2.6-3.9.4-7.1.8-9.3 1-1.1.1-1.9.2-2.5.3-.3 0-.5.1-.7.1h-.2H100.6c.6 0 1.5-.1 2.5-.2 2.2-.2 5.4-.5 9.4-.9 7.9-.8 18.8-2.1 30.9-2.5 6-.2 11.8-.3 17 .6 2.6.4 5 1.1 7.2 1.7 2.2.6 4.3 1.3 6.1 2 3.6 1.4 6.3 3.1 8 4.5.4.3.8.7 1.1 1l.7.7c.2.2.3.3.4.5l.1.2z" class="st6"/><path d="M144.5 380.9v14.4l-5.1-4.3-5 4.1-.3-14c0-.1 8.2-.5 10.4-.2z" class="st7"/><path d="M86.8 389.2h.3c.2 0 .4-.1.8-.2.7-.2 1.7-.4 2.9-.6 2.5-.6 6.1-1.3 10.7-2.2 4.5-.8 9.9-1.7 15.9-2.6 3-.5 6.2-1 9.4-1.5 3.3-.6 6.7-.9 10.2-1 3.5-.1 6.9-.1 10.2.1 3.3.2 6.5.6 9.4 1.3 5.9 1.4 10.8 3.9 14.4 6.5 1.8 1.3 3.4 2.6 4.7 3.8 1.3 1.2 2.4 2.3 3.2 3.2.8.9 1.5 1.6 2 2.1l.5.5.2.2s0-.1-.1-.2-.3-.3-.5-.6c-.4-.5-1.1-1.2-1.9-2.1-.9-.9-1.9-2-3.2-3.2-1.3-1.2-2.8-2.6-4.6-3.9-3.6-2.7-8.6-5.2-14.5-6.6-3-.7-6.2-1.1-9.5-1.4-3.3-.2-6.8-.3-10.3-.1-3.5.1-7 .5-10.2 1-3.3.5-6.4 1-9.4 1.5-6 .9-11.4 1.9-15.9 2.7-4.5.9-8.1 1.7-10.6 2.3-1.2.3-2.2.6-2.9.7-.3.1-.5.1-.7.2-.4.1-.5.1-.5.1zM194.1 399.1l.2-.2.6-.6 1-1c.4-.4.9-.9 1.5-1.4 2.2-2 5.8-4.6 10.8-7 5-2.4 11.3-4.4 18.6-5.3 7.3-1 15.5-.8 23.9.2 8.4 1 16.4 2.5 23.6 4 7.2 1.4 13.8 2.6 19.3 3.4 5.5.8 10.1 1.1 13.2 1.2 1.6 0 2.8.1 3.6 0h1.2-1.2c-.8 0-2 0-3.6-.1-3.1-.1-7.6-.5-13.1-1.3s-12-2-19.3-3.4c-7.2-1.4-15.2-3-23.7-4s-16.7-1.1-24-.1c-7.3 1-13.7 3-18.7 5.4-5 2.4-8.5 5.1-10.8 7.2-.5.5-1 1-1.5 1.4-.4.4-.7.8-1 1.1-.2.3-.5.5-.6.7v-.2z" class="st6"/><path d="m194.1 402 .2-.2.6-.6 1-1c.4-.4.9-.9 1.5-1.4 2.2-2 5.8-4.6 10.8-7 5-2.4 11.3-4.4 18.6-5.3 7.3-1 15.5-.8 23.9.2 8.4 1 16.4 2.5 23.6 4 7.2 1.4 13.8 2.6 19.3 3.4 5.5.8 10.1 1.1 13.2 1.2 1.6 0 2.8.1 3.6 0h1.2-1.2c-.8 0-2 0-3.6-.1-3.1-.1-7.6-.5-13.1-1.3s-12-2-19.3-3.4c-7.2-1.4-15.2-3-23.7-4s-16.7-1.1-24-.1c-7.3 1-13.7 3-18.7 5.4-5 2.4-8.5 5.1-10.8 7.2-.5.5-1 1-1.5 1.4-.4.4-.7.8-1 1.1-.2.3-.5.5-.6.7v-.2z" class="st6"/><path d="M203.4 399.5s.2-.1.5-.4c.3-.2.8-.6 1.4-1 1.2-.9 3.1-2.1 5.5-3.3 2.5-1.2 5.5-2.4 9-3.4s7.5-1.6 11.7-1.9c8.5-.5 16.1.3 21.7 1 2.7.4 4.9.6 6.5.9.7.1 1.3.2 1.8.2.4 0 .6.1.6 0 0 0-.2-.1-.6-.1-.5-.1-1-.2-1.8-.3-1.5-.3-3.8-.6-6.5-1-5.5-.7-13.2-1.7-21.7-1.1-4.3.3-8.3 1-11.8 1.9s-6.6 2.2-9.1 3.5c-2.5 1.3-4.3 2.5-5.5 3.4-.6.5-1 .9-1.4 1.1-.1.4-.3.5-.3.5zM186.2 374.6s0-.1-.1-.2c-.1-.2-.2-.4-.3-.7-.3-.7-.6-1.6-1.1-2.8-.9-2.4-2.9-5.8-6.8-8.4-3.9-2.6-9.3-4.3-15.4-5-6.1-.8-12.9-.8-20-.2-3.5.3-7 .6-10.4 1.1-3.3.4-6.6.9-9.7 1.1-6.2.5-11.7.7-16.4.9-4.7.2-8.5.3-11.1.3h-4.1 1.1c.7 0 1.7-.1 3-.1 2.6-.1 6.4-.3 11.1-.5 4.7-.2 10.2-.5 16.4-1 3.1-.2 6.3-.7 9.6-1.1 3.3-.4 6.8-.8 10.4-1.1 7.1-.5 14-.5 20.1.3 6.1.8 11.6 2.5 15.5 5.2 4 2.6 6 6.2 6.8 8.6.4 1.2.8 2.2 1 2.8.1.3.2.5.2.7.2 0 .2.1.2.1zM186.3 374.4v-1.1c0-.7.2-1.8.5-3.1s.8-2.9 1.7-4.6c.9-1.7 2.1-3.6 4.1-5 3.8-3 9.2-5.4 15.5-6.5 6.3-1.1 13.3-1.3 20.6-.6 3.7.3 7.2.8 10.6 1.3 3.4.5 6.7 1.2 9.8 1.7 6.3 1 12 1.3 16.7 1.4 4.8.1 8.7 0 11.4-.2 1.3-.1 2.3-.2 3.1-.2.3 0 .6 0 .8-.1h.3s-.1 0-.3.1c-.2 0-.5.1-.8.1-.7.1-1.7.2-3.1.3-2.7.2-6.6.4-11.4.4-4.8-.1-10.5-.4-16.8-1.3-3.1-.5-6.4-1.1-9.8-1.7-3.4-.5-7-1-10.6-1.3-7.3-.6-14.3-.5-20.5.6-6.2 1.1-11.6 3.3-15.4 6.3-1.9 1.4-3.2 3.2-4.1 4.9-.9 1.7-1.4 3.2-1.8 4.5-.3 1.3-.5 2.3-.6 3 0 .3-.1.6-.1.8.2.2.2.3.2.3z" class="st6"/></g><g id="Cups"><path d="M475.1 400.3c0 6.8-13.2 12.3-29.5 12.3s-29.5-5.5-29.5-12.3 13.2-11.9 29.5-11.9 29.5 5.1 29.5 11.9z" class="st0"/><path d="M445.6 434.1c-16.3 0-29.5-13.2-29.5-29.5v-5.7l59.1.6v5.1c-.1 16.3-13.3 29.5-29.6 29.5z" class="st0"/><ellipse cx="445.6" cy="400.9" class="st5" rx="28" ry="10.4"/><path d="M421.4 406.1c4.8 3.1 13.8 5.2 24.2 5.2s19.3-2.1 24.2-5.2c-4.8-3.1-13.8-5.2-24.2-5.2s-19.4 2.1-24.2 5.2z" class="st12"/><path d="M474.6 410.2c.9-.5 1.6-.5 2.5-.3.3.1.3.1.1 0 .1.1.3.1.4.2.1.1.3.2.4.2-.2-.2-.2-.1 0 0l.3.3.1.1.1.1c.1.1.2.3.2.4.1.3.1.3 0 0 .1.1.1.3.2.4 0 .1.1.3.1.5V413c0 .2-.1.3-.1.5-.2.9-.9 2-1.5 2.6-.4.4-.8.8-1.2 1.1.4-.3-.4.2-.4.3-.3.2-.5.3-.8.5-.3.1-.5.3-.8.4.4-.2-.2.1-.3.1-.6.2-1.2.4-1.8.5-.2 0-.5.1-.7.1.5-.1-.4 0-.5 0H469c-.7 0 .5.1-.3 0-.3-.1-.6-.1-.9-.2l-.9-.3c-.2 0-.3-.1-.4-.2.2.1.2.1 0 0-1.2-.5-2.7-.4-3.4.9-.6 1.1-.4 2.9.9 3.4 4.7 2.1 10.4 1.8 14.7-1.2 2.3-1.6 4.3-4 5-6.8.8-2.9 0-6-2.2-8-2.6-2.5-6.5-2.9-9.6-1.1-1.2.7-1.6 2.3-.9 3.4.9 1.5 2.4 1.9 3.6 1.2zM474.5 384.6c0 6.8-13.2 12.3-29.5 12.3s-29.5-5.5-29.5-12.3c0-6.8 13.2-11.9 29.5-11.9s29.5 5.1 29.5 11.9z" class="st0"/><path d="M445 418.5c-16.3 0-29.5-13.2-29.5-29.5v-5.1l59.1.1v5.1c-.1 16.2-13.3 29.4-29.6 29.4z" class="st0"/><ellipse cx="445" cy="385.3" class="st5" rx="28" ry="10.4"/><path d="M420.8 390.5c4.8 3.1 13.8 5.2 24.2 5.2s19.3-2.1 24.2-5.2c-4.8-3.1-13.8-5.2-24.2-5.2-10.3 0-19.3 2.1-24.2 5.2z" class="st12"/><path d="M474 394.6c.9-.5 1.6-.5 2.5-.3.3.1.3.1.1 0 .1.1.3.1.4.2.1.1.3.2.4.2-.2-.2-.2-.1 0 0l.3.3.1.1.1.1c.1.1.2.3.2.4.1.3.1.3 0 0 .1.1.1.3.2.4 0 .1.1.3.1.5V397.4c0 .2-.1.3-.1.5-.2.9-.9 2-1.5 2.6-.4.4-.8.8-1.2 1.1.4-.3-.4.2-.4.3-.3.2-.5.3-.8.5-.3.1-.5.3-.8.4.4-.2-.2.1-.3.1-.6.2-1.2.4-1.8.5-.2 0-.5.1-.7.1.5-.1-.4 0-.5 0h-1.9c-.7 0 .5.1-.3 0-.3-.1-.6-.1-.9-.2l-.9-.3c-.2 0-.3-.1-.4-.2.2.1.2.1 0 0-1.2-.5-2.7-.4-3.4.9-.6 1.1-.4 2.9.9 3.4 4.7 2.1 10.4 1.8 14.7-1.2 2.3-1.6 4.3-4 5-6.8.8-2.9 0-6-2.2-8-2.6-2.5-6.5-2.9-9.6-1.1-1.2.7-1.6 2.3-.9 3.4.9 1.5 2.5 1.9 3.6 1.2zM471.1 357.2c2.2 6.5-8.5 16-23.9 21.3-15.4 5.3-29.7 4.4-31.9-2.1-2.2-6.5 8.6-15.5 24.1-20.8s29.5-4.9 31.7 1.6z" class="st0"/><path d="M454.2 398.8c-15.4 5.3-32.2-2.9-37.5-18.3l-1.8-5.4 56-18.6 1.6 4.8c5.3 15.4-2.9 32.2-18.3 37.5z" class="st0"/><path d="M469.8 358.3c1.9 5.4-8.4 13.9-23 19-14.6 5-27.9 4.7-29.8-.8-1.9-5.4 8.4-13.9 23-19 14.6-5 27.9-4.6 29.8.8z" class="st5"/><path d="M473.8 366.7c.7-.8 1.4-1 2.3-1.1h.1c.2 0 .3 0 .5.1s.3.1.5.1c-.2-.1-.2-.1 0 0 .1.1.3.1.4.2.2.1.3.2.1.1l.1.1c.1.1.2.2.4.3.2.2.2.2 0 0 .1.1.2.2.3.4.1.1.2.3.3.4-.1-.2-.1-.2 0 .1.1.2.2.5.2.7.1.3.1.3 0 .1v.5c.1.9-.2 2.1-.5 2.9-.2.5-.5 1-.8 1.5l-.3.4c-.2.2-.4.5-.6.7-.2.2-.4.5-.7.7l-.2.2c-.5.4-1 .8-1.5 1.1l-.6.3c.5-.2-.4.1-.5.2l-1.8.6c-.7.2.5-.1-.2 0-.3 0-.6.1-.9.1H469c.3 0 .2 0 0 0-1.3-.1-2.7.5-2.9 2-.2 1.2.6 2.8 2 2.9 5.1.5 10.5-1.7 13.5-5.9 1.7-2.3 2.8-5.1 2.5-8-.2-3-1.9-5.7-4.7-6.9-3.2-1.5-7.1-.6-9.4 2.1-.9 1-.8 2.6.3 3.5 1 .8 2.6.7 3.5-.4z" class="st0"/><path d="M467.2 408.5s-.2.1-.5.3c-.3.2-.8.4-1.4.7-1.2.6-3 1.4-5.3 2.1-2.3.8-5.1 1.5-8.2 1.9-3.2.4-6.7.4-10.4-.1-7.3-.9-13.7-3.1-17.9-5.6-2.1-1.2-3.6-2.5-4.4-3.6-.5-.5-.7-1-.9-1.3-.2-.3-.3-.5-.3-.5s.1.1.3.4c.2.3.5.7 1 1.2.9 1 2.4 2.2 4.5 3.4 4.1 2.4 10.5 4.5 17.8 5.4 3.6.4 7.1.4 10.2.1 3.1-.3 5.9-1 8.2-1.8s4.1-1.5 5.3-2c.6-.2 1-.4 1.4-.6h.6z" class="st6"/><path d="M467.2 410s-.2.1-.5.3c-.3.2-.8.4-1.4.7-1.2.6-3 1.4-5.3 2.1-2.3.8-5.1 1.5-8.2 1.9-3.2.4-6.7.4-10.4-.1-7.3-.9-13.7-3.1-17.9-5.6-2.1-1.2-3.6-2.5-4.4-3.6-.5-.5-.7-1-.9-1.3-.2-.3-.3-.5-.3-.5s.1.1.3.4c.2.3.5.7 1 1.2.9 1 2.4 2.2 4.5 3.4 4.1 2.4 10.5 4.5 17.8 5.4 3.6.4 7.1.4 10.2.1 3.1-.3 5.9-1 8.2-1.8s4.1-1.5 5.3-2c.6-.2 1-.4 1.4-.6h.6zM458.1 396.3s-.2.1-.5.1c-.3.1-.8.2-1.4.3-1.2.2-3 .6-5.2.8-4.5.5-10.7.5-17.4-.7-3.4-.6-6.5-1.5-9.2-2.7-2.7-1.2-5.1-2.6-6.6-4.3-1.5-1.7-2.1-3.6-2.1-4.9 0-.6.1-1.1.2-1.5.1-.3.2-.5.2-.5.1 0-.2.7-.1 1.9s.6 3 2.2 4.6c1.5 1.6 3.8 3 6.5 4.1 2.7 1.2 5.8 2.1 9.1 2.7 6.7 1.2 12.9 1.2 17.3.9 2.2-.2 4-.4 5.2-.6 1.1-.1 1.7-.3 1.8-.2z" class="st6"/><path d="M458.8 394.9s-.1.1-.4.1c-.3.1-.7.2-1.2.3-1.1.2-2.7.5-4.6.8-3.9.5-9.5.6-15.5-.2-3-.4-5.8-1-8.3-1.7-2.5-.8-4.7-1.7-6.4-2.7s-3-2-3.8-2.8c-.4-.4-.7-.7-.8-1-.2-.2-.2-.4-.2-.4s.4.5 1.2 1.2 2.1 1.7 3.8 2.6c1.7.9 3.9 1.8 6.4 2.5 2.5.7 5.3 1.3 8.3 1.7 6 .8 11.4.7 15.3.3 2-.2 3.5-.4 4.6-.6 1-.1 1.6-.2 1.6-.1z" class="st6"/><path d="M460.3 394c.8 1.5.7 3.2.6 4.9-.1 1.1-.2 2.3-.7 3.3-.6 1-1.8 1.7-2.9 1.4-.7-.2-1.2-.8-1.4-1.4s-.4-1.3-.5-2c-.7.8-1.6 1.7-2.7 1.5-.8-.1-1.3-.8-1.6-1.6s-.3-1.5-.4-2.3-.5-1.7-1.1-2.2c0 0 4.1-.3 6.2-.6l4.5-1z" class="st5"/><path d="M400.2 374.8c0 7.1-13.2 13-29.5 13s-29.5-5.8-29.5-13c0-7.1 13.2-12.5 29.5-12.5s29.5 5.4 29.5 12.5z" class="st7"/><path d="M370.6 410.3c-16.3 0-29.5-13.9-29.5-31v-5.9l59.1.6v5.3c0 17.2-13.3 31-29.6 31z" class="st7"/><ellipse cx="370.6" cy="375.5" class="st5" rx="28" ry="10.9"/><ellipse cx="370.6" cy="381" class="st12" rx="24.2" ry="5.5"/><path d="M399.7 385.1c.2-.1.3-.2.5-.3-.2.1-.2.1.1 0 .1 0 1-.2.6-.2h.6c.3 0 .7.1 1 .3-.4-.1.2.1.3.2.1.1.3.2.4.3-.2-.1-.2-.1 0 .1.1.1.6.8.4.4.2.3.3.5.5.8-.2-.4.1.3.1.4 0 .1.1.2.1.4v1.1c0-.5-.1.5-.1.6-.1.3-.2.6-.3 1 .2-.4-.2.3-.2.3-.2.3-.3.6-.5.9-.1.1-.2.3-.3.4.1-.2.1-.1-.1.1-.4.5-.9.9-1.4 1.3.3-.3-.2.1-.2.2-.2.2-.5.3-.8.5-.3.1-.5.3-.8.4-.1.1-.3.1-.4.2.2-.1.2-.1 0 0-.5.2-1 .3-1.5.5-.3.1-.6.1-.9.2.6-.1-.4 0-.5 0h-2.1c.3 0 .3 0 0 0-.3-.1-.6-.1-.9-.2l-.9-.3c-.1 0-.3-.1-.4-.2.2.1.2.1 0 0-1.2-.6-2.8-.4-3.4.9-.6 1.1-.4 2.8.9 3.4 4.7 2.2 10.5 1.8 14.8-1.3 2.3-1.7 4.2-4 4.9-6.9.8-3 .1-6.1-2-8.4-2.5-2.6-6.6-3.1-9.7-1.2-1.2.7-1.6 2.2-.9 3.4.3 1 1.9 1.4 3.1.7z" class="st7"/></g><path id="Shambles" d="M250.6 6.2s.5-.2 1.4-.4c1-.2 2.4-.5 4.3-.6 1.9-.1 4.3.1 7 .8 1.3.4 2.8.9 4.2 1.6.7.3 1.5.8 2.1 1.3.6.6 1.2 1.3 1.4 2.3.2.9-.1 1.9-.7 2.7-.6.8-1.4 1.4-2.3 1.8-.9.5-1.9.8-2.9 1.1-1 .2-2.1.4-3.2.5-4.3.6-9.2.7-14.2 0-5.1-.7-10.4-2.1-15.7-4.7-1.3-.6-2.6-1.4-3.7-2.5s-1.9-2.6-1.6-4.2c.2-1.6 1.5-2.9 2.8-3.7 1.4-.8 3-1.3 4.5-1.5 6.4-1.1 13.3-.8 20.1 1.2 3.4 1 6.7 2.5 9.8 4.4 1.6.9 3.1 2 4.4 3.4 1.3 1.3 2.5 2.9 3.2 4.7.7 1.8.7 3.9-.1 5.7-.7 1.8-2.1 3.4-3.7 4.5s-3.5 1.9-5.5 2.3c-2 .5-4 .7-6 .8-8.1.6-16.5-.5-24.5-3.5-2-.7-4-1.6-5.8-2.9-1.8-1.2-3.4-2.9-4-5.2-.3-1.1-.2-2.3.1-3.4.4-1.1 1-2.1 1.8-2.9 1.6-1.7 3.8-2.6 6-3 2.2-.5 4.5-.5 6.7-.6 2.3-.1 4.5.1 6.8.3 4.5.5 9 1.6 13.4 3.2s8.5 3.8 12.4 6.5c1.9 1.4 3.7 3 5.2 4.9 1.5 1.9 2.6 4.2 2.8 6.6.2 2.5-.6 4.9-1.9 7-1.3 2-3.2 3.8-5.4 4.9-4.4 2.4-9.4 2.9-14.3 2.9s-9.8-.5-14.6-1.5c-2.4-.5-4.7-1.1-7-1.9-2.3-.8-4.6-1.6-6.7-2.7-2.1-1.1-4.1-2.5-5.8-4.3-1.6-1.8-2.8-4.1-2.6-6.6 0-2.5 1.3-4.7 3-6.4 1.7-1.7 3.9-2.8 6.1-3.4 2.3-.6 4.6-.9 6.9-1.1 2.3-.1 4.6-.1 6.9.1 4.6.4 9 1.4 13.2 3 4.2 1.6 8.1 3.7 11.5 6.5 1.7 1.4 3.2 3.1 4.1 5.1 1 2 1.2 4.4.4 6.4-.8 2.1-2.5 3.6-4.2 4.8-1.8 1.1-3.8 1.9-5.8 2.5-4 1.1-8.1 1.6-12.2 1.5-4-.1-8-.9-11.7-2.2-1.9-.7-3.7-1.4-5.3-2.5-1.6-1.1-3.1-2.5-3.9-4.2-.9-1.7-1.2-3.8-.6-5.6.6-1.9 2-3.3 3.6-4.2 3.3-1.8 7.1-1.9 10.6-1.8 3.5.1 7 .7 10.2 1.7 1.6.5 3.2 1 4.7 1.8s2.9 1.7 3.9 3c.5.6.9 1.4 1.2 2.2.2.8.3 1.6.3 2.4-.1.8-.3 1.6-.6 2.3-.3.7-.7 1.4-1.2 2-1 1.2-2.2 2.2-3.5 2.9-1.4.7-2.8 1-4.3 1.2-2.9.3-5.8-.2-8.4-.7-1.3-.3-2.7-.5-3.9-.9s-2.5-.9-3.5-1.7c-1-.8-1.8-2-2-3.2-.3-1.3.2-2.6 1-3.5.8-.9 1.9-1.5 3-1.9 1.1-.4 2.2-.5 3.3-.6 4.4-.1 8.4 1.6 11 4.2 1.3 1.3 2.1 2.8 2.6 4.4.4 1.5.4 3.1.1 4.5-.6 2.7-2.2 4.7-3.6 5.9-1.5 1.2-3 1.6-3.9 1.6-.5.1-.9 0-1.1 0h-.4s.5.1 1.5 0 2.4-.5 3.9-1.7 3-3.1 3.6-5.8c.3-1.3.3-2.9-.1-4.4-.4-1.5-1.3-3-2.6-4.3-2.5-2.6-6.4-4.2-10.8-4.1-1.1 0-2.2.2-3.2.6-1.1.4-2.1 1-2.9 1.8-.8.8-1.2 2.1-.9 3.3.2 1.2 1 2.2 1.9 3 2 1.6 4.7 2 7.4 2.5s5.5 1 8.3.7c1.4-.2 2.9-.5 4.2-1.1 1.3-.6 2.5-1.6 3.4-2.8.5-.6.9-1.2 1.2-1.9.3-.7.5-1.4.6-2.2 0-.8 0-1.5-.3-2.3-.2-.7-.6-1.4-1.1-2-1-1.2-2.3-2.2-3.8-2.9-1.4-.7-3-1.3-4.6-1.8-3.2-1-6.6-1.6-10.1-1.7-3.5-.1-7.2 0-10.4 1.8-1.6.9-2.9 2.2-3.4 3.9-.5 1.7-.2 3.6.6 5.3.8 1.7 2.2 3 3.8 4 1.6 1 3.4 1.8 5.2 2.4 3.7 1.3 7.6 2 11.6 2.2s8.1-.3 12-1.5c2-.5 3.9-1.3 5.7-2.4 1.7-1.1 3.3-2.6 4-4.5.8-1.9.6-4.1-.4-6-.9-1.9-2.4-3.5-4-4.9-3.3-2.7-7.3-4.8-11.4-6.4-4.1-1.6-8.5-2.6-13-3-2.2-.2-4.5-.2-6.8-.1-2.3.2-4.6.4-6.8 1.1-2.2.6-4.3 1.7-5.9 3.3-1.6 1.6-2.8 3.7-2.8 6-.1 2.3 1 4.5 2.5 6.2 1.6 1.7 3.5 3.1 5.6 4.2 2.1 1.1 4.4 1.9 6.6 2.7 2.3.8 4.6 1.4 7 1.9 4.7 1 9.6 1.5 14.5 1.5 4.8 0 9.8-.5 14.1-2.9 2.1-1.1 3.9-2.8 5.2-4.8s2-4.3 1.9-6.6c-.1-2.3-1.2-4.5-2.6-6.4-1.4-1.9-3.2-3.4-5.1-4.8-3.8-2.7-8-4.9-12.3-6.5C253 8.6 248.5 7.5 244 7c-2.2-.2-4.5-.4-6.7-.3-2.2.1-4.5.1-6.6.6-2.1.4-4.2 1.3-5.7 2.9-1.5 1.5-2.3 3.7-1.8 5.8.5 2.1 2.1 3.7 3.8 4.9 1.7 1.2 3.7 2.1 5.7 2.8 7.9 3 16.3 4.1 24.3 3.5 4-.3 8-.8 11.2-3 1.6-1.1 2.9-2.6 3.6-4.3.7-1.7.7-3.7.1-5.4-.6-1.7-1.8-3.3-3.1-4.6-1.3-1.3-2.8-2.4-4.3-3.3-3.1-1.9-6.4-3.3-9.7-4.4-6.7-2-13.6-2.4-19.9-1.2-1.6.3-3.1.7-4.4 1.5-1.3.8-2.5 1.9-2.7 3.4-.2 1.5.5 2.9 1.5 3.9 1 1.1 2.3 1.8 3.6 2.5 5.2 2.5 10.5 4 15.6 4.7 5 .7 9.8.6 14.2 0 1.1-.1 2.1-.3 3.2-.5 1-.2 2-.6 2.9-1 .9-.4 1.7-1 2.2-1.8.6-.7.8-1.6.7-2.5-.1-.9-.7-1.6-1.3-2.1-.6-.6-1.3-1-2-1.3-1.4-.7-2.8-1.2-4.2-1.6-2.7-.7-5-.9-6.9-.8-1.9.1-3.3.3-4.3.5-.5.1-.8.2-1.1.2-1.2.1-1.3.1-1.3.1z" class="st6"/><g id="Character"><path d="M93.5 202.1s6.8-2.4 17.9-4.5c11.1-2.1 49.3-2.4 49.3-2.4s3.5 35.8 36 39.6c12.1 1.4 24.3-15.5 24.3-15.5s22.2 11.3 28.8 16.4c0 0 1.4 63 0 75.6-1.4 12.5-7.7 38.4-7.7 38.4H86v-62.2l7.5-85.4z" class="st7"/><path d="M107.4 275.2c-10.3 18.1-24.7 38.1-24.7 38.1l-60.7-29c0-1.4 35.1-60.2 48.7-70.6 13.6-10.4 28.2-15.9 38.2-13.1" class="st7"/><path d="M108.9 200.6s-.2 0-.6-.1c-.4-.1-1-.2-1.8-.3-1.6-.2-4-.3-7 .1s-6.6 1.4-10.6 3-8.4 3.9-12.9 6.9c-1.1.8-2.3 1.5-3.4 2.4-.6.4-1.1.9-1.7 1.3-.6.5-1.1.9-1.7 1.4-2.2 2-4.2 4.3-6.2 6.8-4 4.9-8 10.5-12.1 16.4-8.1 11.8-16.6 25.2-25.1 39.5-.6 1.1-1.3 2.2-1.9 3.3-.3.5-.6 1.1-.9 1.6l-.4.8c-.1.3-.3.6-.3.7l-.1-.2c23 11 44.1 21 60.7 29l-.2.1c8.1-11.3 14.3-20.8 18.5-27.5 2.1-3.3 3.7-6 4.7-7.8.5-.9.9-1.6 1.2-2 .3-.5.4-.7.4-.7s-.1.2-.4.7c-.3.5-.7 1.2-1.2 2.1-1 1.8-2.6 4.5-4.6 7.8-4.1 6.7-10.3 16.2-18.3 27.6l-.1.1-.1-.1c-16.7-7.9-37.7-17.9-60.8-28.9l-.2-.1v-.1c.1-.5.3-.7.4-1l.4-.8c.3-.5.6-1.1.9-1.6.6-1.1 1.2-2.2 1.9-3.3 8.4-14.3 16.9-27.6 25.1-39.5 4.1-5.9 8.1-11.4 12.2-16.4 2.1-2.5 4.1-4.8 6.3-6.8.6-.5 1.1-1 1.7-1.4.6-.4 1.2-.9 1.7-1.3 1.1-.9 2.3-1.6 3.4-2.4 4.6-3 9-5.3 13-6.9 4-1.6 7.7-2.5 10.7-2.9 3-.4 5.4-.3 7 0 .8.1 1.4.3 1.8.4.4.1.6.1.6.1zM111.2 203.4s.2.1.6.4c.4.3.9.7 1.5 1.3 1.3 1.2 3 3.2 4.5 6s2.8 6.4 3.4 10.6c.6 4.2.4 8.9-.3 13.6-1.5 9.6-4.4 17.9-7 23.8-1.3 2.9-2.4 5.2-3.3 6.8-.4.8-.8 1.4-1 1.8-.2.4-.4.6-.4.6l.3-.6c.2-.5.5-1.1.9-1.8.8-1.6 1.9-3.9 3.1-6.8 2.5-5.8 5.3-14.1 6.8-23.7.7-4.8.9-9.4.3-13.5-.5-4.1-1.8-7.7-3.2-10.5-1.4-2.8-3.1-4.8-4.3-6.1-1.2-1.3-1.9-1.9-1.9-1.9z" class="st6"/><path d="m265.7 321.2 27.2 26.4 38.2-21.7-38.6-66-35.8-24.1-5.8 78.2z" class="st9"/><path d="M304.6 184.3c-4.8-34.6-17.3-69.6-35.9-100.7l-4.8 19.9c6 16.1 10.8 32.6 14.4 49.4 1 4.6 1.9 9.4 1.1 14.1-.9 5.5-4.1 10.4-6.6 15.4-3.5 7.1-5.6 15.3-3.8 23 1.8 7.7 8.5 14.6 16.5 14.8 7.7.2 14.5-6 17.4-13.1 2.8-7.1 2.8-15.2 1.7-22.8z" class="st6"/><path d="M289.8 218.5h.8c.3 0 .6.1.9.1h1.2c1.9 0 4.6-.3 7.7-1.7 3.1-1.3 6.5-3.7 9-7.4 1.2-1.8 2.2-4 2.7-6.3.5-2.4.7-4.9.5-7.4-.3-5.1-1.8-9.9-3.1-14.1-1.4-4.3-2.8-8-4.1-11.1s-2.5-5.6-3.3-7.3c-.4-.8-.7-1.5-1-2-.2-.4-.3-.7-.3-.7s.1.2.4.6.6 1.1 1 1.9c.9 1.7 2.1 4.1 3.5 7.2 1.4 3.1 2.8 6.9 4.2 11.1 1.4 4.3 2.8 9.1 3.1 14.3.2 2.6 0 5.2-.5 7.6-.5 2.4-1.5 4.6-2.8 6.5-2.6 3.7-6.1 6.1-9.2 7.4-3.2 1.4-6 1.6-7.9 1.5-.5 0-.9 0-1.3-.1s-.6-.1-.9-.1c-.4.1-.6 0-.6 0zM160.3 83.6c-13.1 19.7-26.3 39.5-39.4 59.2-4.3 6.5-8.7 13.3-9.7 21-1.6 12.9 6.4 34.4 19.4 36.1 12.9 1.7 29.5 6.3 31.3-6.6l27.1-90.4-28.7-19.3M280.3 287.1c-1.1-11-5.9-21.2-10-31.4-9.3-23.1-15.4-47.5-18-72.3l-34 30.7c1.3 15.7 2.5 32.4-4.6 46.5-2 4-4.7 7.9-5 12.3-.6 8 6.4 14.4 8.4 22.1 1.5 6.1-.2 12.6-3.3 18s-7.5 10-11.7 14.6c-1.9 2-3.8 4.6-3 7.2.8 2.5 3.8 3.5 6.4 3.8 8.9 1.2 18.2-.6 26-5.1l1.2 5.4c13.2.1 26.4-5.6 35.4-15.4 8.9-9.6 13.5-23.3 12.2-36.4z" class="st6"/><path d="M166.9 76.2c17-14.3 37.4-20.6 59.3-16.9 12.4 2.1 17 5.6 25.4 9.6 8.4 4 15.5 10.3 19.4 18.8 4.6 10.1 8 21.1 7.2 32.1-.9 11.4-1.6 22.8-4.6 33.9-3 11.2-13.4 35.3-21.2 42.5l-24.5-13.3c-15.8-2.4-31.8-4.8-46.5-11.3-14.6-6.4-28-17.4-33.7-32.4-7.9-20.7 2.2-48.7 19.2-63z" class="st6"/><path d="m218.3 221.4 1.7-11s25.8 2.2 37.8-26.3c5.9-14.2 11.1-38.6 14.7-58.7 3.2-18.1-7.6-45.5-29.9-49.8l-9.7-3-40.7 8c-5.5-.7-10.7 2.9-11.9 8.3l-19.1 108.5c-.2 6.4 6.8 21.9 12.7 27.7 15.1 16.8 37.3 12.3 44.4-3.7z" class="st13"/><path d="M214.5 168.9c.5-1.5 1.6-2.8 2.9-3.5 2.6-1.5 5.9-1.1 7.9 1s2.8 5.7 1.8 8.8c-1.7 1.6-4 2.4-6.2 2.2-.4 0-.7-.1-1.1-.2-1.7-.4-3.3-1.3-4.4-2.8-1-1.5-1.5-3.6-.9-5.5z" class="st14"/><path d="M256.2 146.4c-.4 2-2.5 3.4-4.6 2.9-2.1-.4-3.5-2.4-3.1-4.4s2.5-3.4 4.6-2.9c2.1.4 3.5 2.3 3.1 4.4zM263.8 134.2c-.6.4-3-2.5-7.1-3.4-4.1-1-7.6.3-7.9-.3-.2-.3.5-1.1 2.1-1.7 1.5-.6 3.9-1 6.5-.4 2.5.6 4.5 2.1 5.5 3.4 1 1.2 1.2 2.3.9 2.4zM231.2 161.7c0-.2 2.7-.1 7 .4 1.1.1 2.1.2 2.5-.5.4-.7.3-1.9.1-3.3-.4-2.8-.8-5.7-1.1-8.7-1.5-12.4-2.4-22.5-1.9-22.5s2.1 9.9 3.7 22.3c.4 3.1.7 6 1 8.7.1 1.3.5 2.8-.5 4.2-.5.7-1.4 1.1-2.1 1.1-.7 0-1.3-.1-1.8-.2-4.4-.6-6.9-1.2-6.9-1.5z" class="st6"/><path d="M220.1 210.4s-20.3-3.6-37.2-20.3c0 0 5.6 23.2 36 27.6l1.2-7.3z" class="st14"/><path d="M252.9 110.1c1.2-.3 3.1 2.5 6 4.8 2.9 2.5 5.9 3.8 5.9 5.1 0 .6-1 1-2.7.9-1.6-.1-3.9-1-5.9-2.7-2-1.7-3.2-3.7-3.7-5.3-.4-1.6-.1-2.7.4-2.8zM211 138.8c-.5 2 .8 4.1 2.9 4.6s4.2-.6 4.7-2.6-.8-4.1-2.9-4.6c-2.1-.6-4.2.6-4.7 2.6zM208.1 122.2c.4.6 3.7-1 7.9-.1 4.1.8 6.7 3.5 7.3 3.1.3-.2 0-1.2-1.2-2.4-1.1-1.2-3.1-2.6-5.7-3.1s-4.9 0-6.4.7-2.1 1.5-1.9 1.8zM228.1 112.2c-.8-.9-4.1.1-8 .1-3.9.2-7.2-.6-8 .4-.3.5.2 1.4 1.6 2.3 1.4.9 3.8 1.6 6.5 1.5 2.7-.1 5-1 6.4-2 1.4-.8 1.9-1.8 1.5-2.3z" class="st6"/><path d="M176.1 140.4c.5-2.2-.8-8.1-2.9-8.9-5.6-2.3-16.2-4.4-19.9 10.4-5.1 20.2 16.3 21.1 16.5 20.6.1-.6 4.4-14.5 6.3-22.1z" class="st13"/><path d="M166 153.6c-.1-.1-.4.2-1.1.3-.6.1-1.7.1-2.6-.6-1.9-1.3-2.9-5.2-2.1-8.8.4-1.9 1.2-3.5 2.2-4.8 1-1.3 2.2-2.1 3.3-2 1.1 0 1.7.9 1.8 1.5.1.6-.1 1 0 1.1 0 .1.5-.2.6-1.1 0-.4-.1-1-.5-1.5s-1-.9-1.8-1c-1.6-.3-3.4.8-4.5 2.2-1.2 1.4-2.2 3.2-2.6 5.3-.9 4.1.2 8.4 3 10 1.3.7 2.6.6 3.4.3.7-.4 1-.8.9-.9z" class="st14"/><path d="m172.4 131.4 4.2 6.4c26.4-17.3 80.3-62.9 77.2-60.2 0 0-14.2-9.2-31.4-9.4s-50.4 2.2-53.6 22c-3.2 19.7 3.6 41.2 3.6 41.2zM227 176.6c-.1-.1 0-.4 0-.9s-.1-1.2-.5-1.9c-.2-.4-.5-.7-.9-1-.4-.3-.9-.6-1.4-.8-1.1-.5-2.5-.8-3.9-1.1-2.9-.5-5.5-.6-7.5-.5-1.9.1-3.2.1-3.2-.1s1.1-.7 3.1-1c2-.4 4.8-.4 7.9.1 1.5.3 3 .7 4.2 1.3.6.3 1.2.7 1.7 1.1.5.5.8 1 1 1.5.5 1 .4 2 .1 2.6-.2.6-.5.7-.6.7z" class="st6"/><path d="M236.5 110.5s.6.4 1 1.5c.5 1 .7 2.7.1 4.3-.6 1.6-2 2.7-3 3.1-1 .5-1.8.4-1.8.4 0-.1.7-.2 1.6-.7.9-.5 2.1-1.5 2.7-3 .6-1.5.4-3 .1-4-.3-1-.8-1.5-.7-1.6zM248 120.4c0 .1-.8.1-1.9-.3-1.1-.4-2.6-1.3-3.6-2.9-1-1.6-1.1-3.4-.9-4.5.2-1.2.6-1.8.6-1.8.1 0-.2.7-.3 1.8-.1 1.1.1 2.7 1 4.2s2.2 2.4 3.3 2.8c1.1.5 1.8.6 1.8.7zM206.6 146.4c0 .1-1.9-.3-3.5-1.9-1.6-1.6-2.1-3.4-2-3.5.1-.1.8 1.6 2.4 3.1 1.5 1.5 3.1 2.2 3.1 2.3zM256.2 152.5c0 .1-.7.5-1.6.7-1 .3-1.8.4-1.8.2s.7-.5 1.6-.7c1-.2 1.8-.3 1.8-.2zM255.5 154.5c0 .1-.4.4-1.1.6-.6.2-1.2.2-1.2.1s.4-.4 1.1-.6c.7-.2 1.2-.3 1.2-.1z" class="st14"/><path d="M283.5 113.9v-.8c0-.5.1-1.3.3-2.4.3-2.1 1-5 1.9-8.6.8-3.6 1.8-8 1-12.8-.4-2.4-1.2-4.8-2.8-6.9-.8-1-1.8-2-2.9-2.7-1.1-.8-2.4-1.3-3.7-1.8-2.6-.9-5.4-1.4-7.9-2.1-2.6-.6-5.1-1.2-7.5-1.7-4.8-1.1-9-2.1-12.7-2.9-3.6-.8-6.5-1.5-8.5-2-1-.2-1.7-.4-2.3-.6-.5-.1-.8-.2-.8-.2s.3 0 .8.1c.6.1 1.4.3 2.3.5 2.1.4 5 1.1 8.6 1.8 3.6.8 7.9 1.7 12.7 2.8 2.4.5 4.9 1.1 7.5 1.7 2.6.6 5.3 1.1 8 2.1 1.3.5 2.6 1.1 3.8 1.9s2.2 1.8 3 2.8c1.6 2.2 2.5 4.7 2.9 7.2.8 4.9-.2 9.4-1.1 12.9-.9 3.6-1.7 6.5-2 8.5-.2 1-.3 1.8-.4 2.3-.1.6-.1.9-.2.9zM127 182.2h-1.3c-.5 0-1 0-1.6-.1-.7 0-1.4-.2-2.2-.4-1.6-.4-3.6-1.1-5.7-2.3-2.1-1.2-4.3-3-6.2-5.4-1-1.2-1.9-2.5-2.7-4-.8-1.5-1.5-3.1-2-4.8-1-3.4-1.3-7.4-.9-11.4.8-8.1 4.7-16.4 10.6-23.6 5.9-7.2 12.6-13 18.6-18.3 6-5.3 11.4-10.1 15.9-14.2 4.5-4 8.2-7.2 10.8-9.5 1.3-1.1 2.2-2 2.9-2.6.3-.3.6-.5.8-.7.2-.2.3-.2.3-.2l-.2.2-.7.7c-.7.6-1.6 1.5-2.9 2.6-2.5 2.3-6.2 5.6-10.6 9.6-4.5 4.1-9.9 8.9-15.8 14.2-5.9 5.4-12.7 11.1-18.5 18.3-5.8 7.1-9.7 15.4-10.5 23.3-.4 4-.1 7.8.8 11.2.5 1.7 1.2 3.3 1.9 4.7.8 1.4 1.7 2.8 2.6 3.9 1.9 2.3 4 4.1 6.1 5.4 2 1.2 4 1.9 5.6 2.4.8.2 1.5.4 2.2.4.6.1 1.2.1 1.6.1h1c0 .5.1.5.1.5z" class="st6"/><path d="M284.6 93.2c-11-5.5-25.5-4.9-34.4 1.4l.1.1-7.5-.6c-8.3-5.8-24.8-9.4-35.4-5.6l-33.8 13.6-1.8 4.2 36.1-14.5.1.3c.8 3.6 4.7 15.2 5.9 17.2 1.7 2.8 17.7 4.5 21.6 2.3 3.8-2.1 6-13.6 7.1-16.1l7.7.6c.6 3.3 2.8 14.2 4.4 15.7 1.4 1.4 10.2 1.4 11.2 1.3.8 0 2 0 3.2-.1 3.3-.2 7.4-.7 8.6-1.9 1.9-1.8 4-8.7 5.9-15.3l.3-1.1c.1-.2.1-.4.1-.5l.6-1zM235 110.3c-3.9 2.2-18.8 0-19.9-1.8-.8-1.4-4.4-10.3-6-16.7 9.4-4 23.7-1.1 31.9 4.4-1.5 4.6-3.3 12.6-6 14.1zm47.5-14.8c-1 3.5-3.7 12.9-5.5 14.6-2.2 2.1-19.7 2-21.3.7-.9-.9-2.6-8.2-3.8-14 7.8-5.3 20.9-5.8 30.7-1.5-.1.1-.1.1-.1.2z" class="st4"/><g class="st5"><path d="M239.4 97.1s-2.2 11.2-5.5 11.6-6.2-17-6.2-17 9.8 2.5 11.7 5.4z" class="st10"/></g><g class="st5"><path d="M281.2 95.8s-2.3 12.8-5.5 13.1-9-15.7-9-15.7 12.6-.3 14.5 2.6z" class="st10"/></g><path d="M183.9 91.9c0 .1-1.1.8-2.8 2.3-1.7 1.5-3.8 3.8-5.6 6.7-1.9 2.8-3.3 5.6-4.4 7.6-1 2-1.7 3.2-1.8 3.2l.3-.9c.2-.6.6-1.4 1.1-2.4 1-2 2.4-4.8 4.3-7.7 1.9-2.9 4.1-5.2 5.8-6.7.9-.7 1.6-1.3 2.2-1.6.6-.4.9-.5.9-.5zM122.4 163.4v-1.1c0-.7.1-1.7.3-3 .4-2.6 1.1-6.3 2.8-10.6 1.6-4.4 4.1-9.3 7.5-14.4 3.4-5.1 7.8-10.3 12.8-15.3 5-5 10-9.5 14.5-13.6s8.6-7.8 11.9-11 5.9-6 7.6-7.9c.8-.9 1.5-1.7 2-2.2.2-.2.4-.4.5-.6l.2-.2s0 .1-.1.2c-.1.2-.3.4-.5.6-.4.5-1.1 1.3-1.9 2.3-1.7 2-4.2 4.8-7.5 8s-7.3 7-11.9 11.1c-4.5 4.1-9.5 8.6-14.5 13.6-4.9 5-9.3 10.1-12.8 15.2-3.4 5-5.9 10-7.6 14.3-1.6 4.3-2.5 8-2.9 10.5-.2 1.3-.3 2.3-.4 2.9 0 .3-.1.6-.1.8l.1.4z" class="st15"/><path d="M151.6 99.1s0-.2-.1-.6c0-.4-.1-1.1-.1-1.8 0-1.6.2-3.9.8-6.8.6-2.8 1.7-6.1 3.6-9.4 1.9-3.3 4.5-6.7 7.9-9.6 3.4-2.8 7.2-4.8 10.8-6 3.6-1.2 7.1-1.7 9.9-1.8 2.9-.1 5.2.2 6.8.5.8.1 1.4.3 1.8.4.4.1.6.2.6.2 0 .1-.9-.1-2.5-.4-1.6-.2-3.9-.4-6.8-.3s-6.2.7-9.8 1.9c-3.6 1.2-7.3 3.2-10.6 5.9-3.3 2.8-5.9 6.1-7.8 9.4-1.9 3.3-3 6.5-3.7 9.3s-.9 5.1-.9 6.7c.1 1.5.1 2.3.1 2.4z" class="st6"/><path d="M283.3 206.7s53.2 81.3 58.3 95.4c5.1 14.1.3 47.5-18 47.5-25.4-.1-31.8-10.8-39.1-28.2s-25.4-99.7-25.4-99.7l24.2-15z" class="st13"/><path d="M260 225.1c-1.8-7.5-11.6-19.7-7.6-28.9 3.2-7.5 10.4-17.3 12.8-22.4 2.4-5 3.7-20.5 3.7-20.5l1.1-18.7s-4.5-12.7-1.5-17.1c1.5-2.2 3.2-2.2 4.5-1.6 1.4.6 2.3 1.9 2.6 3.3l.7 3.5s2-2.7 5.4.3c3.4 3 6.5 23.2 7.9 30.3 1.5 8.1 1.1 12.7-.2 17.4-2.2 8-6.9 24.1-7.3 28.1s4.4 12.3 4.4 12.3" class="st13"/><path d="M286.4 211.4s-.1-.1-.3-.4-.4-.7-.7-1.3c-.6-1.1-1.5-2.8-2.3-5.1-.4-1.1-.9-2.4-1.1-3.9-.3-1.5.1-3.1.4-4.8.7-3.4 1.7-7.2 2.9-11.4s2.5-8.8 3.9-13.8c.7-2.5 1.1-5.1 1.1-7.9 0-2.8-.3-5.6-.8-8.5-1.1-5.8-2.1-11.9-3.5-18.1-.7-3.1-1.5-6.3-2.6-9.4-.6-1.5-1.2-3.2-2.6-4-.7-.5-1.4-.8-2.2-.8-.8 0-1.5.4-2 1l-.3.4-.1-.5c-.6-2.2-.4-5-2.5-6.3-.9-.6-2.2-.9-3.2-.3-1 .5-1.8 1.6-2.1 2.7-.4 1.3-.5 2.7-.4 4 0 1.3.2 2.7.5 4 .5 2.6 1.2 5.2 2 7.7v.2c-.4 6.8-.8 13.4-1.2 19.7-.3 3.2-.7 6.2-1.2 9.2-.5 3-1 5.9-1.9 8.7-.4 1.4-1.1 2.7-1.8 3.9l-2.1 3.6c-1.4 2.3-2.8 4.6-4.2 6.7-1.3 2.2-2.6 4.3-3.7 6.4-1.1 2.1-2.1 4.1-2.4 6.2-.3 2.1-.1 4.1.4 6 .5 1.9 1 3.6 1.7 5.1 1.3 3.1 2.6 5.7 3.6 7.9 1 2.1 1.7 3.9 2.1 5 .4 1.2.5 1.8.5 1.8s-.1-.1-.2-.5c-.1-.3-.2-.8-.4-1.3-.4-1.2-1.2-2.9-2.2-5-1-2.1-2.4-4.7-3.7-7.9-.7-1.6-1.2-3.3-1.7-5.2-.5-1.9-.7-4-.4-6.1 2.1-8.5 9.4-16.4 14.1-26.9.9-2.7 1.4-5.7 1.8-8.6.5-3 .8-6.1 1.1-9.2.4-6.3.8-12.9 1.2-19.7v.1c-.8-2.5-1.5-5.1-2-7.7-.2-1.3-.4-2.7-.5-4.1-.1-1.4 0-2.8.4-4.2.4-1.2 1.2-2.4 2.4-3 .6-.3 1.3-.4 1.9-.4.7.1 1.3.3 1.8.7 1.1.7 1.8 1.9 2 3.2.2 1.2.5 2.3.7 3.5l-.5-.1c.6-.7 1.5-1.2 2.4-1.2.9 0 1.8.4 2.5.9.4.3.7.5 1 .8s.5.7.8 1.1c.4.8.7 1.5 1 2.3 1.1 3.2 1.9 6.4 2.6 9.5 1.4 6.3 2.4 12.4 3.5 18.2.5 2.9.8 5.8.8 8.5 0 2.8-.5 5.5-1.2 8-1.4 5-2.7 9.6-3.9 13.8-1.2 4.2-2.2 8-2.9 11.4-.4 1.7-.7 3.3-.5 4.7.2 1.4.7 2.7 1.1 3.9.9 2.3 1.7 3.9 2.2 5.1.3.6.5 1 .7 1.3l.2.4z" class="st14"/><path d="M271.1 180.4c0 .1-1.1.7-3 1.9-1.8 1.1-4.3 2.8-6.5 5.2-2.2 2.4-3.4 5.2-3.8 7.3-.4 2.1-.1 3.5-.2 3.5 0 0-.1-.3-.2-.9-.1-.6-.1-1.5.1-2.6.3-2.2 1.5-5.1 3.7-7.6s4.9-4.1 6.7-5.2c1-.5 1.7-.9 2.3-1.2.5-.3.9-.4.9-.4zM278.6 157.7v-1.5c0-.9 0-2.3-.1-4-.1-3.4-.5-8.1-1.6-13.1-1-5-2.9-9.5-2.4-13 .3-1.7 1.2-2.9 2-3.5.4-.3.7-.4 1-.5.2-.1.4-.1.4-.1 0 .1-.5.2-1.2.8-.7.6-1.5 1.8-1.7 3.4-.2 1.6.2 3.6.8 5.8.6 2.2 1.3 4.5 1.8 7.1 1.1 5.1 1.4 9.8 1.4 13.2 0 1.7 0 3.1-.1 4-.3.9-.3 1.4-.3 1.4zM269.3 140.4c.1 0 .3.9.7 2.5.3 1.5.8 3.7.9 6.1.2 2.4 0 4.6-.1 6.2-.1 1.6-.3 2.5-.3 2.5-.1 0-.1-1 0-2.6 0-1.6.1-3.7-.1-6.1-.2-2.4-.5-4.5-.8-6.1-.2-1.5-.4-2.4-.3-2.5zM272.7 157.8s-.1-.4-.1-1.1c0-.8-.1-1.8-.2-3-.1-2.5-.5-6-1-9.8s-1.2-7.2-1.7-9.7c-.2-1.1-.5-2.1-.6-2.9-.1-.7-.2-1.1-.2-1.1s.2.4.4 1 .5 1.7.8 2.9c.6 2.4 1.4 5.9 1.9 9.7.5 3.8.8 7.3.9 9.8v3c-.2.8-.2 1.2-.2 1.2z" class="st14"/><path d="M274.6 157.5c0 .2-1.1.4-2.4.3s-2.4-.1-2.4-.3c0-.2 1.1-.4 2.4-.3s2.4.2 2.4.3zM278.6 157.7c0 .1-.2 0-.4-.1s-.5-.3-.8-.2c-.7.2-1.4 0-1.4-.2 0-.1.6-.2 1.4-.4.2 0 .5.1.6.1.2.1.3.2.4.3.1.3.2.4.2.5z" class="st14"/><path d="M11 310.7S-2.5 328.1.4 345.9c2.1 13.7 8.2 20.1 33.6 20 20.4-.1 105.4-27.4 105.4-27.4l7.1-33.8c1 1-80 14.3-80 14.3l7.4-9.7-47.8-23.2L11 310.7z" class="st13"/><path d="M191.8 278.4c1.3-.5 40.6-23.8 40.6-23.8l9.2-.6-5.3 8.2-47.5 27.8 3-11.6z" class="st15"/><path d="M121.7 312.8s10.3-2.5 11-3.6c.8-1 16.1-29.3 17.7-30.5 1.5-1.3 25-14.6 30.5-14.9s26.2 7.3 27.2 8.6c1 1.3 2.5 7.6-5 7.3-4.1-.1-4.4-.3-4.4-.3l1.8 10c.3 1.5-.8 2.9-2.3 3-1.5.1-3.1.2-3.1-.4 0-.6 0 3.9.1 7.4 0 2.3-2.1 4-4.3 3.4-2.4-.6-5-2-5.6-5.6l-4.4 5.5 3.1 7.3-.8 9.7s-6 .1-7.4-4.6c-1.8-5.8-1.3-6.8-1.3-6.8s-3.7 9.5-8.8 15.1C157.4 332.5 134 340 134 340l-12.3-27.2z" class="st13"/><path d="M165.4 289.7s.1 0 .2-.1.3-.1.6-.2c.5-.2 1.3-.5 2.2-.9 2-.8 4.8-1.8 8.3-3.1h.2c2.4 1.6 5.2 3.4 8.4 5.4l.1.1v.1c-.4 2.1-.3 4.4.4 6.7.4 1.1.9 2.3 1.7 3.1.9.9 2 1.4 3.3 1.7.6.2 1.3.3 1.9.3.6.1 1.2 0 1.7-.5.5-.4.6-1 .6-1.7V287.2c0-.9-.2-1.7-.6-2.5-.8-1.5-2-2.9-3.2-4.1-2.4-2.5-5-4.6-7.5-6.5-1.3-1-2.5-1.8-3.8-2.7-.6-.4-1.3-.8-1.9-1.1-.6-.3-1.3-.3-2-.3-2.8.3-5.2 1.4-7.4 2.3-4.4 1.9-7.8 3.8-10.2 5.1-1.2.6-2.1 1.1-2.7 1.5-.3.2-.5.3-.7.4-.2.1-.3.1-.3.1s1.3-.8 3.6-2.1 5.7-3.3 10.1-5.2c2.2-1 4.6-2 7.5-2.4.7 0 1.5-.1 2.2.3.7.4 1.3.8 1.9 1.2 1.3.8 2.5 1.7 3.8 2.7 2.5 1.9 5.2 4 7.6 6.5 1.2 1.3 2.4 2.6 3.3 4.2.4.8.7 1.8.7 2.7v13.4c0 .3 0 .7-.1 1.1-.1.4-.4.7-.6.9-.5.5-1.4.7-2.1.6-.7-.1-1.4-.2-2-.3-1.3-.3-2.5-.9-3.5-1.8s-1.5-2.2-1.8-3.3c-.8-2.4-.9-4.8-.4-6.9l.1.2c-3.1-2.1-5.9-3.9-8.3-5.5h.1c-3.5 1.3-6.3 2.3-8.3 3-.9.3-1.7.6-2.2.8-.2.1-.4.1-.6.2h-.3z" class="st14"/><path d="M195 292.1s.5.2 1.6.2c.5 0 1.1.1 1.8-.1s1.4-.7 1.7-1.5c.2-.4.3-.8.3-1.3s-.1-1-.2-1.5c-.2-1.1-.4-2.2-.6-3.4-.5-2.4-1-5-1.6-7.8-.3-1.4-.7-2.6-1.5-3.6s-1.8-1.9-2.7-2.6c-1.9-1.4-3.9-2.5-5.5-3.4-1.6-.9-3-1.5-3.9-2-.9-.5-1.4-.9-1.3-.9 0 0 .5.3 1.4.7.9.4 2.3 1 4 1.9 1.6.8 3.6 1.9 5.6 3.3 1 .8 2 1.6 2.8 2.7.2.2.4.6.6.9.2.3.3.6.5 1 .3.7.4 1.3.6 2 .7 2.7 1.2 5.4 1.6 7.8.2 1.2.4 2.3.6 3.4.1.5.2 1 .2 1.6 0 .5-.1 1-.4 1.5-.5.9-1.2 1.4-2 1.6-.8.2-1.4.1-1.9 0s-.9-.2-1.2-.3c-.4-.1-.5-.2-.5-.2zM146.8 334.4c-.1-.1 2-1.6 3.8-5.5 1.8-3.9 3.2-10.1 3.1-17.6v-.1l.1-.1c1.5-1.8 3.2-3.6 4.9-5.6l.1-.1h11.1c1.6.9 3.2 1.9 4.9 2.9l.2.1v.2c-.2 1.1-.1 2.4.2 3.6.3 1.2.9 2.4 1.5 3.5.7 1.2 1.6 2.4 2.8 3.1 1.2.7 2.6 1 3.9.7l-.2.2c.3-3.5.6-7 .9-10.2v.1c-2.2-5-4.7-9.5-7.8-12.8-1.5-1.7-3.5-2.6-5.4-3.2s-3.7-1-5.3-1.3c-3.3-.6-5.9-.8-7.7-1-1.8-.2-2.8-.3-2.8-.4 0 0 1 .1 2.8.2 1.8.1 4.5.3 7.8.9 1.6.3 3.5.7 5.4 1.3 1.9.6 4 1.5 5.6 3.2 3.2 3.3 5.8 7.9 8 12.9v.1c-.3 3.2-.6 6.7-.9 10.2v.2h-.2c-1.5.4-3 0-4.3-.8-1.3-.8-2.2-2-3-3.3-1.3-2.3-2.3-5-1.8-7.6l.1.3c-1.7-1-3.4-2-4.9-2.9h.1H159l.2-.1c-1.7 2-3.4 3.8-4.9 5.6v-.1c.1 7.6-1.4 13.8-3.3 17.8-.4 1-1 1.8-1.4 2.5-.5.7-.9 1.3-1.3 1.7-.4.4-.7.7-1 .9-.3.5-.5.6-.5.5z" class="st14"/><path d="M179.1 287.1c.1.2-2.2 1.1-4.7 2.9-1.2.9-2.3 1.8-3.2 2.4-.8.6-1.4.9-1.4.9 0-.1.4-.5 1.2-1.1.8-.7 1.8-1.6 3.1-2.5 1.3-.9 2.5-1.5 3.5-1.9.9-.6 1.5-.8 1.5-.7zM24.7 330.7s.4-.5 1.3-1.2c.4-.4 1-.8 1.6-1.3.6-.5 1.4-1 2.2-1.6.9-.6 1.8-1.2 2.8-1.7 1-.6 2.2-1.2 3.4-1.8 2.4-1.1 5.2-2.2 8.2-3 3-.8 5.9-1.3 8.6-1.6 1.3-.1 2.6-.2 3.8-.2h3.3c1 0 1.9.1 2.7.2.8.1 1.5.2 2.1.3 1.1.2 1.7.3 1.7.4 0 0-.6 0-1.8-.1-.6-.1-1.2-.1-2.1-.2s-1.7-.1-2.7-.1h-3.3c-1.2 0-2.4.1-3.8.3-2.6.3-5.5.8-8.5 1.6s-5.7 1.9-8.1 3c-1.2.6-2.4 1.1-3.4 1.7-1.1.5-2 1.1-2.8 1.7-.9.5-1.6 1.1-2.3 1.5-.7.4-1.2.9-1.7 1.2-.6.5-1.2.9-1.2.9z" class="st14"/></g></svg>