<svg xmlns="http://www.w3.org/2000/svg" viewBox="0 0 414.29 439.65" style="enable-background:new 0 0 414.29 439.65" xml:space="preserve"><style>.st2{fill:#ebebeb}.st3{fill:#0e213f}.st4{fill:#fff}.st5{fill:#263238}.st6{fill:#ffbe9d}.st7{fill:#eb996e}.st9{opacity:.3}.st13{fill:#455a64}</style><g id="Character"><path class="st2" d="M62.94 313.71c-1.56 2.75-2.78 5.86-2.45 9.01.33 3.15 2.59 6.26 5.72 6.68 2.31.31 4.62-.86 6.27-2.51s2.76-3.75 3.89-5.79c5.37-9.64 13.16-17.44 20.58-25.6-13.53-.98-27.32 6.41-34.01 18.21zM403.13 180.85c-8.7-4.29-19.4-.24-26.81 6.03-7.41 6.27-12.88 14.58-20.3 20.83-13.23 11.15-32.49 14.64-48.79 8.85l-2.3.23c9.5 8.68 20.36 15.88 32.06 21.26 13.96 6.42 29.92 10.22 44.73 6.12 16.78-4.66 30.07-19.98 32.3-37.25 1.28-9.98-1.87-21.62-10.89-26.07zM41.99 160.58c-15.96-5.57-29.45-17.88-36.44-33.27-6.99-15.39-7.4-33.65-1.09-49.33 3.76-9.36 11.82-18.78 21.87-17.77 9.59.96 15.73 11.13 17.02 20.69 1.87 13.8-2.95 27.49-5.86 41.11-2.91 13.62-3.45 29.24 5.42 39.98M221.69 71.87c1.57-3.5 6.51-4.67 10.12-5.96 3.62-1.28 7.49-2.17 10.53-4.5 5.61-4.29 6.82-12.05 9.1-18.73 1.54-4.52 3.85-8.96 7.6-11.92 3.75-2.96 9.18-4.14 13.42-1.95 4.83 2.49 6.79 8.35 7.57 13.72 1.06 7.27.52 15.37-4.29 20.93-6.16 7.12-16.93 7.62-26.3 6.69-9.36-.95-19.4-2.64-27.75 1.72M358.91 274.98c-5.83-13.55-16.94-24.73-30.43-30.69 7.63 6.84 12.25 23.85 11.22 34.04-1.02 10.2-12.14 19.11-20.99 24.28-3.75 2.19-7.96 3.65-11.31 6.42-8.7 7.17-8.37 22.01-.5 30.09 7.87 8.07 21.11 9.4 31.39 4.77 10.28-4.63 17.69-14.28 21.65-24.83 5.29-14.12 4.91-30.25-1.03-44.08z"/><path class="st3" d="M52.42 171.23c-32.91-13.19-43.25 29.61-43.25 29.61-6.87 22.66-7.93 47.67 1.71 67.23 5.95 12.06 22.14 24.23 35.57 23.79 7.93-.26 15.01-4.85 21.32-9.65 6.31-4.8 12.58-10.11 20.22-12.25s17.19 0 20.79 7.06c.84-7.58-4.31-15.38-11.61-17.59-7-2.12-14.56-3.41-21.78-2.26-11.99 1.91-23.81-2.1-22.23-17.07 0 0 .94-10.68 4.22-18.85 3.28-8.18 17.05-41.2-4.96-50.02z"/><path class="st4" d="M31.77 181.45c-4.07 1.51-6.87 5.85-8.76 9.76-.52 1.07-1.01 2.23-.88 3.41.13 1.18 1.12 2.35 2.31 2.25 1.51-.13 2.13-1.93 2.66-3.35.97-2.6 2.75-4.9 5.04-6.48.79-.54 1.64-1.01 2.29-1.72.65-.71 1.05-1.74.71-2.63-.4-1.07-1.74-1.55-2.87-1.35-1.13.2-2.1.9-3.02 1.59M46.02 183.14c-4.07 1.51-6.87 5.85-8.76 9.76-.52 1.07-1.01 2.23-.88 3.41.13 1.18 1.12 2.35 2.31 2.25 1.51-.13 2.13-1.93 2.66-3.35.97-2.6 2.75-4.9 5.04-6.48.79-.54 1.64-1.01 2.29-1.72.65-.71 1.05-1.74.71-2.63-.4-1.07-1.74-1.55-2.87-1.35-1.13.2-2.1.9-3.02 1.59M30.25 200.52c-2.61-.36-5.21 1.14-6.82 3.22-1.61 2.08-2.42 4.67-3.09 7.21-.22.85-.36 1.92.35 2.44.56.41 1.37.21 1.98-.13 2-1.11 3.11-3.31 4.85-4.79.32-.27.67-.52 1.08-.64.41-.11.88-.07 1.19.21.32.27.43.71.53 1.12.2.86.41 1.72.61 2.58.25 1.03.58 2.19 1.53 2.67.97.49 2.2.02 2.92-.79.67-.76 1.01-1.78 1.1-2.79.09-1.01-.05-2.03-.25-3.03-.38-1.95-.99-3.94-2.3-5.43-1.31-1.5-3.46-2.4-5.35-1.75"/><path class="st3" d="M296 234.64c-8.06-10.27-20.38-16.66-33.17-19.26-18.47-3.76-37.62-.15-56.41-1.63-35.74-2.81-69.07-25.69-85.19-57.6-9.26-30.75.07-40.87 10.36-52.33s23.66-19.75 37.49-26.53c10.11-4.96 22.06-10.11 31.17-16.72 1.63-1.18 3.23-2.86 4.76-4.89 4.03-5.36 6.24-11.42 6.83-17.54C213.65 19.3 199.51 2.65 180.7.58l-.82-.09c-13.66-1.59-21.07 1.13-30.89 3.28-32.74 7.19-61.9 29.29-77.67 58.87-15.77 29.58-21.2 65.11-8.91 96.3 5.12 13.01 23.32 47.13 35.16 54.55 13.94 13.27 31.78 22.47 50.44 27.54 23.89 6.48 49.14 6.57 73.72 3.64 12.11-1.45 24.37-3.62 36.43-1.78 12.06 1.84 24.21 8.65 28.6 20.03 4.39 11.38-2.46 26.81-14.59 28.13 12.94 1.7 26-7.3 30.58-19.53 4.57-12.25 1.32-26.61-6.75-36.88z"/><path class="st3" d="M264.17 112.87c-3.08-2.37-14.5-7.05-14.5-7.05s12.73-2.41 18.75 1.94 15.12 11.07 15.12 11.07-6.29-10.97-13.09-13.86c-4.91-2.09-11.87-4.56-15.36-5.77a3.64 3.64 0 0 0-3.53.63c-1.6 1.32-4.73 3.15-9.89 3.41-8.2.42-24.34-8.03-35.58-5.16-11.24 2.87-32.2 35.78-40.47 36.01-8.27.23-26.39-44.66-26.39-44.66l-8.74 13.96c.82 1.01 23.37 60.31 39.45 50.35 16.07-9.95 24.03-39.3 34.4-40.97 10.37-1.67 22.46 6.01 24.05 7.9 1.58 1.89 5.92 2.91 5.14 6.72s-3.17 20.97-3.17 20.97 10.63-22.87 8.59-25.63c-2.03-2.76-2.59-6.95-2.59-6.95s4.9 1.69 6.48 5.93c1.58 4.25 11.34 22.15 11.34 22.15s-2.42-20.64-6.22-24.94c-3.8-4.3-6.5-6.81-6.5-6.81l6.61-1.15 13.59 4.6 11.55 13.28c0 .01-5.96-13.6-9.04-15.97z"/><path class="st4" d="M168.82 64.01c-.3-1.57-2.04-2.46-3.64-2.6-1.6-.14-3.21.23-4.8.04-3.13-.36-5.72-2.88-6.85-5.81-1.13-2.94-1.01-6.22-.41-9.31.23-1.16.52-2.33.36-3.5-.15-1.17-.87-2.35-2.01-2.65-.63-.17-1.34.08-1.8.53-.76.62-.76.62-.85.8-3.69 5.09-3.89 13.51-.78 18.88 3.21 5.54 9.99 8.78 16.32 7.8 1.13-.18 2.27-.49 3.17-1.19.89-.71 1.5-1.87 1.29-2.99zM166.12 25.12s-13.34 11.56-6.9 16.41c6.44 4.85 7.95 3.49 7.95 3.49l-1.05-19.9zM188 61.1s-14.61 4.71-16.21-2.39c-1.14-5.07 1.81-7.14 1.81-7.14L188 61.1z"/><path class="st3" d="M377.8 110.24c-2-15.24-5.81-30.64-14.55-43.28-8.74-12.64-23.15-22.14-38.51-21.75-15.36.39-30.48 12.69-31.06 28.04-.43 11.38 6.46 21.6 13.15 30.82 6.69 9.22 13.79 19.2 13.87 30.59.08 11.39-10.81 23.34-21.59 19.65-6-2.05-9.74-7.96-15.01-11.48-10.1-6.75-25.79-2.31-30.86 8.72 1.26-1.9 10.74-7.27 19.31-4.48 22.94 7.45 18.54 26.27 36.64 34.2 21.89 9.59 50.28.23 62.17-20.5 8.59-14.98 8.68-33.38 6.44-50.53z"/><path class="st4" d="M344.97 77.63c-7.34.89-11.11 5.27-12.5 11.67-.19.85-.29 1.78.09 2.65.38.88 1.4 1.68 2.39 1.61 1.35-.09 1.75-1.52 2.02-2.68.6-2.58 1.95-5.03 4.36-6.4s6.02-1.43 8.64.34c1.14.77 2.22 1.89 3.55 1.94 1.25.04 2.11-1.02 2.06-2.13-.04-1.11-.78-2.2-1.66-3.11-2.27-2.37-5.7-3.85-8.95-3.89zM331.97 55.14c5.72 1.27 10.25 6.56 13.5 11.44.89 1.34 1.76 2.79 1.8 4.4.04 1.61-1.07 3.35-2.68 3.43-2.04.1-3.2-2.19-4.16-3.99-1.77-3.3-4.57-6.04-7.92-7.73-1.15-.58-2.38-1.05-3.37-1.88-.99-.83-1.72-2.13-1.44-3.39.34-1.51 2.04-2.39 3.59-2.33 1.55.06 2.97.82 4.32 1.57M315.96 60.71c5.72 1.27 10.25 6.56 13.5 11.44.89 1.34 1.76 2.79 1.8 4.4.04 1.61-1.07 3.35-2.68 3.43-2.04.1-3.2-2.19-4.16-3.99-1.77-3.3-4.57-6.04-7.92-7.73-1.15-.58-2.38-1.05-3.37-1.88-.99-.83-1.72-2.13-1.44-3.39.34-1.51 2.04-2.39 3.59-2.33 1.55.06 2.97.82 4.32 1.57"/><path class="st5" d="M390.32 418.23c0 .14-84.38.26-188.44.26-104.1 0-188.46-.12-188.46-.26s84.36-.26 188.46-.26c104.06 0 188.44.12 188.44.26zM252.72 246.02c-1.93-6.13-3.85-12.25-5.78-18.38-1.51-4.82-2.92-10.47.01-14.59 1.14-1.6 2.87-2.84 3.45-4.71.77-2.44-.67-4.96-1.39-7.41-1.59-5.46.41-11.22 1.39-16.83.98-5.6.39-12.42-4.44-15.42-2.35-1.45-5.33-1.72-7.52-3.41-3.12-2.4-3.65-6.78-5.17-10.41-1.88-4.48-5.62-8.14-10.13-9.92-4.51-1.78-9.75-1.67-14.18.32l-3.97 2.99c-5.23 14.95-5.75 31.12-5.16 46.95.59 15.83 2.24 31.68 1.11 47.48-.43 6.01-1.09 12.64 2.47 17.5 3.23 4.41 9 6 14.37 7.02 5.36 1.02 10.84 1.75 16.28 1.26 5.44-.49 10.88-2.27 15.04-5.81 2.5-2.13 4.54-4.99 4.96-8.25.37-2.84-.49-5.66-1.34-8.38z"/><path class="st6" d="m244.77 244.29 30.43-27.2s-24.62 1.83-39.56 3.5l-1.61-13.89s31.2-7.16 41.18-9.72c9.97-2.56 19.61-2.66 29.08-2.99 9.46-.33 11.08 5.04 11.59 7.34.51 2.3 1.22 13.77-7.85 24.6-6.88 8.21-43.55 47.26-43.55 47.26l-19.71-28.9z"/><path class="st7" d="M299.49 210.4c.02.03-.23.3-.72.78-.24.24-.55.53-.93.83-.38.31-.8.68-1.3 1.02-.99.73-2.24 1.5-3.69 2.23-1.46.71-3.13 1.38-4.94 1.88-1.82.49-3.59.76-5.21.89-1.62.1-3.09.08-4.31-.05-.61-.04-1.16-.14-1.64-.21-.48-.07-.89-.16-1.22-.24-.67-.16-1.03-.27-1.02-.3.02-.1 1.5.25 3.92.39 1.21.08 2.65.06 4.25-.06 1.59-.16 3.33-.44 5.11-.92 1.78-.5 3.42-1.14 4.87-1.81 1.44-.7 2.69-1.42 3.69-2.1 1.98-1.36 3.07-2.41 3.14-2.33z"/><path class="st6" d="M84.5 190.74s-4.33 3.36-6.22 10.26c-2.77 10.12 7.82 19.78 7.82 19.78s45.89 43.84 46.2 44.46c.31.62 11.5-32.65 11.5-32.65L116.12 213s15.03.43 23.63.62c9.3.2 22.04 2.21 22.04 2.21v-17.1c0 .01-62.37-15.14-77.29-7.99z"/><path class="st7" d="M89.99 212.09c-.01-.01.06-.1.21-.24.15-.14.41-.33.78-.5.73-.34 1.94-.55 3.36-.23 1.42.29 2.93 1.07 4.69 1.56 1.77.51 3.78.8 5.91.86 4.26.09 8.13-.44 10.94-.61 1.4-.11 2.54-.17 3.33-.2s1.22-.02 1.23.01c0 .04-.43.1-1.21.19-.89.1-2 .22-3.31.36-2.8.27-6.66.86-10.99.77-2.16-.06-4.23-.37-6.03-.92-1.81-.54-3.3-1.35-4.64-1.67-1.34-.35-2.48-.21-3.2.06-.73.28-1.04.61-1.07.56z"/><path d="m310.24 225.88-35.04-8.79-29.87 21.1s-5.06-3.04-8.05-1.66c-2.99 1.38-8.72 5.52-8.72 5.52l-10-5.24-37.54 2.76-6.98 6.07s-1.46-3.59-3.72-1.93c-2.27 1.66-4.16 1.38-4.16 1.38s-2.25-6.35-6.94-8.83c-4.69-2.48-14.85-6.3-16.56-5.89-1.72.41-13.7-11-13.7-11l-7.48-5.57s-38.09 4.23-38.64 6.98c-.55 2.75 8.97 16.97 10.91 16.97l6.4 2.1s1.72 7.73 7.49 12.97C113.4 258.06 133 271.5 133 271.5s-8.93 55.84-13.16 66.06c-4.23 10.21-7.54 23.46-6.44 36.16 1.1 12.7 6.44 49.13 6.44 49.13l28.34-8.83 111.78-3.31 21.25 4.97s-1.38-29.81-2.48-45.82-2.48-49.41-7.18-69.28c-4.69-19.87-3.59-29.07-3.59-29.07s34.5-32.76 37.26-37.17c2.77-4.43 6.15-5.36 5.02-8.46z" style="fill:#ab2931"/><path d="M248.08 302.43s12.17 21.43 13.13 33.56c.96 12.14-9.84 31.79-9.84 31.79l-10.91-15.8 7.62-49.55zM159 300.75c-10.92 10.06-17.24 24.04-23.09 37.68-5.65 13.17-11.18 26.55-13.57 40.69a95.656 95.656 0 0 0 2.45 42.45l44.99-16.6-3.78-55.53-7-48.69z" class="st9"/><path class="st5" d="M152.28 370.21 166 349.44l74.45 2.54 10.92 15.8-49.59 31.66z"/><path class="st4" d="m185.16 248.68-8.72 14.29s.01 11.32-2.03 16.12c-2.04 4.8-15.69 22-15.69 22l7.27 48.36s32.72 26.17 74.45 2.54l7.63-49.56s-7.5-10.36-13.13-15.53c-5.63-5.17-9-18.05-10.02-25.19l-3.66-11.28c.01 0-26.22 9.6-36.1-1.75z"/><path d="M220.55 310.71c-1.17-.84-3.56-.75-5.01-.87-5.12-1.16-9.69-5.03-14.99-5.13-2.91-.05-5.7 1.05-8.4 2.13-3.48 1.4-6.97 2.8-10.36 4.41-.91.43-1.84.9-2.52 1.64-.68.74-1.08 1.84-.74 2.79.35.97 1.39 1.57 2.42 1.68 1.03.12 2.06-.16 3.05-.46 5.1-1.52 10.21-3.65 15.52-3.31 5.65.36 10.82 3.5 16.45 4.03 1.3.12 2.64.1 3.85-.4 1.21-.49 2.25-1.52 2.48-2.81.25-1.4-.57-2.85-1.75-3.7zm-5-.87 2.29.31c-.78-.03-1.54-.14-2.29-.31z" style="fill:#f5f5f5"/><path class="st5" d="M195.49 305.27c.02.03-.26.24-.78.6s-1.3.83-2.3 1.36c-2 1.06-4.93 2.23-8.32 2.91-3.4.67-6.56.69-8.8.48-1.12-.11-2.03-.24-2.65-.38-.62-.13-.95-.22-.95-.25.02-.09 1.39.15 3.62.27 2.23.12 5.33.04 8.68-.62 3.34-.67 6.24-1.77 8.26-2.73 2.02-.97 3.19-1.71 3.24-1.64zM185.33 350.28c-.06.11-2.17-1.24-3.88-3.75-1.73-2.5-2.23-4.95-2.1-4.96.15-.05.86 2.26 2.53 4.67 1.65 2.42 3.55 3.91 3.45 4.04zM216.2 318.31c-.01.03-.47-.12-1.28-.41-.81-.3-1.99-.73-3.45-1.22-2.92-.97-7.04-2.21-11.72-2.54-2.34-.14-4.57.01-6.57.36-.5.1-.98.2-1.45.3-.47.11-.91.26-1.34.39-.88.22-1.64.58-2.36.85-1.4.62-2.52 1.19-3.25 1.65-.74.44-1.17.67-1.19.64-.02-.03.36-.32 1.08-.81.7-.52 1.8-1.14 3.21-1.81.72-.29 1.49-.68 2.38-.93.44-.13.89-.29 1.36-.42.48-.11.97-.21 1.47-.33 2.03-.38 4.31-.55 6.69-.41 4.77.34 8.91 1.65 11.81 2.72 1.45.54 2.61 1.02 3.4 1.38.79.35 1.22.56 1.21.59zM175.75 264.7c-.04 0-.07-.57-.14-1.6-.07-1.03-.17-2.53-.37-4.36-.12-.91-.18-1.95-.45-2.96-.14-.5-.36-1-.74-1.36-.38-.37-.9-.58-1.47-.61-1.15-.05-2.34.47-3.43 1.2-1.11.68-2.35 1.57-3.92 1.55h-.49l.29-.4c.02-.03.05-.07.08-.11 3.28-4.69 6.8-8.52 9.51-11.09 1.36-1.29 2.5-2.28 3.31-2.95.81-.66 1.28-1 1.3-.98.02.03-.4.42-1.16 1.13-.77.71-1.87 1.74-3.18 3.06a83.32 83.32 0 0 0-9.34 11.13l-.08.11-.21-.41c1.34.02 2.52-.77 3.64-1.47 1.12-.73 2.41-1.32 3.73-1.24.66.04 1.31.3 1.76.76.46.45.69 1.03.84 1.58.26 1.1.3 2.11.4 3.04.16 1.85.2 3.36.21 4.39-.02 1.01-.05 1.58-.09 1.59zM166 291.21c.01.01-.15.25-.47.68-.35.47-.83 1.1-1.42 1.89-1.26 1.63-3.03 4.02-5.21 6.98-4.3 5.96-10.11 14.31-15.58 24.09-2.74 4.89-5.18 9.64-7.24 14.04-2.03 4.41-3.78 8.42-5.12 11.85-.7 1.7-1.28 3.26-1.8 4.62-.53 1.36-.96 2.54-1.31 3.51-.34.93-.62 1.67-.82 2.22-.19.51-.3.77-.32.76-.02-.01.06-.28.22-.8.18-.56.42-1.31.73-2.25.32-.98.72-2.17 1.22-3.54.49-1.38 1.05-2.95 1.73-4.66 1.29-3.45 3.01-7.48 5.02-11.92 2.04-4.42 4.47-9.2 7.22-14.1 5.49-9.81 11.36-18.15 15.74-24.06 2.22-2.94 4.04-5.29 5.34-6.88l1.5-1.83c.37-.4.56-.61.57-.6zM145.74 278.79c-.03-.01.1-.55.36-1.52.13-.49.3-1.08.53-1.76.23-.68.47-1.46.8-2.3.61-1.7 1.47-3.67 2.5-5.82 1.06-2.14 2.31-4.45 3.76-6.79 2.92-4.68 6.02-8.6 8.41-11.3 1.19-1.35 2.19-2.42 2.91-3.13.71-.71 1.12-1.1 1.14-1.07.03.02-.33.45-1 1.21-.67.75-1.62 1.85-2.77 3.23a101.49 101.49 0 0 0-8.24 11.34c-1.44 2.33-2.7 4.61-3.77 6.73-1.05 2.13-1.93 4.07-2.59 5.75-.35.83-.62 1.59-.87 2.26-.26.67-.46 1.25-.61 1.72-.33.94-.52 1.46-.56 1.45zM148.03 242.75c.03.02-.27.43-.82 1.15-.56.71-1.34 1.77-2.28 3.08a81.31 81.31 0 0 0-6.5 10.82 81.748 81.748 0 0 0-4.69 11.72 93.89 93.89 0 0 0-1.08 3.68c-.24.87-.39 1.36-.42 1.35-.04-.01.05-.5.23-1.39.17-.89.48-2.17.92-3.74.87-3.13 2.37-7.39 4.58-11.85 2.22-4.45 4.7-8.22 6.67-10.81.98-1.3 1.81-2.32 2.42-2.99.6-.68.95-1.04.97-1.02zM135.52 225.1c.02.01-.03.15-.14.4-.1.26-.26.64-.53 1.1-.52.92-1.44 2.19-2.89 3.44-1.45 1.24-3.4 2.44-5.7 3.45-2.3 1.02-4.92 1.86-7.7 2.64-5.57 1.55-10.76 2.3-14.53 2.59-1.88.16-3.41.19-4.47.21-1.06 0-1.64-.02-1.64-.06 0-.04.58-.09 1.63-.15 1.05-.08 2.57-.17 4.44-.37a87.18 87.18 0 0 0 14.42-2.73c2.76-.78 5.37-1.6 7.65-2.58 2.28-.97 4.21-2.11 5.66-3.29 2.93-2.38 3.69-4.74 3.8-4.65zM228.56 242.05c.03-.01.24.44.57 1.26.33.83.79 2.03 1.31 3.53 1.04 3.01 2.32 7.22 3.45 11.94.46 1.91.86 3.76 1.19 5.46l.16.8-.57-.58c-1.23-1.23-2.4-2.34-3.63-3.04-.61-.36-1.24-.58-1.83-.81-.59-.21-1.14-.38-1.65-.44-1.04-.15-1.76.38-2.1.81-.36.44-.48.73-.52.71-.01-.01.01-.08.07-.22.05-.14.16-.34.32-.59.18-.23.42-.53.81-.74.38-.21.9-.33 1.45-.28.55.04 1.13.2 1.74.4.6.2 1.27.42 1.92.79 1.31.71 2.53 1.84 3.77 3.06l-.42.22c-.35-1.69-.76-3.53-1.22-5.44-1.12-4.71-2.34-8.92-3.29-11.95-.46-1.44-.85-2.64-1.15-3.58-.28-.82-.41-1.29-.38-1.31zM249.35 256.92c-.08.01-.26-1.03-.57-2.7-.32-1.67-.8-3.97-1.47-6.48-.67-2.51-1.4-4.74-1.96-6.35-.56-1.61-.92-2.6-.85-2.63.06-.03.55.92 1.2 2.5.65 1.58 1.44 3.82 2.12 6.34.67 2.53 1.1 4.86 1.33 6.55.22 1.71.27 2.77.2 2.77zM254.79 258.48c-.09.01-.24-1.24-.68-3.2-.44-1.97-1.24-4.64-2.53-7.43a37.65 37.65 0 0 0-4.06-6.72c-1.22-1.6-2.08-2.52-2.01-2.58.03-.02.26.18.67.58.41.39.97 1 1.63 1.78 1.31 1.56 2.92 3.9 4.25 6.73 1.31 2.83 2.07 5.57 2.42 7.58.18 1 .28 1.82.32 2.39.02.55.03.87-.01.87zM270.28 248.76c.03.01-.05.45-.23 1.22-.17.78-.41 1.9-.64 3.3-.48 2.8-.9 6.71-1.13 11.04-.22 4.34-.25 8.27-.21 11.11.02 1.34.05 2.47.06 3.37.02.8.01 1.24-.02 1.24-.04 0-.1-.43-.18-1.23-.08-.79-.17-1.95-.23-3.37-.14-2.85-.17-6.8.05-11.15.24-4.35.71-8.28 1.29-11.08.27-1.4.57-2.52.81-3.29.24-.75.39-1.17.43-1.16zM303.17 236.65c-.01.04-.58-.03-1.62-.18-1.13-.18-2.6-.41-4.39-.69-3.7-.6-8.81-1.47-14.45-2.46-2.82-.49-5.52-.95-7.92-1.69-2.4-.71-4.46-1.71-6-2.82-1.55-1.1-2.58-2.27-3.18-3.14-.31-.43-.51-.79-.63-1.04s-.18-.38-.17-.39c.09-.09 1.08 2.16 4.19 4.26 1.53 1.04 3.56 1.99 5.92 2.66 2.36.69 5.05 1.14 7.87 1.63 5.64.99 10.74 1.91 14.42 2.61 1.77.35 3.24.63 4.36.85 1.04.23 1.6.36 1.6.4zM251.37 366.28c-.01 0 .04-.1.13-.27.11-.2.24-.46.42-.78.38-.67.9-1.69 1.58-2.99 1.32-2.62 3.11-6.5 4.83-11.45.83-2.49 1.66-5.25 2.23-8.27.53-3 .98-6.39-.03-9.66-1.2-3.27-2.22-6.79-3.4-10.37-1.16-3.59-2.79-7.15-4.47-10.79-1.7-3.63-3.52-7.1-5.59-10.25a48.606 48.606 0 0 0-3.27-4.48c-1.15-1.4-2.39-2.66-3.56-3.96-2.35-2.57-4.58-5.01-6.67-7.3-1.09-1.13-1.78-2.53-2.43-3.8-.64-1.3-1.19-2.56-1.68-3.79-1.95-4.9-3.12-9.02-3.76-11.89-.33-1.44-.52-2.57-.64-3.33-.05-.36-.09-.65-.11-.87-.02-.2-.03-.3-.02-.3.01 0 .03.1.07.29.04.22.1.51.17.87.14.76.37 1.88.73 3.3.7 2.85 1.92 6.94 3.91 11.8.5 1.21 1.06 2.47 1.7 3.75.66 1.27 1.32 2.6 2.39 3.7 2.1 2.27 4.33 4.7 6.69 7.25 1.16 1.29 2.43 2.56 3.6 3.98 1.17 1.41 2.27 2.93 3.31 4.51 2.09 3.18 3.93 6.67 5.63 10.31 1.69 3.64 3.32 7.23 4.48 10.85 1.18 3.61 2.18 7.11 3.37 10.38 1.05 3.45.54 6.86 0 9.89-.59 3.05-1.44 5.82-2.3 8.32-1.78 4.97-3.62 8.82-5 11.43-.71 1.29-1.26 2.3-1.67 2.95-.19.31-.34.56-.46.75-.11.14-.17.22-.18.22z"/><path d="M239 270.36a65.223 65.223 0 0 0-8.12-22.83c1.09 5.54 2.88 11.23 3.97 16.77-2.2-2.82-8.49-6.3-9.91-2.59l.55 2.95c4.13 1.38 7.85 3.95 10.6 7.32.48.59 1.08 1.26 1.83 1.16 1.09-.14 1.25-1.67 1.08-2.78zM245.4 238.71c-.74 1.51-.03 3.28.58 4.84 1.45 3.66 2.42 7.52 2.87 11.43.17 1.45.3 2.99 1.19 4.15.89 1.16 2.85 1.6 3.77.47.58-.73.51-1.77.38-2.69a38.035 38.035 0 0 0-8.04-18.37M266.13 225.9c.33 2.17 1.73 4.07 3.46 5.41 1.74 1.34 3.8 2.19 5.87 2.92 7.88 2.79 16.55 4.17 24.62 1.98-5.88-.97-11.77-1.94-17.65-2.92-3.03-.5-6.08-1.01-8.97-2.06-2.89-1.05-5.63-2.69-7.53-5.1M165.61 245.03c-8.29 5.16-15.23 12.46-19.99 20.98-.92 1.64-1.75 3.33-2.42 5.09-.45 1.18-.6 2.89.58 3.34 1.12.42 2.12-.79 2.71-1.83 5.55-9.72 12.07-18.89 19.43-27.33M175.68 270.97c-.05-4.12-.09-8.24-.14-12.36-.02-1.87-.36-3.54-1.89-4.6-1.12-.78-2.25-.48-3.49.1-1.23.58-2.44 1.39-3.44 1.83l-.27.13a17.62 17.62 0 0 0-2.86 5.93c1.44 0 2.72-.86 4.03-1.45s3.03-.86 4.06.14c.69.67.86 1.7.99 2.65.63 4.53 1.25 9.06 1.88 13.59 1.14-1.71 1.16-3.9 1.13-5.96zM99.2 239.03c7.73 2.86 16.55 2.63 24.11-.64 4.35-1.88 8.5-5.02 9.97-9.53-10.44 6.12-21.71 8.94-33.77 10.01" class="st9"/><path class="st4" d="M109.64 237.72c-.09.01-.29-1.34-.88-3.44-.59-2.1-1.67-4.94-3.4-7.79a32.703 32.703 0 0 0-5.35-6.61c-1.59-1.5-2.7-2.29-2.65-2.37.02-.03.31.15.83.49.52.34 1.23.88 2.07 1.61 1.68 1.44 3.78 3.71 5.55 6.61 1.76 2.9 2.8 5.82 3.31 7.97.26 1.08.41 1.96.47 2.57.07.62.09.96.05.96zM126.22 231.37c-.09.02-.35-1.18-1.08-3-.72-1.82-2-4.23-3.94-6.51-1.95-2.27-4.13-3.92-5.81-4.91-1.68-1-2.83-1.45-2.79-1.54.01-.03.31.05.83.24.53.18 1.27.51 2.14.98 1.76.93 4.03 2.57 6.02 4.9 1.98 2.33 3.24 4.84 3.88 6.72.32.94.53 1.72.63 2.27.12.54.16.85.12.85zM137.69 255.88c-.02.03-.41-.15-1.11-.51-.7-.36-1.7-.91-2.92-1.61-2.43-1.41-5.72-3.5-9.18-6.05-3.46-2.56-6.42-5.09-8.49-7-1.03-.96-1.85-1.75-2.4-2.31-.55-.56-.84-.89-.82-.91.02-.03.36.25.96.77.67.59 1.51 1.32 2.5 2.19 2.12 1.84 5.11 4.31 8.55 6.85 3.44 2.54 6.68 4.67 9.06 6.16 1.12.7 2.07 1.28 2.83 1.75.68.39 1.04.64 1.02.67zM149.42 241.58c-.07.13-4.59-2.2-10.1-5.19s-9.92-5.52-9.85-5.65c.07-.13 4.59 2.2 10.1 5.19s9.92 5.52 9.85 5.65zM154.22 259.88c-.13.12-2.15-2.85-5.89-4.99-3.71-2.19-7.29-2.49-7.25-2.66 0-.06.89-.07 2.3.21 1.4.27 3.31.9 5.21 2 1.9 1.11 3.38 2.46 4.31 3.55.94 1.08 1.37 1.86 1.32 1.89zM162.38 249.75c-.09.01-.14-.92-.52-2.33-.37-1.41-1.18-3.3-2.57-5.04-1.4-1.74-3.06-2.94-4.35-3.62-1.29-.68-2.19-.93-2.16-1.02.01-.05.94.07 2.32.69 1.37.61 3.14 1.82 4.6 3.63 1.44 1.81 2.23 3.81 2.52 5.28.3 1.47.21 2.41.16 2.41zM143.29 286.06c-.08.04-.49-.66-1.32-1.64-.83-.99-2.13-2.22-3.83-3.22a15.18 15.18 0 0 0-4.68-1.76c-1.27-.24-2.08-.26-2.08-.35 0-.06.82-.17 2.14-.02 1.32.15 3.12.65 4.89 1.67 1.76 1.03 3.08 2.37 3.85 3.44.78 1.08 1.08 1.85 1.03 1.88zM165.16 291.87c-.01.07-1.17-.02-3.04-.3-1.86-.28-4.43-.77-7.21-1.5-2.79-.73-5.26-1.56-7.02-2.24-1.76-.67-2.82-1.17-2.79-1.23.03-.07 1.13.3 2.92.88 1.79.58 4.26 1.35 7.03 2.08 2.77.73 5.3 1.27 7.14 1.65 1.83.36 2.98.58 2.97.66zM174.92 272.02c0 .04-.34.05-.96.06-.62.01-1.51-.04-2.6-.15-2.19-.22-5.2-.79-8.37-1.94-3.16-1.16-5.84-2.67-7.65-3.91-.91-.62-1.62-1.16-2.08-1.56-.47-.4-.72-.63-.69-.66.05-.07 1.13.76 2.98 1.91 1.85 1.16 4.51 2.59 7.63 3.73 3.12 1.14 6.08 1.76 8.24 2.07 2.14.3 3.5.36 3.5.45zM182.25 252.11c-.07.05-.46-.49-1.22-1.21a10.71 10.71 0 0 0-3.43-2.14c-1.49-.56-2.95-.7-3.99-.65-1.05.04-1.69.2-1.71.11-.02-.05.6-.34 1.69-.48 1.08-.14 2.63-.06 4.2.53 1.57.59 2.8 1.55 3.51 2.37.72.82 1 1.45.95 1.47zM146.02 317c-.01.03-.34-.05-.91-.24-.58-.18-1.39-.5-2.39-.94-1.98-.87-4.63-2.32-7.26-4.34-2.62-2.03-4.7-4.22-6.05-5.91-.68-.85-1.19-1.56-1.52-2.07-.33-.51-.5-.8-.47-.82.07-.05.85 1.03 2.26 2.65a44.5 44.5 0 0 0 6.08 5.74c2.59 1.99 5.17 3.47 7.09 4.42 1.96.95 3.2 1.43 3.17 1.51zM131.36 344.68c-.04.06-.76-.36-1.85-1.12-1.1-.76-2.57-1.88-4.1-3.23-1.53-1.35-2.84-2.66-3.73-3.65-.9-.99-1.4-1.65-1.35-1.69.11-.1 2.38 2.28 5.43 4.95 3.03 2.67 5.69 4.61 5.6 4.74zM122.27 377.65c-.04.05-.76-.42-1.79-1.35-1.03-.92-2.35-2.33-3.58-4.05-1.23-1.72-2.16-3.4-2.77-4.63-.61-1.24-.92-2.03-.86-2.06.16-.08 1.65 2.99 4.06 6.39 2.39 3.41 5.04 5.57 4.94 5.7zM267.84 277.8c.02.03-.4.31-1.18.79-.77.49-1.94 1.13-3.41 1.85-1.47.73-3.28 1.47-5.33 2.18-2.06.68-4.37 1.32-6.83 1.78-2.47.44-4.85.68-7.02.77-2.17.07-4.13.01-5.76-.14-1.63-.15-2.95-.33-3.85-.51-.9-.17-1.39-.29-1.39-.32.01-.04.51.01 1.42.12.9.12 2.22.25 3.84.34 1.62.11 3.57.12 5.71.03 2.15-.12 4.5-.36 6.95-.8 2.44-.46 4.73-1.07 6.77-1.72 2.04-.68 3.85-1.38 5.33-2.06 1.48-.67 2.67-1.26 3.47-1.69.8-.43 1.26-.65 1.28-.62zM237.15 266.11c.05.12-2.42 1.11-5.66 1.35-3.24.26-5.84-.35-5.8-.47.02-.16 2.6.21 5.76-.05 3.16-.23 5.65-.98 5.7-.83zM248.27 253.97c-.01.09-.92.01-2.36.13-1.44.11-3.43.49-5.46 1.37-2.03.88-3.66 2.07-4.73 3.05-1.07.97-1.64 1.69-1.71 1.63-.04-.03.42-.83 1.46-1.9 1.03-1.07 2.68-2.35 4.77-3.26 2.09-.9 4.16-1.24 5.64-1.26 1.5-.02 2.4.18 2.39.24zM252.68 250.26c.08.11-.74.78-1.99.94-1.25.17-2.22-.27-2.16-.39.04-.15.97.03 2.1-.12 1.12-.14 1.98-.56 2.05-.43zM272.46 230.71c.03.02-.2.3-.62.79-.42.49-1.06 1.16-1.88 1.97a57.558 57.558 0 0 1-6.91 5.75c-2.88 2.03-5.66 3.59-7.73 4.59-1.03.5-1.89.88-2.48 1.12-.6.24-.93.35-.95.32-.03-.08 1.25-.68 3.26-1.77 2.02-1.08 4.75-2.68 7.6-4.69 2.85-2.01 5.27-4.05 6.96-5.59 1.69-1.54 2.69-2.55 2.75-2.49zM291.46 235.54c.03.01-.14.45-.49 1.24-.34.79-.89 1.9-1.64 3.24-1.49 2.68-3.88 6.21-7.1 9.62-3.23 3.4-6.62 5.99-9.21 7.62-1.29.82-2.37 1.44-3.14 1.81-.76.39-1.19.59-1.21.55s.38-.29 1.11-.73c.73-.43 1.78-1.09 3.04-1.94 2.52-1.7 5.84-4.31 9.04-7.67 3.19-3.38 5.6-6.84 7.16-9.45.78-1.3 1.38-2.38 1.77-3.14.4-.75.64-1.16.67-1.15zM292.53 221.83c.06.01 0 .84-.4 2.13-.39 1.29-1.18 3.01-2.46 4.63s-2.77 2.8-3.93 3.48c-1.16.69-1.96.94-1.98.88-.1-.15 3.02-1.49 5.5-4.68 2.53-3.16 3.11-6.5 3.27-6.44zM243.26 240.11c-.01.09-.84-.03-2.18 0-1.33.03-3.17.26-5.08.94a16.56 16.56 0 0 0-4.52 2.5c-1.05.82-1.62 1.44-1.68 1.38-.04-.03.43-.74 1.44-1.66 1.01-.92 2.61-2 4.58-2.71 1.98-.71 3.9-.89 5.26-.82 1.38.07 2.2.31 2.18.37zM230.7 250.4c-.1.12-1.46-.97-3.42-1.8-1.95-.84-3.68-1.07-3.66-1.22 0-.13 1.83-.14 3.87.74 2.04.86 3.31 2.19 3.21 2.28zM272.65 306.13c.02.03-.2.21-.62.52-.42.31-1.06.72-1.87 1.18-1.62.92-4.01 1.97-6.8 2.64-2.79.66-5.39.81-7.26.72-.93-.04-1.69-.12-2.2-.21-.52-.08-.8-.15-.79-.18.01-.09 1.15.03 3 .02 1.84-.01 4.4-.21 7.13-.86 2.73-.66 5.1-1.63 6.75-2.46 1.64-.82 2.61-1.44 2.66-1.37zM275.47 330.82c.04.04-.52.69-1.62 1.52-1.1.83-2.77 1.79-4.79 2.43-2.02.63-3.94.8-5.32.75-1.38-.05-2.21-.25-2.2-.31 0-.17 3.42.33 7.36-.94 3.96-1.22 6.47-3.6 6.57-3.45zM278.21 365.98c.01.04-.33.13-.94.28-.61.15-1.51.31-2.63.44-2.24.28-5.39.34-8.81-.2-3.42-.55-6.39-1.6-8.43-2.57-1.02-.48-1.83-.91-2.36-1.25-.54-.33-.83-.53-.81-.56.04-.08 1.26.6 3.32 1.47 2.06.87 5 1.84 8.36 2.39 3.36.53 6.46.53 8.69.35 2.23-.17 3.6-.44 3.61-.35zM279.6 390.01c.02.03-.31.24-.92.58-.6.35-1.52.8-2.67 1.29-2.3.99-5.64 2.02-9.45 2.48-3.81.44-7.3.2-9.76-.23-1.23-.21-2.22-.43-2.89-.64-.67-.19-1.04-.32-1.03-.35.02-.09 1.52.3 3.98.63 2.45.33 5.89.51 9.65.08 3.75-.45 7.06-1.41 9.37-2.3 2.31-.9 3.67-1.62 3.72-1.54z"/><path d="M216.46 151.42c-1.13-2.45-3.02-4.69-5.59-5.51-2.56-.83-5.79.16-6.91 2.61l6.04 6.81c.62.98 1.45 1.87 2.52 2.35 1.06.48 2.38.48 3.34-.18.91-.63 1.38-1.77 1.4-2.88s-.34-2.19-.8-3.2z" style="fill:#ff725e"/><path class="st5" d="M233.27 182.3c-1.04-11.55-7.14-22.77-16.92-29-9.78-6.23-23.15-6.85-32.94-.64-6.22 3.95-10.69 10.29-13.27 17.2-2.57 6.91-1.46 12.63-1.4 20 .03 3.82.52 14.08 3.81 16.01l51.43 9.23c6.6-9.54 10.33-21.25 9.29-32.8z"/><path class="st5" d="M231.46 173.45c-1.15-6.86-7.86-13.53-13.08-18.13-5.96-5.25-6.8-5.01-14.74-5.21-8.37-.21-17.52-.18-24.06 5.06-3.62 2.9-5.97 7.09-7.86 11.33-4.36 9.8-3.69 20.99-2.36 31.63s3.59 20.69 12.3 26.94l36.61-5.67c8.08-2.99 10.77-12.22 13.05-20.52 2.29-8.31 1.56-16.94.14-25.43z"/><path class="st6" d="M170.62 180.28c.51-10.07 11.23-20.25 21.27-19.31l32.59 5.79-.04 5.41-3.16 78.25c-25.74 9.83-36.11-1.74-36.11-1.74l1.8-16.49s-12.88-1.98-15.75-18.72c-1.42-8.32-1.17-22.01-.6-33.19z"/><path class="st5" d="M178.1 192.71c-.03 1.14.91 2.1 2.1 2.14 1.18.05 2.17-.83 2.19-1.97.03-1.14-.91-2.1-2.1-2.15-1.18-.03-2.16.85-2.19 1.98zM174.91 188.54c.27.28 1.89-.95 4.2-.97 2.31-.05 4.02 1.12 4.27.83.12-.13-.16-.63-.9-1.16-.73-.53-1.98-1.03-3.42-1.01-1.44.03-2.65.57-3.34 1.12-.71.55-.95 1.06-.81 1.19zM200.13 192.71c-.03 1.14.91 2.1 2.1 2.14 1.18.05 2.17-.83 2.19-1.97.03-1.14-.91-2.1-2.1-2.15-1.18-.03-2.17.85-2.19 1.98zM198.04 187.97c.27.28 1.89-.95 4.2-.97 2.31-.05 4.02 1.12 4.27.83.12-.13-.15-.63-.9-1.16-.73-.53-1.98-1.03-3.42-1.01-1.44.03-2.65.57-3.34 1.12-.71.56-.94 1.07-.81 1.19zM188.82 204.78c.01-.13-1.43-.36-3.77-.63-.59-.05-1.15-.16-1.26-.57-.14-.43.1-1.07.37-1.76.54-1.44 1.1-2.94 1.69-4.52 2.35-6.44 4.04-11.73 3.78-11.82-.26-.09-2.38 5.05-4.73 11.49-.56 1.59-1.11 3.1-1.62 4.55-.22.67-.59 1.44-.28 2.32.16.44.6.75.98.85.38.11.71.11 1.01.13 2.36.1 3.82.09 3.83-.04z"/><path class="st7" d="M186.97 232.23s11.86.55 22.96-6.3c0 0-5.52 11.81-22.9 10.48l-.06-4.18zM189.86 210.35c.82-1.11 2.27-1.73 3.72-1.59 1.01.1 2.03.57 2.65 1.38.62.81.76 1.97.22 2.76-.61.89-1.92 1.1-3.02.8-1.11-.3-2.07-1.02-2.98-1.73-.25-.2-.51-.4-.67-.68-.16-.27-.2-.63-.01-.86"/><path class="st5" d="M189.7 213.93c.33.18 1.38-2.1 4.08-2.83s5.01.64 5.18.33c.1-.13-.34-.69-1.35-1.19-.99-.5-2.61-.85-4.26-.4-1.65.45-2.77 1.54-3.28 2.44-.53.91-.53 1.59-.37 1.65zM206.79 182.76c-.04-.67-2.34-1.05-4.84-2.14-2.53-1.04-4.4-2.43-4.91-2-.23.21-.04.89.64 1.73.67.83 1.84 1.79 3.35 2.43 1.51.64 3.01.82 4.08.72 1.07-.1 1.69-.43 1.68-.74zM182.21 179.19c-.67-.26-2.17 1.06-4.24 2.08-2.04 1.08-4 1.52-4.17 2.21-.06.33.44.67 1.43.75.97.08 2.42-.16 3.83-.88 1.41-.72 2.45-1.75 2.94-2.58.5-.84.51-1.44.21-1.58zM181.89 156.3c-6.18 4.18-10.45 11.07-12.52 18.62l1.02 6.2c1.45-3 1.63-6.22 4.59-9.3 1.99-2.07 5.67-4.02 9.58-5.01 11.17-2.84 14.94-6.9 19.87-14.2-7.25-1.81-16.37-.5-22.54 3.69z"/><path class="st5" d="M230.13 172.69c-3.11-11.2-13.28-20.09-24.8-21.69l-.91 1.61c-2.83 3.31-5.66 6.61-8.49 9.92-.71.83-1.44 1.71-1.6 2.79-.21 1.44.68 2.84 1.81 3.76 2.69 2.2 6.46 2.34 9.94 2.43 3.48.09 7.28.38 9.81 2.76 3.15 2.97 3.09 8.01 2.02 12.2-1.06 4.2-1.48 10.97-1.04 15.27.39 3.86 5.49-5.52 8.85-3.57.94.54-1.59 15.69-.61 15.23.96-.46.87-5.91 1.19-6.93 1.72-5.49 3.45-11 4.37-16.68.91-5.67 1-11.56-.54-17.1z"/><path class="st7" d="M223.28 208.21c.05-.03.17.14.47.3.29.16.79.28 1.34.12 1.12-.33 2.15-2 2.32-3.86.09-.94-.05-1.85-.33-2.61-.26-.78-.72-1.34-1.26-1.47-.54-.16-.95.14-1.09.42-.16.28-.11.49-.16.5-.03.02-.21-.19-.1-.61.06-.2.19-.44.45-.62.26-.19.63-.26 1.01-.2.79.11 1.46.89 1.77 1.73.36.84.53 1.87.43 2.92-.2 2.08-1.4 3.95-2.92 4.28-.74.14-1.33-.12-1.63-.38-.29-.27-.33-.51-.3-.52z"/><path class="st13" d="M223.22 159.13s1.66 1.81 3.68 5.21c1.03 1.69 2.05 3.81 3.03 6.23.96 2.43 1.75 5.2 2.3 8.17 1.12 5.95.66 11.5-.17 15.34-.08.49-.21.94-.33 1.37-.12.43-.23.83-.33 1.21-.19.76-.44 1.39-.63 1.91-.19.49-.33.89-.45 1.19-.11.27-.17.41-.18.41-.01 0 .03-.15.12-.43.1-.3.23-.71.39-1.21.17-.52.41-1.15.58-1.92.1-.38.2-.78.31-1.21.11-.43.23-.88.3-1.37.77-3.84 1.19-9.34.07-15.24-.55-2.94-1.32-5.7-2.26-8.12-.95-2.41-1.95-4.53-2.95-6.23-.24-.43-.48-.83-.7-1.22-.24-.37-.47-.72-.68-1.05-.21-.33-.41-.63-.59-.91s-.37-.52-.53-.74c-.31-.43-.55-.77-.74-1.03-.16-.22-.25-.35-.24-.36z"/><path class="st13" d="M224.21 162.27c.01 0-.01.11-.06.32-.06.2-.17.5-.41.83-.46.68-1.47 1.37-2.83 1.83-1.37.45-3.01.85-4.85 1.26-1.84.39-3.9.74-6.07.89-2.18.15-4.26.08-6.14-.18a23.23 23.23 0 0 1-4.87-1.21c-1.34-.5-2.37-1.04-3.05-1.45-.35-.2-.6-.38-.77-.5-.17-.12-.26-.19-.25-.2.02-.03.39.21 1.09.59.7.37 1.73.88 3.07 1.35 1.33.47 2.98.88 4.83 1.13 1.85.24 3.92.3 6.08.15 4.31-.32 8.15-1.28 10.87-2.04 1.34-.43 2.33-1.06 2.8-1.69.49-.62.52-1.09.56-1.08z"/><path class="st13" d="M222.35 158.71c.01.01-.05.08-.17.21-.12.13-.29.33-.54.55-.49.46-1.25 1.07-2.29 1.68-2.06 1.23-5.34 2.25-9.01 2.27-3.68.02-6.93-.73-9.25-1.3-1.16-.29-2.09-.55-2.73-.74-.64-.19-.99-.3-.99-.32.01-.02.37.05 1.02.2.7.16 1.63.38 2.75.64 2.32.51 5.56 1.22 9.19 1.2 3.62-.02 6.85-.99 8.91-2.15 2.09-1.15 3.06-2.3 3.11-2.24zM220.24 157.57c.01.02-.25.11-.73.25-.48.15-1.17.32-2.05.51-1.74.37-4.19.7-6.92.69-2.72-.02-5.17-.38-6.91-.77-.87-.19-1.57-.38-2.04-.53-.47-.15-.73-.24-.73-.26.01-.02.28.03.76.14.48.12 1.18.27 2.05.43 1.74.33 4.17.65 6.87.67 2.7.01 5.13-.28 6.87-.59.87-.15 1.57-.3 2.06-.41.49-.1.77-.15.77-.13z"/><path class="st13" d="M206.46 148.77c.02.01-.07.27-.25.74s-.47 1.13-.87 1.93c-.8 1.6-2.11 3.72-3.9 5.8-1.8 2.07-3.71 3.67-5.18 4.69-.73.51-1.35.9-1.79 1.14-.44.25-.68.37-.69.35-.01-.02.21-.18.63-.46.42-.27 1.01-.69 1.72-1.22 1.43-1.06 3.29-2.67 5.07-4.72 1.77-2.05 3.09-4.13 3.94-5.7.42-.78.75-1.42.96-1.88.21-.44.34-.68.36-.67z"/><path class="st13" d="M169.77 170.94c-.01-.01.05-.1.18-.27s.31-.42.56-.73c.5-.62 1.25-1.5 2.25-2.52s2.28-2.16 3.83-3.24c.78-.53 1.63-1.05 2.55-1.52.92-.46 1.91-.87 2.95-1.21 4.17-1.36 8.21-1.5 11.04-1.21 1.42.14 2.56.35 3.34.54.39.08.69.18.89.23.2.06.31.09.3.11-.01.02-.44-.07-1.22-.22s-1.92-.33-3.33-.44c-2.82-.23-6.8-.06-10.92 1.28-4.14 1.31-7.27 3.86-9.28 5.82-1.02.99-1.79 1.84-2.32 2.44-.24.28-.44.5-.61.69-.12.18-.2.26-.21.25zM177.52 159.84c-.01-.02.27-.2.79-.52.26-.16.58-.35.97-.55.39-.2.82-.44 1.32-.65.5-.22 1.04-.47 1.65-.68.6-.24 1.26-.43 1.95-.64 1.39-.38 2.95-.7 4.61-.87 1.66-.15 3.25-.14 4.69-.04.72.07 1.4.13 2.03.25.64.09 1.22.22 1.75.34.54.11 1 .26 1.42.38.42.11.77.24 1.05.35.57.21.88.34.87.36-.01.02-.33-.07-.91-.24-.29-.09-.64-.2-1.06-.3-.42-.1-.89-.24-1.42-.33-.53-.11-1.11-.23-1.74-.3-.63-.11-1.31-.15-2.02-.22-1.43-.09-3-.09-4.64.07-1.64.17-3.18.48-4.57.84-.69.2-1.34.38-1.94.6-.6.2-1.15.43-1.65.63-.51.19-.94.42-1.33.6-.39.18-.72.35-.99.5-.51.29-.82.44-.83.42z"/><path class="st7" d="M182.36 195.7c.05.03-.11.45-.61.94-.5.49-1.39 1.02-2.49 1.09-1.1.07-2.05-.34-2.61-.76-.57-.42-.78-.81-.73-.85.06-.05.36.23.93.54.56.31 1.42.61 2.38.55.96-.06 1.77-.47 2.29-.85.51-.38.77-.71.84-.66zM205.35 195c.05.03-.09.4-.51.85-.42.45-1.16.97-2.1 1.17-.95.2-1.83.04-2.4-.2-.58-.24-.85-.51-.82-.57.06-.14 1.4.63 3.11.26 1.7-.36 2.61-1.62 2.72-1.51zM187.56 176.89c.05-.04.3.13.52.56a2.395 2.395 0 0 1-1.17 3.21c-.44.19-.75.16-.76.1-.02-.08.24-.17.58-.42.33-.24.74-.65.95-1.21.2-.57.15-1.15.05-1.54-.09-.41-.23-.65-.17-.7zM190.94 181.03c-.04.05-.31-.08-.6-.47-.29-.38-.52-1.04-.48-1.77.05-.73.37-1.36.7-1.7.33-.35.62-.44.65-.39.09.11-.77.83-.83 2.12-.11 1.29.66 2.12.56 2.21z"/><path class="st5" d="M160.07 372.03s-31.49-13.8-40.7-14.1c-7.87-.26-21.37 3.28-25.25 11.62-3.88 8.35-2.69 19.69.03 23.96 2.72 4.27 31.07 17.9 44.66 23.14 13.59 5.24 56.49 16.89 56.49 16.89l60.18-3.88s17.73-15.27 20.45-18.38c2.72-3.11 20.87-20.14 22.82-22.86 1.94-2.72 7.21-19.6 1.39-26.2-5.82-6.6-9.65-10.77-18-10.18s-14.08 1.59-24.61 9.28c-8.1 5.92-11.38 8.18-19.6 10.05-8.21 1.88-24.34 6.66-37.43 5.59-13.08-1.06-40.43-4.93-40.43-4.93z"/><path class="st13" d="M130.53 370.21c0-.01.1.03.27.11.2.09.45.21.77.36.7.34 1.68.82 2.93 1.43 2.57 1.28 6.22 3.11 10.72 5.36 4.52 2.28 9.89 5.01 15.82 8.12 5.92 3.14 12.41 6.58 19.24 10.2 9.58 5.09 18.52 9.84 26.02 13.82l.19.1-.09.19c-3.55 7.1-6.5 13.01-8.58 17.18-1.03 2.04-1.84 3.65-2.41 4.79-.27.53-.48.94-.64 1.26-.15.28-.22.43-.23.43-.01 0 .04-.16.17-.45.15-.32.34-.75.59-1.29.55-1.15 1.33-2.78 2.31-4.84 2.04-4.19 4.94-10.13 8.42-17.27l.09.29c-7.52-3.97-16.47-8.7-26.06-13.76-6.82-3.62-13.34-7.04-19.21-10.23-5.91-3.13-11.27-5.89-15.77-8.21-4.47-2.31-8.1-4.18-10.65-5.5-1.23-.64-2.2-1.15-2.89-1.51-.31-.17-.55-.3-.75-.4-.18-.12-.27-.17-.26-.18zM248.08 373.14c0 .01-.07.06-.21.16-.17.12-.39.26-.66.44-.58.39-1.44.94-2.56 1.63-2.25 1.37-5.52 3.34-9.76 5.43-4.22 2.09-9.43 4.31-15.48 5.88a63.35 63.35 0 0 1-9.65 1.71c-3.39.31-6.92.36-10.52.16-7.21-.44-13.97-1.84-19.97-3.53-6.01-1.69-11.28-3.65-15.67-5.38-4.38-1.73-7.89-3.24-10.31-4.29-1.18-.52-2.11-.93-2.78-1.22-.29-.14-.53-.24-.72-.33-.16-.08-.24-.12-.24-.13 0-.01.09.02.26.08.19.07.44.17.74.28.68.27 1.62.65 2.81 1.14 2.44.99 5.96 2.45 10.36 4.14 4.4 1.68 9.67 3.6 15.66 5.27 5.99 1.66 12.72 3.04 19.88 3.48 3.58.2 7.08.16 10.44-.15 3.36-.32 6.57-.9 9.58-1.66 6.02-1.54 11.21-3.7 15.44-5.75 4.24-2.04 7.54-3.96 9.81-5.28 1.11-.66 1.98-1.17 2.61-1.55.28-.16.5-.29.68-.4.17-.1.25-.14.26-.13z"/><path class="st13" d="M205.32 404.96c-.03 0-.11-.34-.22-.98-.11-.63-.22-1.56-.3-2.7-.18-2.29-.17-5.47.06-8.97.23-3.49.54-6.64.71-8.92.19-2.28.27-3.69.35-3.69.04 0 .06.36.06 1 .01.64-.01 1.57-.05 2.72-.09 2.29-.34 5.45-.57 8.93-.23 3.48-.3 6.63-.21 8.91.09 2.29.25 3.69.17 3.7zM234.95 374.04c.02.08-1.22.45-3.18 1.16-1.97.7-4.64 1.77-7.49 3.2-2.84 1.43-5.3 2.95-7.03 4.11-1.74 1.16-2.78 1.93-2.83 1.87-.02-.03.21-.25.66-.63.44-.38 1.11-.91 1.96-1.53 1.69-1.24 4.14-2.82 7.01-4.27 2.87-1.44 5.6-2.47 7.6-3.09 1-.31 1.82-.54 2.4-.66.57-.14.89-.2.9-.16z"/><path class="st13" d="M270.9 358.23c.01.02-.24.18-.72.48-.52.32-1.22.75-2.11 1.3-.93.54-2.04 1.25-3.31 2.09-1.29.82-2.74 1.77-4.32 2.87-3.19 2.14-6.89 4.85-10.98 7.87-4.07 3.05-8.5 6.46-13.15 10.05-4.64 3.6-9.09 7-13.16 10.05-4.1 3.02-7.81 5.72-11.02 7.85-1.59 1.09-3.05 2.03-4.35 2.85-1.29.83-2.41 1.52-3.34 2.05-.9.52-1.62.93-2.15 1.24-.49.28-.76.42-.77.4-.01-.02.24-.18.71-.49.52-.33 1.22-.77 2.1-1.32.92-.55 2.02-1.27 3.29-2.12 1.28-.83 2.73-1.79 4.3-2.9 3.18-2.17 6.86-4.89 10.94-7.93 4.06-3.07 8.49-6.48 13.13-10.08 4.64-3.59 9.09-6.99 13.18-10.03 4.11-3 7.83-5.68 11.06-7.79 1.59-1.08 3.07-2.01 4.37-2.81 1.29-.82 2.42-1.5 3.36-2.02.91-.51 1.63-.92 2.16-1.22.5-.27.77-.4.78-.39zM295.9 379.83c.01 0-.01.08-.05.22-.06.17-.12.38-.2.64-.19.56-.45 1.39-.9 2.42-.86 2.07-2.33 5.01-4.73 8.25-1.2 1.62-2.62 3.31-4.31 4.98-1.68 1.67-3.58 3.35-5.74 4.91-4.29 3.16-9.56 5.86-15.38 7.83-5.81 2-11.5 3.33-16.64 4.63-5.14 1.29-9.79 2.4-13.72 3.22-3.93.82-7.13 1.37-9.35 1.69-1.11.16-1.97.27-2.56.33-.27.03-.49.05-.67.07-.15.01-.23.01-.23.01 0-.01.07-.03.22-.06.18-.03.4-.07.66-.12.62-.11 1.47-.25 2.55-.43 2.21-.38 5.4-.98 9.31-1.84 3.91-.86 8.55-2.01 13.69-3.32 5.13-1.33 10.81-2.67 16.59-4.66 5.78-1.96 11-4.62 15.27-7.73 2.15-1.53 4.04-3.19 5.72-4.83 1.68-1.64 3.11-3.3 4.32-4.89 2.42-3.18 3.93-6.07 4.84-8.11.48-1.01.77-1.83.99-2.38.1-.25.18-.45.25-.62.03-.14.06-.21.07-.21zM298.75 379.54c.06.02-.08.78-.5 1.96s-1.15 2.76-2.21 4.35c-1.07 1.59-2.26 2.86-3.2 3.69-.94.83-1.59 1.24-1.63 1.2-.11-.12 2.32-2.04 4.41-5.17 2.11-3.11 2.97-6.08 3.13-6.03zM191.64 431.89c-.03-.01.01-.37.12-1.03s.3-1.6.57-2.77c.53-2.32 1.42-5.51 2.68-8.92 1.27-3.42 2.68-6.4 3.79-8.51.56-1.05 1.03-1.9 1.37-2.47.34-.57.55-.88.58-.86.07.04-.61 1.35-1.63 3.49-1.03 2.14-2.38 5.13-3.64 8.53-1.26 3.39-2.19 6.54-2.81 8.83-.61 2.29-.96 3.73-1.03 3.71zM116.53 367.37c-.02-.05.68-.39 1.91-.67 1.22-.28 2.98-.44 4.89-.19 1.91.26 3.56.89 4.66 1.49 1.11.6 1.7 1.11 1.66 1.16-.07.15-2.66-1.66-6.39-2.14-3.73-.54-6.7.52-6.73.35z"/><path class="st3" d="M141.18 417.12c-2.37-.01-5.33 1.83-6.84 3.65-1.51 1.82-2.44 4.05-3.33 6.24-.69 1.72-1.38 3.66-.69 5.38.65 1.63 2.41 2.59 4.15 2.82 1.74.23 3.49-.13 5.22-.42 18.06-3.04 36.73 1.4 54.84-1.33l-53.35-16.34z"/><path class="st4" d="M141.06 434.49c-.03-.03.26-.34.64-1 .38-.65.84-1.68.89-3.02.06-1.32-.39-2.96-1.56-4.28-.58-.65-1.33-1.23-2.21-1.53-.87-.31-1.91-.28-2.69.3-.79.54-1.15 1.59-.63 2.33.22.37.59.65.98.75.39.11.79 0 1.11-.24.65-.5.82-1.37.74-2.13-.08-.77-.3-1.49-.53-2.12-.98-2.54-2.36-3.69-2.26-3.75.02-.02.36.24.88.82.51.58 1.18 1.5 1.72 2.8.26.65.51 1.37.62 2.21.11.81-.04 1.88-.87 2.54-.39.32-.98.49-1.52.34-.53-.14-.99-.49-1.28-.96-.3-.46-.42-1.1-.24-1.65.16-.56.54-1.03 1-1.36.93-.7 2.19-.72 3.15-.36.99.35 1.79.99 2.4 1.7 1.24 1.44 1.68 3.2 1.57 4.6-.1 1.42-.64 2.47-1.08 3.11-.46.65-.81.92-.83.9zM153.43 420.66c.04-.03.6.67 1.04 2.03.45 1.34.7 3.39.1 5.51-.6 2.12-1.9 3.73-2.98 4.63-1.09.92-1.94 1.23-1.96 1.18-.04-.08.72-.49 1.71-1.45.99-.94 2.16-2.5 2.74-4.51.57-2.01.39-3.95.05-5.27-.34-1.32-.77-2.08-.7-2.12zM163.49 423.79c.03.04-.26.22-.65.66-.38.44-.86 1.18-1.03 2.21-.17.99-.02 2.37.97 3.28.47.45 1.18.7 1.79.41.6-.27 1.02-1.02.92-1.71-.1-.71-.7-1.28-1.35-1.5-.66-.23-1.38-.08-1.94.26-1.16.7-1.52 2.04-1.48 3.05.04 1.04.39 1.85.64 2.38.26.54.44.82.41.84-.02.02-.26-.23-.58-.75-.31-.52-.74-1.33-.83-2.46-.04-.56.02-1.19.26-1.81.23-.63.69-1.24 1.34-1.65.64-.41 1.51-.62 2.34-.34.8.26 1.55.95 1.69 1.9.13.94-.4 1.86-1.21 2.24-.85.39-1.78 0-2.31-.52-1.14-1.1-1.23-2.63-1.01-3.69.24-1.1.8-1.86 1.24-2.28.45-.42.78-.54.79-.52zM173.81 434.49c-.05-.06.29-.34.72-.87.43-.52.93-1.34 1.12-2.33.19-1 .01-1.93-.22-2.57-.22-.64-.46-1.01-.39-1.05.05-.04.39.26.72.91.33.64.6 1.68.39 2.8a4.69 4.69 0 0 1-1.35 2.48c-.54.51-.96.68-.99.63z"/><path class="st3" d="M273.3 420.45c-2.86-3.93-8.38-4.75-13.23-4.49-3.83.21-7.64.88-11.31 2-1.92.59-3.91 1.3-5.89.94-1.73-.32-3.2-1.43-4.89-1.92-3.07-.89-6.28.36-9.43.91-8.05 1.39-16.08-1.94-23.56-5.2l-8.93 17.36c8.55 3.79 16.12 5.5 25.11 7.69 7.97 1.94 16.31 1.27 24.52 1.56 4.69.17 9.4.65 14.06.08 4.66-.57 9.37-2.34 12.41-5.92 3.04-3.58 3.9-9.22 1.14-13.01z"/><path class="st4" d="M205.88 433.66c-.02.01-.07-.09-.17-.29-.1-.2-.22-.5-.35-.9-.25-.79-.51-2-.43-3.51.08-1.5.5-3.31 1.58-5 .54-.84 1.27-1.68 2.3-2.18 1.01-.47 2.34-.62 3.41.15.47.41.85 1.01.71 1.73-.08.35-.36.63-.67.76-.31.13-.63.13-.92.1a5.967 5.967 0 0 1-2.9-1.29c-1.59-1.3-2.28-3.2-2.19-4.72.07-1.54.66-2.68 1.17-3.34.25-.34.49-.57.65-.71.17-.14.26-.21.28-.19.03.03-.32.33-.77 1.02-.44.67-.95 1.79-.97 3.23-.04 1.43.63 3.16 2.12 4.35.73.58 1.66 1.03 2.65 1.16.48.07.96-.09 1.05-.48.1-.39-.17-.91-.54-1.21-.8-.59-1.99-.52-2.87-.09-.91.43-1.59 1.19-2.12 1.98-1.05 1.6-1.5 3.33-1.62 4.77-.2 2.92.72 4.64.6 4.66zM219.96 436.54c0-.04.32-.04.86-.19.54-.14 1.29-.47 2.01-1.15.72-.67 1.34-1.72 1.54-3.01.21-1.28.01-2.76-.57-4.16-.58-1.41-1.43-2.61-2.26-3.66-.83-1.04-1.69-1.95-2.11-2.94-.44-.98-.4-1.9-.2-2.45.2-.57.48-.77.49-.76.04.03-.18.27-.3.81-.13.53-.11 1.37.33 2.24.43.89 1.28 1.75 2.15 2.8.86 1.05 1.75 2.28 2.36 3.76.61 1.47.81 3.05.56 4.43-.23 1.39-.95 2.52-1.76 3.2-.8.69-1.64 1-2.21 1.08-.57.1-.89.03-.89 0zM243.22 418.91c.02-.01.08.14.17.41.09.28.22.69.34 1.23.24 1.08.48 2.69.33 4.68-.08.99-.24 2.09-.66 3.2-.41 1.1-1.16 2.26-2.35 2.96-1.18.68-2.69.95-4.14.54-.72-.2-1.41-.56-1.97-1.12-.56-.55-.94-1.37-.84-2.22.05-.84.72-1.64 1.54-1.81.8-.21 1.66.04 2.25.53 1.2 1 1.59 2.55 1.5 3.89-.24 2.76-2.1 4.73-3.79 5.72-1.73 1.03-3.32 1.41-4.39 1.68-.54.13-.96.21-1.25.25-.29.05-.44.06-.44.05-.01-.04.58-.18 1.64-.49 1.04-.32 2.6-.76 4.25-1.79.81-.53 1.65-1.2 2.29-2.13.65-.92 1.15-2.06 1.23-3.31.08-1.22-.32-2.63-1.34-3.47-.5-.41-1.18-.59-1.81-.43-.64.14-1.1.7-1.16 1.37-.08.67.22 1.33.7 1.81s1.1.82 1.75 1c1.3.38 2.69.14 3.77-.47 1.08-.62 1.79-1.66 2.19-2.7.42-1.05.59-2.12.69-3.08.2-1.94.02-3.54-.16-4.61-.2-1.09-.38-1.67-.34-1.69zM251.52 438.99c-.01.01-.14-.08-.37-.28-.23-.2-.54-.51-.91-.94-.72-.88-1.64-2.32-2.09-4.34-.46-2-.3-4.62 1.04-7.03.66-1.2 1.58-2.33 2.76-3.25 1.17-.89 2.62-1.7 4.3-1.62 1.66.05 3.21 1.54 3 3.22-.11.83-.74 1.49-1.44 1.77-.7.29-1.48.32-2.18.11-1.43-.47-2.16-1.86-2.32-3.06-.16-1.24.12-2.41.65-3.32 1.1-1.8 2.64-2.64 3.61-3.18.5-.26.91-.44 1.18-.56.28-.11.43-.16.43-.15.02.04-.55.31-1.52.88-.94.58-2.4 1.46-3.4 3.18-.47.85-.71 1.95-.54 3.08.16 1.1.85 2.3 2.04 2.68.58.18 1.26.14 1.85-.11.59-.24 1.06-.76 1.14-1.4.17-1.3-1.12-2.62-2.54-2.64-1.46-.08-2.85.65-3.96 1.5-1.12.87-2.02 1.94-2.66 3.08a9.88 9.88 0 0 0-1.1 6.73 10.93 10.93 0 0 0 1.89 4.29c.7.92 1.17 1.33 1.14 1.36zM267.76 417.09c.03-.01.22.29.5.88.28.59.62 1.47.92 2.59.6 2.24.87 5.57-.14 9.02-1.01 3.45-3.04 6.11-4.75 7.67-.86.79-1.62 1.35-2.17 1.69-.55.34-.88.5-.89.47-.05-.08 1.2-.8 2.81-2.42 1.61-1.59 3.53-4.21 4.51-7.55s.78-6.58.28-8.79c-.5-2.24-1.16-3.52-1.07-3.56z"/><path class="st6" d="M161.79 198.74s2.58-2.69 2.79-3.88c.75-4.12 2.03-6.2 4.11-7.46 0 0 2.73 4.63 3.01 12.52.2 5.63.3 9.89.3 9.89s2.83 6.7 1.49 10.13c-1.34 3.43-3.16 2.23-5.68 1.19-2.52-1.04-3.41-5.06-3.41-5.06l-2.63-.23v-17.1z"/><path class="st7" d="M168.69 187.4c.02-.01.09.09.22.3.13.2.32.51.52.93.41.82.91 2.07 1.32 3.67.42 1.6.75 3.54.99 5.69.11 1.08.23 2.21.35 3.39.13 1.17.17 2.42.16 3.67 0 1.25 0 2.46.14 3.61.13 1.15.46 2.22.8 3.25.34 1.02.68 2 .91 2.96.25.94.3 1.9.18 2.73-.22 1.66-.79 2.92-1.35 3.67-.57.77-1.17.87-1.16.84-.02-.04.5-.19.99-.96.48-.75.98-2 1.15-3.6.25-1.61-.47-3.45-1.17-5.49-.35-1.03-.71-2.14-.85-3.34-.16-1.19-.16-2.43-.16-3.68.01-1.25-.02-2.45-.15-3.62-.11-1.17-.21-2.3-.32-3.38-.22-2.15-.51-4.07-.87-5.66-.36-1.59-.8-2.83-1.15-3.67-.34-.84-.59-1.28-.55-1.31zM166.82 199.59c-.03.14-1.38.01-3.02-.29-1.64-.3-2.96-.66-2.93-.8.03-.14 1.38-.01 3.02.29 1.64.3 2.96.66 2.93.8z"/><path class="st13" d="M201.41 377.87c0 .02-.18.01-.5-.02-.39-.04-.86-.1-1.43-.16-1.24-.15-3.04-.39-5.25-.71a657.101 657.101 0 0 1-34.46-5.92c-2.19-.44-3.97-.81-5.19-1.09-.56-.13-1.02-.24-1.4-.33-.32-.08-.49-.13-.48-.15 0-.02.18 0 .5.05.38.06.85.14 1.42.23 1.31.23 3.07.54 5.22.92 4.48.79 10.53 1.86 17.21 3.04l17.24 2.88c2.15.36 3.91.65 5.23.87.57.1 1.03.19 1.42.26.3.07.47.11.47.13z"/><path class="st6" d="M228.76 185.66s2.8 6.99 2.78 9.74c-.02 2.75-1.88 9.71-1.88 9.71l-.9-19.45z"/><path class="st6" d="m234.03 206.7-3.9-.56s-1.03-10.3-.93-11.91c.21-3.24-.52-12.65-1.78-13.88-2.65-2.58-2.06 13.88-2.06 13.88 0-4.32-.25-9.8-.87-10.93-1.07-1.93-2.3.21-2.3.21s-2.18 16.77-2.33 20.38c-.16 3.61-.44 13.6.26 15.58.74 2.1-.11 2.77 2.24 2.61 2.35-.16 15.35-1.74 15.35-1.74l-2.88-13.83"/><path class="st7" d="M222.18 183.51c.04 0 .01.59-.07 1.66-.08 1.07-.23 2.61-.44 4.51-.41 3.8-1.14 9.03-1.86 14.81-.35 2.89-.65 5.65-.85 8.16-.16 2.51-.47 4.81.04 6.61.19.94.79 1.51 1.45 1.88.64.36 1.26.56 1.77.67 1.03.23 1.63.13 1.63.18 0 .01-.14.06-.43.08-.28.03-.71.02-1.24-.06a6.32 6.32 0 0 1-1.88-.62c-.35-.18-.7-.42-1.01-.76-.32-.34-.51-.81-.65-1.27-.58-1.91-.29-4.24-.16-6.75.17-2.53.46-5.29.81-8.19.72-5.79 1.51-11.01 2.01-14.79.24-1.82.45-3.34.6-4.48.15-1.06.25-1.65.28-1.64zM224.87 198.98c-.11-.1.31-.74.43-1.64.14-.89-.08-1.63.05-1.69.12-.08.62.7.46 1.77-.15 1.07-.85 1.67-.94 1.56zM225.18 186.39c.14-.02.5 1.67.53 3.79.04 2.12-.28 3.82-.42 3.81-.15-.02-.07-1.71-.11-3.8-.01-2.09-.14-3.78 0-3.8zM229.26 196.44c-.13 0-.28-2.35-.45-5.26-.16-2.91-.08-5.29.07-5.28.13 0 .28 2.35.45 5.26.16 2.91.08 5.28-.07 5.28zM235.21 206.87c0 .14-1.97.21-4.4.15-2.43-.06-4.39-.23-4.39-.37 0-.14 1.97-.21 4.4-.15 2.43.06 4.39.23 4.39.37z"/></g></svg>